<svg width="686" height="445" viewBox="0 0 686 445" fill="none" xmlns="http://www.w3.org/2000/svg">
<path d="M493.58 429.01C493.56 428.49 491.799 376.59 483.359 368.39C475.149 360.41 465.73 368.09 465.33 368.42L464.479 367.41C464.589 367.32 475.22 358.64 484.28 367.44C493.1 376.02 494.83 426.81 494.89 428.97L493.57 429.01H493.58Z" fill="#E0E0E0"/>
<path d="M494.31 439.21C494.25 438.59 488.54 376.91 511.07 351.06L512.07 351.93C489.92 377.35 495.57 438.47 495.63 439.08L494.32 439.21H494.31Z" fill="#E0E0E0"/>
<path d="M493.48 432.68L492.16 432.59C492.21 431.89 496.57 362.47 480.05 347.27L480.94 346.3C497.93 361.92 493.67 429.79 493.48 432.68Z" fill="#E0E0E0"/>
<path d="M495.63 432.64H494.31C494.33 430.72 494.85 385.74 507.63 378.42C510.47 376.79 513.25 376.52 515.9 377.61C523.63 380.81 527.45 394.55 527.61 395.14L526.34 395.49C526.3 395.35 522.52 381.78 515.4 378.83C513.15 377.9 510.76 378.15 508.3 379.56C496.18 386.51 495.65 432.18 495.64 432.64H495.63Z" fill="#E0E0E0"/>
<path d="M490.65 432.68L489.33 432.61C489.35 432.26 491.26 397.07 481.76 384.67C479.46 381.67 476.96 380.23 474.32 380.42C468.1 380.85 462.88 389.96 462.83 390.05L461.68 389.4C461.91 389 467.3 379.59 474.23 379.1C477.33 378.88 480.22 380.49 482.81 383.87C492.6 396.66 490.73 431.22 490.65 432.69V432.68Z" fill="#E0E0E0"/>
<path d="M492.73 437.46C492.47 434.05 486.52 353.7 496.99 339.54L498.05 340.32C487.87 354.09 493.98 436.52 494.05 437.35L492.73 437.45V437.46Z" fill="#E0E0E0"/>
<path d="M518.74 385.76C518.74 385.76 512.46 388.08 514.33 393.54C516.2 399.01 536.05 408 536.05 408C536.05 408 544.37 400.38 536.73 387.98C529.09 375.58 518.91 381.85 518.74 385.76Z" fill="#EBEBEB"/>
<path d="M491.44 375.35C491.44 375.35 498.13 375.07 498.51 380.83C498.89 386.59 484.02 402.54 484.02 402.54C484.02 402.54 473.41 398.7 475.69 384.32C477.97 369.94 489.78 371.8 491.44 375.35Z" fill="#EBEBEB"/>
<path d="M485.78 347.77C485.78 347.77 490.24 347.29 489.88 344.58C489.52 341.86 472.55 334.88 462.53 346.18C462.53 346.18 468.94 357.19 478.21 357.34C487.48 357.48 485.77 347.78 485.77 347.78L485.78 347.77Z" fill="#EBEBEB"/>
<path d="M494.09 341.17C494.09 341.17 490.05 343.12 488.92 340.63C487.79 338.14 498.5 323.23 512.97 327.52C512.97 327.52 513.35 340.26 505.56 345.28C497.77 350.3 494.08 341.17 494.08 341.17H494.09Z" fill="#EBEBEB"/>
<path d="M472.98 383.56C472.98 383.56 476.06 381.08 472.74 379.86C469.42 378.65 453.13 378.99 452.96 395.13C452.96 395.13 471.94 398.28 474.29 392.14C476.64 385.99 472.99 383.56 472.99 383.56H472.98Z" fill="#EBEBEB"/>
<path d="M511.67 347.36C511.67 347.36 508.59 344.88 511.91 343.66C515.23 342.45 531.52 342.79 531.69 358.93C531.69 358.93 512.71 362.08 510.36 355.94C508.01 349.79 511.66 347.36 511.66 347.36H511.67Z" fill="#EBEBEB"/>
<path d="M501.64 360.36C501.64 360.36 501.37 357.34 503.81 358.52C506.25 359.7 514.74 368.87 505.94 377.56C505.94 377.56 494.09 368.78 496.22 364.21C498.36 359.64 501.64 360.35 501.64 360.35V360.36Z" fill="#EBEBEB"/>
<path d="M470.23 364.67C470.23 364.67 472.07 362.26 469.38 361.96C466.69 361.66 454.61 364.88 457.43 376.94C457.43 376.94 472.14 375.83 472.77 370.83C473.4 365.82 470.24 364.68 470.24 364.68L470.23 364.67Z" fill="#EBEBEB"/>
<path d="M508.79 445.54H475.4L471.74 417.18H512.34L508.79 445.54Z" fill="#F0F0F0"/>
<path d="M515.2 413.69H468.99V420.68H515.2V413.69Z" fill="#E6E6E6"/>
<path d="M352.31 55.6801H285.49V173.29H352.31V55.6801Z" fill="#E6E6E6"/>
<path d="M349.04 55.6801H270.54V173.29H349.04V55.6801Z" fill="#F0F0F0"/>
<path d="M337.07 66.1201H282.47V162.84H337.07V66.1201Z" fill="white"/>
<path d="M321.03 86.49H299.25V143.01H321.03V86.49Z" fill="#F0F0F0"/>
<path d="M609.73 314.64H428.98C425.75 314.64 423.12 312.01 423.12 308.78V45.5C423.12 42.27 425.75 39.64 428.98 39.64H609.73C612.96 39.64 615.59 42.27 615.59 45.5V308.78C615.59 312.01 612.96 314.64 609.73 314.64ZM428.99 39.89C425.9 39.89 423.38 42.41 423.38 45.5V308.78C423.38 311.87 425.9 314.39 428.99 314.39H609.74C612.83 314.39 615.35 311.87 615.35 308.78V45.5C615.35 42.41 612.83 39.89 609.74 39.89H428.99Z" fill="#E0E0E0"/>
<path d="M401.31 314.64H220.56C217.33 314.64 214.7 312.01 214.7 308.78V45.5C214.7 42.27 217.33 39.64 220.56 39.64H401.31C404.54 39.64 407.17 42.27 407.17 45.5V308.78C407.17 312.01 404.54 314.64 401.31 314.64ZM220.56 39.89C217.47 39.89 214.95 42.41 214.95 45.5V308.78C214.95 311.87 217.47 314.39 220.56 314.39H401.31C404.4 314.39 406.92 311.87 406.92 308.78V45.5C406.92 42.41 404.4 39.89 401.31 39.89H220.56Z" fill="#E0E0E0"/>
<path d="M193.01 314.64H12.2701C9.04015 314.64 6.41016 312.01 6.41016 308.78V45.5C6.41016 42.27 9.04015 39.64 12.2701 39.64H193.02C196.25 39.64 198.88 42.27 198.88 45.5V308.78C198.88 312.01 196.25 314.64 193.02 314.64H193.01ZM12.2701 39.89C9.18015 39.89 6.66016 42.41 6.66016 45.5V308.78C6.66016 311.87 9.18015 314.39 12.2701 314.39H193.02C196.11 314.39 198.63 311.87 198.63 308.78V45.5C198.63 42.41 196.11 39.89 193.02 39.89H12.2701Z" fill="#E0E0E0"/>
<path d="M686 375.71H-64V375.83H686V375.71Z" fill="#E0E0E0"/>
<path d="M645.36 405.08H589.63V405.5H645.36V405.08Z" fill="#EBEBEB"/>
<path d="M445.67 409.65H431.04V410.07H445.67V409.65Z" fill="#EBEBEB"/>
<path d="M49.3101 392.29H-23.3599V392.71H49.3101V392.29Z" fill="#EBEBEB"/>
<path d="M74.9603 392.29H64.3003V392.71H74.9603V392.29Z" fill="#EBEBEB"/>
<path d="M267.2 399.39H109.59V399.81H267.2V399.39Z" fill="#EBEBEB"/>
<path d="M175.89 53.84H32.9902V211.97H175.89V53.84Z" fill="#E0E0E0"/>
<path d="M169.98 60.0999H39.2803V206.02H169.98V60.0999Z" fill="#F5F5F5"/>
<path d="M76.2203 60.0999L39.2803 198.44V123.55L56.1803 60.0999H76.2203Z" fill="white"/>
<path d="M92.7302 60.0999L53.7702 206.03H46.4302L85.3802 60.0999H92.7302Z" fill="white"/>
<path d="M169.98 99.8999V174.8L161.71 206.03H141.67L169.98 99.8999Z" fill="white"/>
<path d="M106.99 53.84H101.91V211.97H106.99V53.84Z" fill="#E0E0E0"/>
<path d="M173.16 85.9299H35.4805V91.0099H173.16V85.9299Z" fill="#E0E0E0"/>
<path d="M586.12 53.84H443.22V211.97H586.12V53.84Z" fill="#E0E0E0"/>
<path d="M580.21 60.0999H449.51V206.02H580.21V60.0999Z" fill="#F5F5F5"/>
<path d="M486.44 60.0999L449.51 198.44V123.55L466.41 60.0999H486.44Z" fill="white"/>
<path d="M502.95 60.0999L464 206.03H456.65L495.61 60.0999H502.95Z" fill="white"/>
<path d="M580.2 99.8999V174.8L571.93 206.03H551.89L580.2 99.8999Z" fill="white"/>
<path d="M517.21 53.84H512.13V211.97H517.21V53.84Z" fill="#E0E0E0"/>
<path d="M583.38 85.9299H445.7V91.0099H583.38V85.9299Z" fill="#E0E0E0"/>
<path d="M652.1 448.39C652.1 451.78 496.06 454.52 303.58 454.52C111.1 454.52 -44.9399 451.77 -44.9399 448.39C-44.9399 445.01 111.1 442.26 303.58 442.26C496.06 442.26 652.1 445.01 652.1 448.39Z" fill="#F5F5F5"/>
<path d="M604.21 437.77V296.07H591.65V437.77L583.66 440.52V444.79H612.2V440.52L604.21 437.77Z" fill="#263238"/>
<path d="M444.38 296.07H431.82V437.77L423.83 440.52V444.79H452.37V440.52L444.38 437.77V296.07Z" fill="#263238"/>
<g opacity="0.2">
<path d="M604.21 312.74H591.65V437.77L583.66 440.52V444.79H612.2V440.52L604.21 437.77V312.74Z" fill="white"/>
<path d="M444.38 312.74H431.82V437.77L423.83 440.52V444.79H452.37V440.52L444.38 437.77V312.74Z" fill="white"/>
</g>
<path d="M643.03 97.4199H393V300.64H643.03V97.4199Z" fill="#263238"/>
<path d="M637.47 103.06H398.56V294.88H637.47V103.06Z" fill="#26A4C0"/>
<path d="M510.06 172.7H425.04V119.35L510.06 172.7ZM426.04 171.7H506.58L426.04 121.16V171.7Z" fill="#263238"/>
<path d="M430.09 172.34H429.3V168.49H425.45V167.69H430.09V172.34Z" fill="#263238"/>
<path d="M467.66 139.04H466.77V131.26H467.73V134.04C468.13 133.53 468.65 133.28 469.27 133.28C469.62 133.28 469.94 133.35 470.25 133.49C470.56 133.63 470.81 133.83 471.01 134.08C471.21 134.33 471.37 134.64 471.48 134.99C471.59 135.35 471.65 135.73 471.65 136.14C471.65 137.11 471.41 137.85 470.93 138.38C470.45 138.91 469.88 139.17 469.21 139.17C468.54 139.17 468.02 138.89 467.64 138.34V139.05L467.66 139.04ZM467.65 136.18C467.65 136.86 467.74 137.34 467.93 137.64C468.23 138.13 468.64 138.38 469.15 138.38C469.57 138.38 469.93 138.2 470.23 137.84C470.53 137.48 470.69 136.94 470.69 136.22C470.69 135.5 470.54 134.94 470.25 134.59C469.96 134.24 469.61 134.06 469.19 134.06C468.77 134.06 468.41 134.24 468.11 134.6C467.81 134.96 467.65 135.49 467.65 136.17V136.18Z" fill="#263238"/>
<path d="M427.5 217.49H426.61V209.71H427.57V212.49C427.97 211.98 428.49 211.73 429.11 211.73C429.46 211.73 429.78 211.8 430.09 211.94C430.4 212.08 430.65 212.28 430.85 212.53C431.05 212.78 431.21 213.09 431.32 213.44C431.43 213.8 431.49 214.18 431.49 214.59C431.49 215.56 431.25 216.3 430.77 216.83C430.29 217.36 429.72 217.62 429.05 217.62C428.38 217.62 427.86 217.34 427.48 216.79V217.5L427.5 217.49ZM427.49 214.63C427.49 215.31 427.58 215.79 427.77 216.09C428.07 216.58 428.48 216.83 428.99 216.83C429.41 216.83 429.77 216.65 430.07 216.29C430.37 215.93 430.53 215.39 430.53 214.67C430.53 213.95 430.38 213.39 430.09 213.04C429.8 212.69 429.45 212.51 429.03 212.51C428.61 212.51 428.25 212.69 427.95 213.05C427.65 213.41 427.49 213.94 427.49 214.62V214.63Z" fill="#263238"/>
<path d="M459.06 180.74L460 180.86C459.9 181.51 459.63 182.01 459.21 182.38C458.79 182.75 458.27 182.93 457.65 182.93C456.88 182.93 456.26 182.68 455.79 182.17C455.32 181.67 455.09 180.94 455.09 180C455.09 179.39 455.19 178.86 455.39 178.4C455.59 177.94 455.9 177.6 456.31 177.37C456.72 177.14 457.17 177.03 457.66 177.03C458.27 177.03 458.77 177.18 459.16 177.49C459.55 177.8 459.8 178.24 459.91 178.81L458.98 178.95C458.89 178.57 458.73 178.29 458.51 178.1C458.29 177.91 458.01 177.81 457.7 177.81C457.22 177.81 456.83 177.98 456.53 178.33C456.23 178.68 456.08 179.22 456.08 179.97C456.08 180.72 456.23 181.28 456.52 181.62C456.81 181.96 457.19 182.13 457.66 182.13C458.03 182.13 458.35 182.02 458.6 181.79C458.85 181.56 459.01 181.21 459.08 180.73L459.06 180.74Z" fill="#263238"/>
<path d="M430.3 231.38L431.24 231.5C431.14 232.15 430.87 232.65 430.45 233.02C430.03 233.39 429.51 233.57 428.89 233.57C428.12 233.57 427.5 233.32 427.03 232.81C426.56 232.31 426.33 231.58 426.33 230.64C426.33 230.03 426.43 229.5 426.63 229.04C426.83 228.58 427.14 228.24 427.55 228.01C427.96 227.78 428.41 227.67 428.9 227.67C429.51 227.67 430.01 227.82 430.4 228.13C430.79 228.44 431.04 228.88 431.15 229.45L430.22 229.59C430.13 229.21 429.97 228.93 429.75 228.74C429.53 228.55 429.25 228.45 428.94 228.45C428.46 228.45 428.07 228.62 427.77 228.97C427.47 229.32 427.32 229.86 427.32 230.61C427.32 231.36 427.47 231.92 427.76 232.26C428.05 232.6 428.43 232.77 428.9 232.77C429.27 232.77 429.59 232.66 429.84 232.43C430.09 232.2 430.25 231.85 430.32 231.37L430.3 231.38Z" fill="#263238"/>
<path d="M420.73 150.73C420.38 151.03 420.04 151.24 419.71 151.37C419.38 151.49 419.03 151.56 418.66 151.56C418.04 151.56 417.56 151.41 417.23 151.11C416.9 150.81 416.73 150.42 416.73 149.95C416.73 149.67 416.79 149.42 416.92 149.19C417.05 148.96 417.21 148.78 417.41 148.64C417.61 148.5 417.84 148.4 418.1 148.33C418.29 148.28 418.57 148.23 418.95 148.19C419.72 148.1 420.29 147.99 420.65 147.86C420.65 147.73 420.65 147.65 420.65 147.61C420.65 147.22 420.56 146.95 420.38 146.79C420.14 146.57 419.77 146.47 419.29 146.47C418.84 146.47 418.51 146.55 418.29 146.71C418.08 146.87 417.92 147.15 417.82 147.55L416.89 147.42C416.97 147.02 417.11 146.7 417.31 146.45C417.5 146.2 417.79 146.02 418.15 145.88C418.52 145.75 418.94 145.68 419.43 145.68C419.92 145.68 420.3 145.74 420.6 145.85C420.9 145.96 421.12 146.11 421.26 146.28C421.4 146.45 421.5 146.67 421.56 146.93C421.59 147.09 421.61 147.39 421.61 147.81V149.08C421.61 149.97 421.63 150.53 421.67 150.76C421.71 151 421.79 151.22 421.91 151.44H420.91C420.81 151.24 420.75 151.01 420.72 150.74L420.73 150.73ZM420.65 148.6C420.3 148.74 419.78 148.86 419.09 148.96C418.7 149.02 418.42 149.08 418.26 149.15C418.1 149.22 417.97 149.32 417.88 149.46C417.79 149.6 417.75 149.75 417.75 149.91C417.75 150.16 417.85 150.38 418.04 150.55C418.23 150.72 418.51 150.8 418.89 150.8C419.27 150.8 419.59 150.72 419.87 150.56C420.16 150.4 420.37 150.18 420.5 149.9C420.6 149.68 420.65 149.37 420.65 148.94V148.59V148.6Z" fill="#263238"/>
<path d="M430.3 200.83C429.95 201.13 429.61 201.34 429.28 201.47C428.95 201.59 428.6 201.66 428.23 201.66C427.61 201.66 427.13 201.51 426.8 201.21C426.47 200.91 426.3 200.52 426.3 200.05C426.3 199.77 426.36 199.52 426.49 199.29C426.62 199.06 426.78 198.88 426.98 198.74C427.18 198.6 427.41 198.5 427.67 198.43C427.86 198.38 428.14 198.33 428.52 198.29C429.29 198.2 429.86 198.09 430.22 197.96C430.22 197.83 430.22 197.75 430.22 197.71C430.22 197.32 430.13 197.05 429.95 196.89C429.71 196.67 429.34 196.57 428.86 196.57C428.41 196.57 428.08 196.65 427.86 196.81C427.65 196.97 427.49 197.25 427.39 197.65L426.46 197.52C426.54 197.12 426.68 196.8 426.88 196.55C427.07 196.3 427.36 196.12 427.72 195.98C428.09 195.85 428.51 195.78 429 195.78C429.49 195.78 429.87 195.84 430.17 195.95C430.47 196.06 430.69 196.21 430.83 196.38C430.97 196.55 431.07 196.77 431.13 197.03C431.16 197.19 431.18 197.49 431.18 197.91V199.18C431.18 200.07 431.2 200.63 431.24 200.86C431.28 201.1 431.36 201.32 431.48 201.54H430.48C430.38 201.34 430.32 201.11 430.29 200.84L430.3 200.83ZM430.22 198.7C429.87 198.84 429.35 198.96 428.66 199.06C428.27 199.12 427.99 199.18 427.83 199.25C427.67 199.32 427.54 199.42 427.45 199.56C427.36 199.7 427.32 199.85 427.32 200.01C427.32 200.26 427.42 200.48 427.61 200.65C427.8 200.82 428.08 200.9 428.46 200.9C428.84 200.9 429.16 200.82 429.44 200.66C429.73 200.5 429.94 200.28 430.07 200C430.17 199.78 430.22 199.47 430.22 199.04V198.69V198.7Z" fill="#263238"/>
<path d="M573.39 120.32H527.72V121.32H573.39V120.32Z" fill="#263238"/>
<path d="M552.84 129.46H527.72V130.46H552.84V129.46Z" fill="#263238"/>
<path d="M563.11 136.31H527.72V137.31H563.11V136.31Z" fill="#263238"/>
<path d="M557.4 144.3H527.72V145.3H557.4V144.3Z" fill="#263238"/>
<path d="M572.25 153.43H527.72V154.43H572.25V153.43Z" fill="#263238"/>
<path d="M571.1 161.42H527.72V162.42H571.1V161.42Z" fill="#263238"/>
<path d="M557.4 169.42H527.72V170.42H557.4V169.42Z" fill="#263238"/>
<path d="M609.93 239.06H579.1V240.06H609.93V239.06Z" fill="#263238"/>
<path d="M596.22 248.19H579.1V249.19H596.22V248.19Z" fill="#263238"/>
<path d="M603.08 255.04H579.1V256.04H603.08V255.04Z" fill="#263238"/>
<path d="M599.65 263.03H579.1V264.03H599.65V263.03Z" fill="#263238"/>
<path d="M453.52 253.9H422.69V254.9H453.52V253.9Z" fill="#263238"/>
<path d="M439.81 263.03H422.69V264.03H439.81V263.03Z" fill="#263238"/>
<path d="M446.66 269.88H422.69V270.88H446.66V269.88Z" fill="#263238"/>
<path d="M443.24 277.88H422.69V278.88H443.24V277.88Z" fill="#263238"/>
<path d="M617.91 136.31H588.23V137.31H617.91V136.31Z" fill="#263238"/>
<path d="M617.91 144.3H588.23V145.3H617.91V144.3Z" fill="#263238"/>
<path d="M608.78 152.29H588.23V153.29H608.78V152.29Z" fill="#263238"/>
<path d="M530 253.9H500.32V254.9H530V253.9Z" fill="#263238"/>
<path d="M530 261.89H500.32V262.89H530V261.89Z" fill="#263238"/>
<path d="M520.87 269.88H500.32V270.88H520.87V269.88Z" fill="#263238"/>
<path d="M510.6 201.38H444.38V202.38H510.6V201.38Z" fill="#263238"/>
<path d="M510.6 216.22H444.38V217.22H510.6V216.22Z" fill="#263238"/>
<path d="M510.6 231.07H444.38V232.07H510.6V231.07Z" fill="#263238"/>
<path d="M554.52 240.02C542.81 240.02 533.29 230.5 533.29 218.79C533.29 207.08 542.81 197.56 554.52 197.56C566.23 197.56 575.75 207.08 575.75 218.79C575.75 230.5 566.23 240.02 554.52 240.02ZM554.52 198.35C543.25 198.35 534.08 207.52 534.08 218.79C534.08 230.06 543.25 239.23 554.52 239.23C565.79 239.23 574.96 230.06 574.96 218.79C574.96 207.52 565.79 198.35 554.52 198.35Z" fill="#263238"/>
<path d="M575.67 219.51H554.05V197.89H555.05V218.51H575.67V219.51Z" fill="#263238"/>
<path opacity="0.6" d="M637.47 103.06H398.56V294.88H637.47V103.06Z" fill="white"/>
<path d="M544.86 110.67H514.16C511.24 110.67 508.87 113.04 508.87 115.96V138.36C508.87 141.28 511.24 143.65 514.16 143.65H536.94L544.31 151.02V143.65H544.86C547.78 143.65 550.15 141.28 550.15 138.36V115.96C550.15 113.04 547.78 110.67 544.86 110.67Z" fill="#26A4C0"/>
<path d="M517.01 127.15C517.01 128.69 518.25 129.93 519.79 129.93C521.33 129.93 522.57 128.68 522.57 127.15C522.57 125.62 521.33 124.37 519.79 124.37C518.25 124.37 517.01 125.61 517.01 127.15Z" fill="white"/>
<path d="M526.55 127.15C526.55 128.69 527.79 129.93 529.33 129.93C530.87 129.93 532.11 128.68 532.11 127.15C532.11 125.62 530.87 124.37 529.33 124.37C527.79 124.37 526.55 125.61 526.55 127.15Z" fill="white"/>
<path d="M536.09 127.15C536.09 128.69 537.33 129.93 538.87 129.93C540.41 129.93 541.65 128.68 541.65 127.15C541.65 125.62 540.41 124.37 538.87 124.37C537.33 124.37 536.09 125.61 536.09 127.15Z" fill="white"/>
<path d="M519.01 109.21H536.02C536.5 109.21 536.5 108.46 536.02 108.46H519.01C518.53 108.46 518.53 109.21 519.01 109.21Z" fill="#26A4C0"/>
<path d="M538.06 109.16H539.22C539.42 109.16 539.6 108.99 539.6 108.78C539.6 108.57 539.44 108.4 539.22 108.4H538.06C537.86 108.4 537.68 108.57 537.68 108.78C537.68 108.99 537.84 109.16 538.06 109.16Z" fill="#26A4C0"/>
<path d="M185.66 119.11C179.97 109.32 183.29 96.76 193.09 91.07C202.88 85.38 215.44 88.71 221.13 98.5C225.52 106.06 224.52 115.25 219.34 121.68L220.34 127.76L213.98 126.36C213.88 126.42 213.79 126.49 213.69 126.55C203.9 132.24 191.34 128.91 185.65 119.12L185.66 119.11Z" fill="#26A4C0"/>
<path d="M180.39 108.72C180.26 108.72 180.15 108.62 180.14 108.49C179.66 101.78 182.83 94.8502 188.22 90.8302C188.33 90.7502 188.49 90.7702 188.57 90.8802C188.65 90.9902 188.63 91.1502 188.52 91.2302C183.26 95.1502 180.17 101.91 180.64 108.45C180.64 108.59 180.55 108.71 180.41 108.72H180.39Z" fill="#26A4C0"/>
<path d="M181.33 114.73C181.23 114.73 181.14 114.67 181.1 114.58C180.68 113.62 180.46 112.56 180.46 111.51C180.46 111.37 180.57 111.26 180.71 111.26C180.85 111.26 180.96 111.37 180.96 111.51C180.96 112.49 181.16 113.48 181.55 114.38C181.61 114.51 181.55 114.65 181.42 114.71C181.39 114.72 181.35 114.73 181.32 114.73H181.33Z" fill="#26A4C0"/>
<path d="M203.39 119.55C202.62 119.55 201.98 119.3 201.46 118.8C200.94 118.3 200.68 117.7 200.68 116.98C200.68 116.26 200.93 115.67 201.44 115.19C201.95 114.71 202.6 114.47 203.39 114.47C204.18 114.47 204.83 114.71 205.34 115.19C205.85 115.67 206.1 116.27 206.1 116.98C206.1 117.69 205.84 118.3 205.32 118.8C204.8 119.3 204.16 119.55 203.39 119.55ZM205.14 112.47H201.64L200.77 99.5801H206.02L205.15 112.47H205.14Z" fill="white"/>
<path d="M561.22 256.14C561.22 256.14 544.15 320.14 540.88 345.97C536.61 379.67 525.12 428.22 525.12 428.22L532.51 428.42C532.51 428.42 555.57 387.72 560.34 350.02C579.89 311.5 581.46 264.06 581.46 264.06L561.22 256.13V256.14Z" fill="#E9B376"/>
<path d="M514.59 444.37C515.64 443.73 516.8 443.28 518.02 443.04C518.02 443.04 521.93 440.06 524.83 430.14L529.57 429.52C531.21 429.33 532.81 430.14 533.56 431.56C533.67 431.75 533.74 431.96 533.78 432.18C533.88 433.27 533.92 434.37 533.88 435.46C533.69 439.2 533.27 442.92 532.63 446.62L531.79 446.52L532.3 439.52C532.45 437.14 530.25 439.7 529.4 442.2C528.55 444.7 527.09 447.27 521.7 446.8C515.4 446.21 512.82 445.68 514.58 444.37H514.59Z" fill="#263238"/>
<path d="M525.33 427.58C525.33 427.58 521.1 440.29 518.01 443.05C518.01 443.05 522.95 445.07 526.88 438.59C531.97 430.23 533.78 432.19 533.78 432.19C533.47 430.9 533.04 429.65 532.5 428.43C531.22 426.08 525.33 427.58 525.33 427.58Z" fill="#E9B376"/>
<path d="M573.97 255.14C573.97 255.14 566.77 320.63 569.12 346.56C572.17 380.38 574.39 430.59 574.39 430.59L581.6 430.9C581.6 430.9 597.04 362.88 590.38 346.86C601.24 305.27 595.56 258.86 595.56 258.86L573.98 255.15L573.97 255.14Z" fill="#E9B376"/>
<path d="M563.18 445.23C564.25 444.61 565.42 444.19 566.65 443.98C566.65 443.98 570.65 441.12 573.81 431.27L578.57 430.75C580.23 430.6 581.8 431.47 582.5 432.93C582.6 433.13 582.67 433.33 582.7 433.55C582.77 434.66 582.77 435.78 582.7 436.89C582.41 440.61 581.89 444.31 581.14 447.97L580.3 447.85L581 440.86C581.23 438.49 578.94 441 578.03 443.46C577.11 445.92 575.59 448.47 570.2 447.87C563.94 447.09 561.38 446.5 563.17 445.23H563.18Z" fill="#263238"/>
<path d="M575.12 427.74C575.12 427.74 573.43 432.21 571.17 437.11C570.14 439.65 568.6 441.97 566.65 443.95C566.65 443.95 570.58 445.18 572.7 442.81C574.81 440.44 578.44 431.92 582.51 432.86C582.29 432.16 581.99 431.49 581.61 430.87C581 429.93 575.14 427.76 575.14 427.76L575.12 427.74Z" fill="#E9B376"/>
<path d="M495.21 180.74C495.21 180.74 492.03 173.66 490.58 173.18C489.13 172.7 487.86 173.03 487.86 173.03C487.86 173.03 478.52 165.66 477.63 167.14C477.15 167.94 479.15 170.13 483.61 173.55C483.61 173.55 480.68 174.2 481.58 175.98C481.58 175.98 479.4 176.64 480.22 178.83C480.22 178.83 479.03 180.5 480.06 181.81C481.09 183.12 486.23 187.06 489.4 187.97C490.36 188.25 492.01 188.82 492.83 188.19C492.83 188.19 501.2 193.61 501.4 193.87L505.9 185.05L495.22 180.73L495.21 180.74Z" fill="#E9B376"/>
<path opacity="0.3" d="M490.47 182.14C490.47 182.14 490.45 182.14 490.44 182.14C489.45 182.01 488.53 181.28 488.04 180.24C487.66 179.44 487.46 178.12 487.45 177.13C486.25 177.79 484.33 177.97 483.36 177.22C482.71 176.72 482.58 176.16 482.95 175.47C483.13 175.13 483.66 174.9 484.28 174.65C484.4 174.6 484.5 174.56 484.58 174.52C485.09 174.29 485.59 174.01 486.07 173.75C486.56 173.48 487.07 173.21 487.59 172.97C487.71 172.91 487.86 172.97 487.92 173.09C487.98 173.22 487.92 173.36 487.8 173.42C487.3 173.65 486.8 173.92 486.31 174.19C485.82 174.46 485.31 174.73 484.79 174.97C484.7 175.01 484.59 175.06 484.46 175.11C484.12 175.24 483.5 175.49 483.39 175.7C483.13 176.17 483.2 176.47 483.66 176.82C484.55 177.51 486.61 177.2 487.55 176.46C487.63 176.4 487.74 176.39 487.82 176.44C487.91 176.49 487.96 176.58 487.95 176.68C487.88 177.61 488.08 179.18 488.48 180.03C488.9 180.92 489.67 181.54 490.49 181.65C490.63 181.67 490.72 181.79 490.7 181.93C490.68 182.06 490.58 182.15 490.45 182.15L490.47 182.14Z" fill="#263238"/>
<path opacity="0.3" d="M483 183.56C482.8 183.56 482.59 183.52 482.39 183.44C482.01 183.29 481.7 183.04 481.4 182.79C481.29 182.7 481.28 182.54 481.37 182.44C481.46 182.34 481.62 182.32 481.72 182.41C481.99 182.63 482.26 182.86 482.57 182.98C482.88 183.1 483.2 183.09 483.41 182.96C483.79 182.72 483.83 182.12 483.67 181.65C483.5 181.15 483.18 180.71 482.76 180.4C482.55 180.31 482.35 180.2 482.14 180.06C482.03 179.99 482 179.85 482.05 179.74C482.11 179.63 482.24 179.57 482.36 179.62C482.59 179.71 482.8 179.82 483 179.96C483.3 180.09 483.65 180.19 484.03 180.17C484.61 180.15 485.14 179.86 485.37 179.42C485.62 178.96 485.49 178.33 485.09 178.08C484.97 178 484.94 177.85 485.02 177.73C485.1 177.61 485.25 177.58 485.37 177.66C485.98 178.06 486.18 178.97 485.81 179.66C485.49 180.26 484.8 180.65 484.04 180.68C483.93 180.68 483.82 180.68 483.71 180.67C483.9 180.92 484.04 181.2 484.14 181.5C484.35 182.13 484.29 182.99 483.67 183.39C483.48 183.51 483.24 183.58 482.99 183.58L483 183.56Z" fill="#263238"/>
<path d="M558.85 179.02V199.36L555.84 201.99C549.71 204.95 535.94 210.81 532.01 210.67C524.67 210.31 498.15 194.5 498.15 194.5L503.77 183.8C503.77 183.8 526.7 193.66 530.09 192.99C533.48 192.32 558.86 179 558.86 179L558.85 179.02Z" fill="#26A4C0"/>
<path d="M596.46 136.88C596.46 136.88 600.04 137.07 603.06 142.96C606.08 148.85 602.3 155.39 601.55 158.52C600.79 161.65 597.03 164.42 603.24 169.15C609.45 173.88 613.18 178.91 608.14 184.03C603.1 189.15 608.64 193.07 601.36 196.87C594.08 200.67 567.27 194.98 563.88 187.64C560.49 180.3 564.58 174.71 564.8 172.52C565.02 170.33 560.49 168.08 559.36 160.9C558.23 153.72 564.02 152.19 564.8 148.91C565.58 145.63 561.95 141.5 564.8 134.53C567.65 127.56 596.08 126.06 596.46 136.88Z" fill="#263238"/>
<path opacity="0.4" d="M596.46 136.88C596.46 136.88 600.04 137.07 603.06 142.96C606.08 148.85 602.3 155.39 601.55 158.52C600.79 161.65 597.03 164.42 603.24 169.15C609.45 173.88 613.18 178.91 608.14 184.03C603.1 189.15 608.64 193.07 601.36 196.87C594.08 200.67 567.27 194.98 563.88 187.64C560.49 180.3 564.58 174.71 564.8 172.52C565.02 170.33 560.49 168.08 559.36 160.9C558.23 153.72 564.02 152.19 564.8 148.91C565.58 145.63 561.95 141.5 564.8 134.53C567.65 127.56 596.08 126.06 596.46 136.88Z" fill="white"/>
<path d="M551.28 255.44C551.95 255.65 589.47 256.7 610.86 255.15C610.86 255.15 604.1 211.58 592.8 206.83C586.79 204.31 565.86 205.75 558.15 216.35C551.36 225.69 551.28 244.76 551.28 255.43V255.44Z" fill="#26A4C0"/>
<path opacity="0.2" d="M551.28 255.44C551.95 255.65 589.47 256.7 610.86 255.15C610.86 255.15 604.1 211.58 592.8 206.83C586.79 204.31 565.86 205.75 558.15 216.35C551.36 225.69 551.28 244.76 551.28 255.43V255.44Z" fill="black"/>
<path d="M559.04 234.93L596.33 238.15C596.69 228.91 598.02 219.73 600.3 210.76C601.19 207.19 602.31 203.2 603.75 198.59C604.52 196.13 605.37 193.48 606.31 190.68C607.02 188.52 607.79 186.23 608.64 183.81C603.58 182.19 598.4 180.94 593.16 180.07C587.63 179.09 582.03 178.5 576.41 178.31C569.16 178.31 560.82 179.07 560.82 179.07C560.82 179.07 559.63 179.35 558.89 187.05C558.22 194.23 557.56 208.67 559.05 234.94L559.04 234.93Z" fill="#26A4C0"/>
<path d="M559.22 240.52L596.51 243.59C597.1 234.32 597.54 221.8 600.33 210.75C601.22 207.18 602.34 203.19 603.78 198.58C604.55 196.12 605.4 193.47 606.34 190.67C607.05 188.51 607.82 186.22 608.67 183.8C603.61 182.18 598.43 180.93 593.19 180.06C587.66 179.08 582.06 178.49 576.44 178.3C569.19 178.3 560.85 179.06 560.85 179.06C560.85 179.06 559.66 179.34 558.92 187.04C558.22 194.22 557.72 214.25 559.23 240.52H559.22Z" fill="#263238"/>
<path d="M599.06 180.77C599.06 180.77 592.22 228.04 610.86 255.16C610.86 255.16 602.52 206.16 608.65 183.77L599.06 180.78V180.77Z" fill="#26A4C0"/>
<path d="M566.55 178.26C566.55 178.26 564.31 200.18 563.16 209.05C560.34 230.87 551.28 256.01 551.28 256.01C551.28 256.01 552.71 195.62 558.83 179.01L566.55 178.25V178.26Z" fill="#26A4C0"/>
<path d="M559.22 240.52L523.22 380.55C523.22 380.55 592.6 385.38 611.88 381.43C611.88 381.43 616.61 282.58 596.49 243.58L559.22 240.53V240.52Z" fill="#26A4C0"/>
<path opacity="0.4" d="M559.22 240.52L523.22 380.55C523.22 380.55 592.6 385.38 611.88 381.43C611.88 381.43 616.61 282.58 596.49 243.58L559.22 240.53V240.52Z" fill="white"/>
<path d="M577.22 138.58C577.22 138.58 569.631 152.27 569.271 156.52C566.361 159 564.3 153.98 564.41 147.25C564.5 141.74 567.37 135.8 572.13 133.66C578.81 130.65 577.23 138.57 577.23 138.57L577.22 138.58Z" fill="#263238"/>
<path opacity="0.4" d="M577.22 138.58C577.22 138.58 569.631 152.27 569.271 156.52C566.361 159 564.3 153.98 564.41 147.25C564.5 141.74 567.37 135.8 572.13 133.66C578.81 130.65 577.23 138.57 577.23 138.57L577.22 138.58Z" fill="white"/>
<path d="M578.65 177.33C579.92 176.06 579.62 175.34 579.38 173.49C579.21 172.07 578.75 170.59 578.21 169.15L580.11 167.09L589.98 157.82C589.51 164.23 589.67 176.63 594.56 180.3L581.07 187.7L573.51 178.3C573.51 178.3 576.78 178.37 578.65 177.33Z" fill="#E9B376"/>
<path opacity="0.2" d="M579.43 174.04C582.11 172.58 585.08 169.99 584.84 166.89C584.73 165.59 584.5 164.35 584.22 163.55L578.64 170.4C579.04 171.55 579.17 172.31 579.42 174.04H579.43Z" fill="black"/>
<path d="M593.04 147.61C591.79 157.36 591.47 161.51 586.23 166.45C578.36 173.89 566.76 170.87 565.1 161.1C563.61 152.3 565.9 137.83 575.66 134.07C585.27 130.36 594.29 137.85 593.04 147.61Z" fill="#E9B376"/>
<path d="M579.77 151.05C579.77 151.97 579.24 152.75 578.59 152.79C577.95 152.83 577.43 152.13 577.44 151.21C577.44 150.29 577.97 149.51 578.62 149.47C579.26 149.43 579.78 150.13 579.77 151.05Z" fill="#263238"/>
<path d="M570.46 150.34C570.5 151.23 570.02 152.02 569.39 152.1C568.75 152.18 568.2 151.53 568.16 150.64C568.12 149.75 568.6 148.96 569.23 148.88C569.87 148.8 570.42 149.45 570.46 150.34Z" fill="#263238"/>
<path d="M582.381 147.9C582.251 147.9 582.13 147.87 582.04 147.77C580.6 146.31 578.88 146.72 578.86 146.72C578.61 146.78 578.361 146.63 578.311 146.37C578.271 146.11 578.441 145.85 578.701 145.78C578.791 145.76 580.951 145.24 582.741 147.06C582.921 147.24 582.91 147.55 582.72 147.74C582.63 147.83 582.511 147.89 582.391 147.89L582.381 147.9Z" fill="#263238"/>
<path opacity="0.4" d="M582.381 147.9C582.251 147.9 582.13 147.87 582.04 147.77C580.6 146.31 578.88 146.72 578.86 146.72C578.61 146.78 578.361 146.63 578.311 146.37C578.271 146.11 578.441 145.85 578.701 145.78C578.791 145.76 580.951 145.24 582.741 147.06C582.921 147.24 582.91 147.55 582.72 147.74C582.63 147.83 582.511 147.89 582.391 147.89L582.381 147.9Z" fill="white"/>
<path d="M567.21 145.9C567.1 145.86 567 145.79 566.95 145.67C566.84 145.44 566.95 145.16 567.19 145.04C569.66 143.85 571.58 144.88 571.67 144.93C571.9 145.06 571.97 145.34 571.82 145.56C571.68 145.78 571.37 145.86 571.14 145.74C571.07 145.7 569.56 144.92 567.6 145.87C567.47 145.93 567.33 145.94 567.21 145.9Z" fill="#263238"/>
<path opacity="0.4" d="M567.21 145.9C567.1 145.86 567 145.79 566.95 145.67C566.84 145.44 566.95 145.16 567.19 145.04C569.66 143.85 571.58 144.88 571.67 144.93C571.9 145.06 571.97 145.34 571.82 145.56C571.68 145.78 571.37 145.86 571.14 145.74C571.07 145.7 569.56 144.92 567.6 145.87C567.47 145.93 567.33 145.94 567.21 145.9Z" fill="white"/>
<path d="M595.71 155.69C594.48 157.65 592.56 158.85 590.82 159.22C588.21 159.78 587.02 155.56 588 153C588.88 150.69 591.48 149.24 593.98 149.84C596.45 150.43 597.11 153.45 595.71 155.69Z" fill="#E9B376"/>
<path d="M573.25 149.58C573.25 149.58 571.59 153.19 569.78 155.41C569.46 155.8 569.63 156.39 570.09 156.58C571.28 157.07 572.71 156.72 572.71 156.72L573.25 149.59V149.58Z" fill="#D58745"/>
<path d="M578.82 149.44L576.55 149.02C576.55 149.02 577.86 150.64 578.82 149.44Z" fill="#263238"/>
<path d="M569.56 148.89L567.271 148.6C568.381 149.82 569.27 149.29 569.56 148.89Z" fill="#263238"/>
<path d="M595.68 142.27C597.01 144.19 594.36 149.76 594.36 149.76C594.36 149.76 589.67 148.36 589.41 155.43C587.68 155.72 585.74 149.12 586.02 142.48C586.37 138.73 593.33 138.88 595.68 142.27Z" fill="#263238"/>
<g opacity="0.4">
<path d="M595.68 142.27C597.01 144.19 594.36 149.76 594.36 149.76C594.36 149.76 589.67 148.36 589.41 155.43C587.68 155.72 585.74 149.12 586.02 142.48C586.37 138.73 593.33 138.88 595.68 142.27Z" fill="white"/>
</g>
<path opacity="0.2" d="M591.41 156.8C591.3 156.8 591.19 156.72 591.17 156.61C591.14 156.48 591.22 156.34 591.36 156.31C592.76 155.98 593.39 155.26 593.68 154.71C593.99 154.11 593.97 153.57 593.86 153.28C593.63 152.7 592.9 152.24 592.22 152.51C592.09 152.56 591.95 152.5 591.9 152.37C591.85 152.24 591.91 152.1 592.04 152.05C593.01 151.68 594 152.3 594.33 153.11C594.49 153.51 594.52 154.21 594.13 154.95C593.8 155.59 593.07 156.42 591.48 156.8C591.46 156.8 591.44 156.8 591.42 156.8H591.41Z" fill="#263238"/>
<path d="M571.81 159.91C572.54 160.99 573.44 163.09 573.44 163.09C573.65 163.04 573.85 163 574.05 162.94C576.82 162.23 577.87 160.99 578.19 159.82C578.36 159.18 578.31 158.56 578.21 158.08C578.09 157.51 577.88 157.14 577.88 157.14C576.64 158.39 574.11 159.25 572.74 159.66C572.17 159.83 571.8 159.92 571.8 159.92L571.81 159.91Z" fill="#263238"/>
<path d="M572.75 159.65L573.26 160.58C575.86 159.9 577.61 159.08 578.22 158.08C578.1 157.51 577.891 157.14 577.891 157.14C576.651 158.39 574.12 159.25 572.75 159.66V159.65Z" fill="white"/>
<path d="M574.05 162.94C576.82 162.23 577.87 160.99 578.19 159.82C577.26 160.1 576.16 160.54 575.27 161.22C574.59 161.74 574.24 162.36 574.05 162.94Z" fill="#DC5753"/>
<path d="M567.411 136.83C569.481 132.53 577.911 128.53 587.611 132.68C596.371 136.42 598.901 149.17 592.571 149.65C586.241 150.13 578.771 143.93 578.771 143.93L567.411 136.82V136.83Z" fill="#263238"/>
<path d="M621.63 216.65L622.701 237.33C618.42 237.88 609.2 227.38 605.62 219.59C602.56 212.98 600.98 207.27 600.98 207.27L603.24 200.9L608.63 183.81C608.63 183.81 615.42 194.76 621.62 216.66" fill="#26A4C0"/>
<path d="M656.15 168.95L652.61 166.92L639.59 170.48L622.01 165.92L617.95 179.26C617.95 179.26 617.11 194.13 617.95 194.31C618.79 194.49 638.07 195.49 638.07 195.49L647.87 189.24L656.14 168.95H656.15Z" fill="#E0E0E0"/>
<path d="M617.281 166.92L609.5 197.7L633.5 200.39L650.06 195.82L658.51 166.92L639.581 171.83L617.281 166.92Z" fill="#26A4C0"/>
<path opacity="0.4" d="M639.581 171.83L633.5 200.39L609.5 197.7L617.281 166.92L639.581 171.83Z" fill="white"/>
<path opacity="0.2" d="M639.581 171.83L633.5 200.39L650.06 195.82L658.51 166.92L639.581 171.83Z" fill="white"/>
<path d="M620.56 236.29C626.49 241.34 631.61 233.15 635.68 209.39L625.34 207.36L616.9 229.28L620.56 236.29Z" fill="#26A4C0"/>
<path opacity="0.2" d="M607.01 222.27L606.4 206.3C606.4 206.3 609.87 214.9 607.01 222.27Z" fill="black"/>
<path d="M626.041 207.49L628.321 201.25L635.681 199.73L635.101 209.27L626.041 207.49Z" fill="#E9B376"/>
<path d="M626.57 200.23C626.8 201.82 628.15 203.01 629.75 203.01C632.73 203.01 636.88 202.6 637.68 201.33C638.82 199.52 638.56 193.39 637.86 192.96C637.16 192.53 636.65 194.02 636.65 194.02C636.65 194.02 636.58 191.13 635.52 191.09C634.49 191.05 634.18 193.22 634.18 193.22C634.18 193.22 634.3 190.67 632.92 190.71C631.77 190.74 631.49 193.42 631.49 193.42C631.49 193.42 631.6 190.98 630.05 191.71C628.51 192.44 626.58 200.23 626.58 200.23H626.57Z" fill="#E9B376"/>
<path opacity="0.2" d="M631.62 193.42L630.91 198.07C630.91 198.13 630.84 198.18 630.76 198.17C630.69 198.17 630.64 198.1 630.65 198.04L631.36 193.4C631.36 193.34 631.43 193.29 631.51 193.3C631.58 193.3 631.62 193.36 631.62 193.42Z" fill="black"/>
<path opacity="0.2" d="M634.3 193.36L633.97 197.87C633.97 197.93 633.9 197.98 633.83 197.98C633.76 197.98 633.72 197.93 633.71 197.86L634.04 193.35C634.04 193.29 634.11 193.24 634.18 193.24C634.25 193.24 634.3 193.3 634.3 193.36Z" fill="black"/>
<path opacity="0.2" d="M636.781 194.17L636.63 197.53C636.63 197.59 636.57 197.64 636.5 197.64C636.43 197.64 636.37 197.58 636.38 197.52L636.531 194.16C636.531 194.1 636.59 194.05 636.66 194.05C636.73 194.05 636.791 194.11 636.781 194.17Z" fill="black"/>
<path d="M637.46 198.48L640 197.75C640 197.75 640.16 200.87 637.14 201.8L637.46 198.48Z" fill="#E9B376"/>
<path opacity="0.4" d="M567.41 136.83C569.48 132.53 577.91 128.53 587.61 132.68C596.37 136.42 598.9 149.17 592.57 149.65C586.24 150.13 578.77 143.93 578.77 143.93L567.41 136.82V136.83Z" fill="white"/>
<path d="M283.14 156.24C283.67 156.77 310.7 136.64 310.7 136.64L306.64 104.86L314.33 103.99C314.33 103.99 330.46 138.92 323.58 144.92C316.7 150.92 291.08 169.82 290.55 169.65C290.02 169.48 283.14 156.24 283.14 156.24Z" fill="#FFB573"/>
<path d="M306.64 105.95C306.64 105.95 303.24 104.9 301.9 102.28C300.56 99.66 298.79 97.93 297.92 95.91C297.06 93.89 299.72 95.19 300.99 96.17C302.27 97.15 303.72 98.24 304.3 97.16C304.88 96.08 304.59 85.57 305.56 84.17C306.53 82.77 307.11 84.45 307.11 84.45C307.11 84.45 307.11 81.9 308.12 81.62C308.38 81.55 309.11 81.81 309.29 82.97C309.7 85.59 310.28 91.13 310.28 91.13C310.24 90.81 310.01 83.92 310.11 82.89C310.24 81.54 310.99 80.96 311.78 81.07C312.89 81.21 313.47 89.75 313.75 90.09C313.75 90.09 313.25 85.19 314.45 84.37C315.65 83.55 316.13 86.62 316.04 89.4C315.96 91.95 316.46 96.99 316.13 99.57C315.72 102.76 314.72 104.81 311.84 105.69C308.96 106.57 306.64 105.95 306.64 105.95Z" fill="#EBB373"/>
<path opacity="0.3" d="M307.49 91.17C307.37 91.17 307.26 91.08 307.24 90.95C307 88.92 306.85 86.85 306.8 84.8C306.8 84.66 306.91 84.55 307.04 84.54C307.21 84.54 307.29 84.65 307.3 84.78C307.35 86.82 307.5 88.87 307.74 90.88C307.76 91.02 307.66 91.14 307.52 91.16H307.49V91.17Z" fill="#263238"/>
<path opacity="0.3" d="M306.21 92.6601C306.11 92.6601 306.01 92.6 305.98 92.49C305.93 92.36 306 92.22 306.13 92.17C308.65 91.26 311.48 91.1 314.09 91.74C314.22 91.77 314.31 91.91 314.27 92.04C314.24 92.17 314.1 92.26 313.97 92.22C311.46 91.61 308.74 91.75 306.3 92.63C306.27 92.64 306.24 92.65 306.22 92.65L306.21 92.6601Z" fill="#263238"/>
<path opacity="0.3" d="M309.48 102.51C309.35 102.51 309.24 102.41 309.23 102.28C309.17 101.27 308.73 100.27 308.04 99.53C307.34 98.79 306.37 98.3 305.36 98.17C305.22 98.15 305.13 98.03 305.14 97.89C305.15 97.75 305.29 97.65 305.42 97.67C306.56 97.81 307.61 98.35 308.4 99.18C309.17 100 309.66 101.12 309.73 102.24C309.73 102.38 309.63 102.5 309.5 102.51H309.48Z" fill="#263238"/>
<path d="M234.45 261.01L227.63 260.25C226.39 266.3 225.93 272.49 226.26 278.66C226.5 282.67 232.97 287.2 232.97 287.2C232.97 287.2 235.24 291.95 236.51 290.48C237.78 289.01 234.33 282.45 234.19 280.93C233.78 276.2 233.33 271.43 233.72 270.8C234.11 270.16 234.21 276.72 236.22 278.13C238.23 279.54 236.64 271.37 237.34 268.6C238.05 265.82 236.03 261.33 234.44 261.02L234.45 261.01Z" fill="#FFB573"/>
<path opacity="0.2" d="M250.3 236.42C250.2 236.42 250.1 236.36 250.07 236.26C250.02 236.13 250.09 235.99 250.22 235.94C261.27 231.85 270.89 224.16 277.31 214.29C277.39 214.17 277.54 214.14 277.66 214.22C277.78 214.3 277.81 214.45 277.73 214.57C271.25 224.53 261.54 232.29 250.39 236.42C250.36 236.43 250.33 236.44 250.3 236.44V236.42Z" fill="#263238"/>
<path d="M297.37 145.24C297.37 145.24 283.06 155.16 282.61 155.33L286.29 179.4C286 179.06 309.98 162.32 310.51 162.24C311.04 162.16 297.36 145.24 297.36 145.24H297.37Z" fill="#26A4C0"/>
<path opacity="0.2" d="M286.29 179.4L284.13 165.24L288.73 177.46L286.29 179.4Z" fill="black"/>
<path opacity="0.3" d="M297.37 145.24C297.37 145.24 283.06 155.16 282.61 155.33L286.29 179.4C286 179.06 309.98 162.32 310.51 162.24C311.04 162.16 297.36 145.24 297.36 145.24H297.37Z" fill="white"/>
<path d="M234.92 156.76C234.92 156.76 223.79 155.84 221.6 168.89C219.42 181.93 215.84 204.1 215.84 204.1L237.41 205.97C238.5 205.17 234.92 156.76 234.92 156.76Z" fill="#26A4C0"/>
<path opacity="0.3" d="M234.92 156.76C234.92 156.76 223.79 155.84 221.6 168.89C219.42 181.93 215.84 204.1 215.84 204.1L237.41 205.97C238.5 205.17 234.92 156.76 234.92 156.76Z" fill="white"/>
<path d="M300.91 249.6L289.81 202.41L282.61 155.34L266.58 155.19L252.63 154.85L234.92 156.77L228.89 179.44C228.89 179.44 233.84 212.71 233.99 214.44C234.17 216.56 236.53 254.81 236.53 254.81C261.33 256.44 301.59 251.41 300.91 249.61V249.6Z" fill="#26A4C0"/>
<path opacity="0.3" d="M300.91 249.6L289.81 202.41L282.61 155.34L266.58 155.19L252.63 154.85L234.92 156.77L228.89 179.44C228.89 179.44 233.84 212.71 233.99 214.44C234.17 216.56 236.53 254.81 236.53 254.81C261.33 256.44 301.59 251.41 300.91 249.61V249.6Z" fill="white"/>
<path opacity="0.2" d="M233.66 205.65L237.42 205.97L237.2 177.46L241.08 212.41L233.87 213.42L233.15 208.36L233.66 205.65Z" fill="black"/>
<path d="M217.98 204.29L218.04 223.96L227.32 264.13L235.7 262.61L231.94 222.59L234.55 205.73L217.98 204.29Z" fill="#FFB573"/>
<path d="M250.47 155.12C250.47 155.12 251.37 148.68 247.6 137.52C247.6 137.51 248.18 137.22 248.18 137.21C247.66 135.65 247.12 134.21 246.61 132.96C246.6 132.92 246.6 132.91 246.6 132.91L262.48 141.79C262.27 145.42 263.88 152.35 264.78 155.27C264.78 155.27 268.14 161.68 261.04 162.23C255.85 162.63 250.47 155.13 250.47 155.13V155.12Z" fill="#FFB573"/>
<path opacity="0.2" d="M262.96 146.86L253.97 145.24C254.9 147.97 257.49 151.15 263.7 151.15C263.7 151.15 262.95 148.08 262.96 146.86Z" fill="black"/>
<path d="M272 114.6C273.98 118.1 274.96 125.94 269.19 124.55C263.42 123.16 268.6 108.59 272 114.6Z" fill="#263238"/>
<path d="M246.15 125.4C247.62 135.16 248.25 140.69 253.66 145.25C261.79 152.1 273.25 146.67 274.73 136.64C276.06 127.61 273.43 113.17 263.47 110.21C253.66 107.29 244.68 115.65 246.15 125.41V125.4Z" fill="#FFB573"/>
<path d="M243.08 112.59C243.95 107.06 250.68 103.46 254.71 105.89C255.31 106.25 251.17 108.1 251.64 107.88L252.05 115.88C251.46 115.8 250.37 116.58 249.94 118.44C249.94 118.44 252.3 128.7 248.42 133.43C237.37 129.47 236.01 115.5 243.09 112.58L243.08 112.59Z" fill="#263238"/>
<path d="M243 133.92C244.01 136.38 246.06 138.13 248.09 138.92C251.15 140.12 253.03 137.45 252.48 134.38C251.98 131.62 249.8 127.67 246.59 127.79C243.43 127.9 241.85 131.11 243 133.92Z" fill="#FFB573"/>
<path d="M260.439 126.99C260.529 127.99 261.129 128.76 261.789 128.69C262.449 128.63 262.909 127.76 262.819 126.76C262.729 125.76 262.129 124.99 261.469 125.06C260.809 125.12 260.349 125.99 260.439 127V126.99Z" fill="#263238"/>
<path d="M270.31 126.31C270.4 127.31 271 128.08 271.66 128.01C272.32 127.95 272.78 127.08 272.69 126.07C272.6 125.07 272 124.3 271.34 124.37C270.68 124.43 270.22 125.3 270.31 126.3V126.31Z" fill="#263238"/>
<path d="M267.06 126.04C267.06 126.04 270.68 130.75 271.88 132.69C270.59 134.08 268.14 133.71 268.14 133.71L267.07 126.04H267.06Z" fill="#D58745"/>
<path d="M257.89 123.68C258.05 123.72 258.23 123.68 258.35 123.54C259.8 122.01 261.52 122.29 261.54 122.29C261.8 122.34 262.039 122.16 262.089 121.91C262.139 121.65 261.969 121.41 261.709 121.36C261.619 121.34 259.47 120.99 257.67 122.89C257.49 123.08 257.499 123.38 257.689 123.56C257.749 123.62 257.819 123.66 257.899 123.67L257.89 123.68Z" fill="#263238"/>
<path d="M274.2 121.86C274.29 121.84 274.37 121.8 274.44 121.73C274.62 121.54 274.62 121.24 274.44 121.06C272.58 119.24 270.47 119.71 270.37 119.72C270.12 119.78 269.96 120.03 270.01 120.29C270.07 120.54 270.31 120.7 270.57 120.65C270.66 120.63 272.29 120.28 273.78 121.74C273.9 121.85 274.06 121.89 274.21 121.86H274.2Z" fill="#263238"/>
<path d="M278.789 109.78C278.309 107.27 275.599 105.29 273.129 105.95C273.929 104.31 273.209 102.11 271.609 101.25C269.999 100.39 267.769 101.02 266.849 102.59C266.759 101.06 265.129 99.9401 263.599 100.06C262.079 100.18 260.769 101.28 259.989 102.6C259.519 103.41 259.169 104.35 258.409 104.9C257.219 105.76 255.589 105.32 254.119 105.21C251.659 105.02 249.139 105.96 247.389 107.7C245.649 109.45 244.709 111.97 244.899 114.43C243.539 114.8 242.869 115.9 241.979 116.99L249.499 118.19C251.609 114.25 257.299 117.3 260.149 118.38C262.199 119.16 264.219 119.22 265.769 119.16C267.329 119.1 268.029 117.96 268.049 116.41C270.429 117.33 273.229 117.39 275.479 116.17C277.719 114.94 279.239 112.3 278.759 109.79L278.789 109.78Z" fill="#263238"/>
<path d="M243.53 113.05C243.53 113.05 243.43 113.04 243.39 113.01C241.92 112.01 240.18 111.37 238.85 111.35C238.71 111.35 238.6 111.23 238.6 111.1C238.6 110.97 238.75 110.84 238.85 110.85C240.3 110.88 242.1 111.53 243.66 112.6C243.77 112.68 243.8 112.83 243.73 112.95C243.68 113.02 243.6 113.06 243.52 113.06L243.53 113.05Z" fill="#263238"/>
<path d="M243.349 112.95C243.269 112.95 243.189 112.91 243.139 112.84C242.029 111.2 241.559 109.13 241.839 107.17C241.859 107.03 241.989 106.94 242.119 106.96C242.259 106.98 242.349 107.11 242.329 107.24C242.059 109.08 242.509 111.02 243.549 112.56C243.629 112.67 243.599 112.83 243.479 112.91C243.439 112.94 243.389 112.95 243.339 112.95H243.349Z" fill="#263238"/>
<path opacity="0.2" d="M249.74 133.8C249.62 133.8 249.52 133.72 249.5 133.6C249.34 132.81 248.97 132.06 248.43 131.45C248.08 131.06 247.52 130.56 246.8 130.45C246.16 130.35 245.5 130.63 245.22 131.12C245.15 131.24 245 131.28 244.88 131.22C244.76 131.15 244.72 131 244.78 130.88C245.16 130.2 246.01 129.82 246.87 129.96C247.74 130.09 248.4 130.67 248.8 131.12C249.39 131.79 249.8 132.62 249.98 133.5C250.01 133.64 249.92 133.77 249.78 133.79C249.76 133.79 249.75 133.79 249.73 133.79L249.74 133.8Z" fill="#263238"/>
<path d="M265.02 137C263.61 137 262.2 136.47 261.15 135.52C261.05 135.43 261.04 135.27 261.13 135.17C261.22 135.07 261.38 135.06 261.48 135.15C262.58 136.15 264.12 136.64 265.59 136.47C265.72 136.46 265.85 136.55 265.87 136.69C265.89 136.83 265.79 136.95 265.65 136.97C265.44 136.99 265.23 137.01 265.01 137.01L265.02 137Z" fill="#263238"/>
<path opacity="0.2" d="M70.38 217.01L67.94 255.39L45.98 252.77V248.83L70.38 217.01Z" fill="black"/>
<path d="M59.7601 217.97C58.9001 208.07 55.4401 189.92 49.4901 170.87C47.5501 164.67 54.4701 157.82 54.4701 157.82C54.4701 157.82 58.9401 157.46 59.7601 157.37C60.6601 157.26 64.0101 155.89 64.9301 155.81C71.8801 155.22 74.9101 155.25 81.1201 155.61C82.6801 155.7 84.7601 155.88 86.3301 156.01C86.8401 156.06 89.8901 156.9 90.3801 156.95C90.3801 156.95 99.3001 167.56 99.7801 175.05C100.04 179.23 102.03 181.04 101.81 191.04C101.77 197.84 96.9201 207.74 96.4801 217.29L59.7701 217.96L59.7601 217.97Z" fill="white"/>
<path d="M71.92 185.24C71.45 169.96 65.3 163.35 64.48 159.64C64.26 158.67 64.7401 156.46 65.2101 155.77L61.06 156.24C54.61 157.51 50.62 157.47 47.4 161.77C46.78 162.6 47.55 168.54 47.6 169.41C47.68 170.98 48.77 175.81 50.23 181.62C51.23 185.66 52.41 190.19 53.54 194.46C54.99 199.91 56.2 201.33 56.67 203.07L41.7 247.24C41.28 248.42 42.07 249.68 43.32 249.82L64.81 252.07C65.86 252.18 66.81 251.43 66.93 250.38C68 241.41 72.46 202.81 71.92 185.24Z" fill="#26A4C0"/>
<path d="M91.8501 156.3C91.8501 156.3 97.1301 155.26 102.85 163.58C108.56 171.9 110.18 208.31 110.18 208.31L97.7601 208.95L99.5701 173.47L91.8601 156.3H91.8501Z" fill="#26A4C0"/>
<path d="M100.16 215.18C100.16 215.18 104.67 187.23 103.47 180.24C102.27 173.25 91.8501 156.29 91.8501 156.29L87.09 155.96L83.54 155.77C83.54 155.77 94.72 160.96 97.91 172.28C100.01 179.72 95.56 211.64 96.04 217.31L98.4601 229.05L104.44 228.78L100.16 215.18Z" fill="#26A4C0"/>
<path opacity="0.3" d="M101.25 208.24L103.59 186.69L104.45 208.94C104.45 208.94 102.21 208.83 101.25 208.24Z" fill="black"/>
<path opacity="0.3" d="M60.02 202.49L58.18 181.9L56.77 204.32L78.05 212.97L60.02 202.49Z" fill="black"/>
<path d="M51.6002 158.49C51.6002 158.49 44.8402 160.15 43.5502 167.53C42.2502 174.91 40.5302 211.79 42.0002 214.13C43.4702 216.47 84.5702 229.68 84.5702 229.68L88.9702 218.26L57.9202 203.24C57.9202 203.24 58.1702 192.7 58.4302 184.49C58.5602 180.15 58.7002 176.46 58.7902 175.32C59.0702 172.03 51.6002 158.49 51.6002 158.49Z" fill="#26A4C0"/>
<path d="M88.2901 220.04C88.2901 220.04 101.21 223.14 104.21 225.72C105.54 226.86 105.5 228.74 105.5 228.74L84.5801 229.67L88.2901 220.04Z" fill="#B97964"/>
<path opacity="0.3" d="M51.4803 218.37C51.8903 218.52 69.6703 224.85 69.6703 224.85V227.08L50.5703 221.05L51.4803 218.37Z" fill="black"/>
<path d="M88.63 109.64C94.56 113.6 96.25 119.28 96.17 123.4C95.44 128.96 93.51 132.9 92.01 138.3L77.27 105.76C80.71 106.44 82.26 105.74 88.63 109.64Z" fill="#263238"/>
<path d="M81.2399 106.77C75.4699 104.08 69.7999 107.25 66.4899 109.46C62.8699 112.53 60.7399 116.99 60.6299 121.73C60.6299 126.16 60.6299 131.53 63.3199 133.84C64.8299 135.18 66.8199 135.82 68.8299 135.61L90.7499 115.39C88.3699 111.75 85.0899 108.79 81.2399 106.77Z" fill="#263238"/>
<path d="M81.6099 166.68C79.9199 168.42 78.3899 167.84 76.1399 166.92C62.7599 162.11 66.7199 155.65 66.7199 155.65C69.2599 152.67 69.3699 149.11 68.4399 143.68C68.4199 143.52 68.4199 143.36 68.4199 143.2C68.4199 142.48 68.6599 141.77 69.0899 141.18C70.2099 139.54 72.4399 139.12 74.0799 140.24L80.0699 141.96C80.0899 142.04 80.0999 142.12 80.1199 142.22C80.1399 145.19 80.0499 147.5 80.0699 149.31C80.1099 149.53 80.0699 149.76 80.0799 149.97C80.1199 150.19 80.1099 150.42 80.1099 150.64C80.2499 153.13 84.4599 156.78 86.1699 157.64C87.2099 158.23 87.3199 160.83 81.5999 166.69L81.6099 166.68Z" fill="#B97964"/>
<path opacity="0.2" d="M80.07 141.93C80.07 142.02 80.09 142.11 80.12 142.2C80.14 145.17 80.05 147.48 80.07 149.29C80.06 149.51 80.07 149.73 80.08 149.95C80.09 150.18 80.12 150.41 80.16 150.64C75.61 149.4 71.54 146.8 68.52 143.18C68.52 142.47 68.74 141.77 69.14 141.17C70.24 139.52 72.47 139.08 74.12 140.17L80.07 141.92V141.93Z" fill="black"/>
<path d="M63.9201 123.02C64.1501 133.27 64.0201 137.59 68.8901 143.16C76.2201 151.52 88.4901 149.29 91.3201 139.23C93.7901 130.18 93.0501 114.97 83.3901 110.27C73.7301 105.57 63.7001 112.76 63.9201 123.02Z" fill="#B97964"/>
<path d="M59.3799 131.8C60.4199 134.01 62.2799 135.5 64.0499 136.11C66.7099 137.02 68.4899 132.77 67.7899 129.96C67.1599 127.43 64.6199 125.58 61.9299 125.89C59.2799 126.2 58.1899 129.27 59.3799 131.8Z" fill="#B97964"/>
<path opacity="0.2" d="M65.1799 131.99C65.0399 131.99 64.9299 131.87 64.9299 131.74C64.9499 130.82 64.5899 129.91 63.9499 129.25C63.3099 128.59 62.4199 128.2 61.4999 128.18C61.3599 128.18 61.2499 128.06 61.2599 127.92C61.2599 127.78 61.3699 127.68 61.5099 127.68C62.5599 127.7 63.5799 128.15 64.3099 128.91C65.0399 129.67 65.4399 130.7 65.4299 131.75C65.4299 131.89 65.3199 132 65.1799 132V131.99Z" fill="#263238"/>
<path d="M77.2698 127.44C77.2298 128.53 77.7398 129.48 78.4198 129.55C79.0998 129.62 79.6798 128.79 79.7198 127.7C79.7598 126.61 79.2498 125.66 78.5698 125.59C77.8898 125.52 77.3098 126.35 77.2698 127.44Z" fill="#263238"/>
<path d="M87.4099 128.26C87.3699 129.32 87.8899 130.23 88.5599 130.31C89.2299 130.38 89.8099 129.58 89.8499 128.52C89.8899 127.46 89.3699 126.55 88.6999 126.47C88.0299 126.4 87.4499 127.2 87.4099 128.26Z" fill="#263238"/>
<path d="M75.44 123.46C75.57 123.49 75.71 123.46 75.82 123.37C77.53 122.04 79.27 122.7 79.29 122.71C79.55 122.81 79.83 122.68 79.91 122.42C79.99 122.16 79.85 121.86 79.59 121.75C79.5 121.71 77.32 120.88 75.2 122.53C74.99 122.69 74.96 123.02 75.13 123.25C75.21 123.36 75.33 123.43 75.45 123.45L75.44 123.46Z" fill="#263238"/>
<path d="M91.2601 123.39C91.3701 123.36 91.4601 123.29 91.5101 123.19C91.6201 122.96 91.5301 122.66 91.3101 122.51C89.0701 120.99 87.2401 121.85 87.1701 121.89C86.9501 122 86.8801 122.28 87.0001 122.53C87.1201 122.78 87.4001 122.9 87.6201 122.79C87.6901 122.76 89.1201 122.11 90.9001 123.32C91.0201 123.4 91.1401 123.42 91.2601 123.39Z" fill="#263238"/>
<path d="M84.6901 127.53C84.6901 127.53 85.9701 131.52 87.5901 134.07C87.8701 134.52 87.6201 135.11 87.1101 135.25C85.8001 135.61 84.3501 135.06 84.3501 135.06L84.6901 127.53Z" fill="#A24E3F"/>
<path d="M78.1699 125.6L80.5799 125.24C80.5799 125.24 79.1399 126.89 78.1699 125.6Z" fill="#263238"/>
<path d="M88.4502 126.48L90.8602 126.12C90.8602 126.12 89.4202 127.77 88.4502 126.48Z" fill="#263238"/>
<path d="M83.69 137.87C82.84 138.82 81.7 140.75 81.7 140.75C81.51 140.68 81.31 140.61 81.13 140.52C78.54 139.48 77.68 138.14 77.51 136.97C77.42 136.33 77.55 135.74 77.71 135.28C77.89 134.75 78.15 134.41 78.15 134.41C79.19 135.78 81.54 136.94 82.81 137.51C83.34 137.75 83.69 137.88 83.69 137.88V137.87Z" fill="#263238"/>
<path d="M82.81 137.5L82.2 138.33C79.76 137.34 78.18 136.32 77.71 135.27C77.89 134.74 78.1499 134.4 78.1499 134.4C79.1899 135.77 81.54 136.93 82.81 137.5Z" fill="white"/>
<path d="M81.12 140.52C78.53 139.48 77.67 138.14 77.5 136.97C78.37 137.36 79.38 137.92 80.15 138.7C80.74 139.29 81.01 139.93 81.12 140.52Z" fill="#DE5753"/>
<path d="M67.4699 125.52C67.4699 125.52 73.3199 118.83 73.5099 113.11C73.5099 113.11 94.4499 108.46 92.5199 126.54C92.5199 126.54 97.0499 110.91 79.9399 108.36C62.8299 105.81 59.2999 128.15 67.0499 135.94C67.0799 135.86 63.8499 129.71 67.4699 125.52Z" fill="#263238"/>
<path d="M49.21 111.91C49.61 116.57 53.71 120.03 58.38 119.63C63.04 119.23 66.5 115.13 66.1 110.46C65.72 106.08 62.06 102.71 57.66 102.71C52.8 102.94 49.03 107.04 49.22 111.91H49.21Z" fill="#263238"/>
<path d="M87.7099 110.6C89.9599 112.76 91.4699 115.58 92.0099 118.66C92.0099 120.89 88.9799 122.5 88.9799 122.5L85.2699 117.64V121.91C79.1999 121.24 75.6899 118.02 73.6099 113.37L76.9899 107.33C76.9899 107.33 85.6899 108.86 87.7099 110.61V110.6Z" fill="#263238"/>
<path d="M58.7798 116.79C58.2598 119.21 56.8298 121.42 54.8398 122.88C55.9098 122.97 57.0098 122.7 57.9198 122.14C57.8798 123.01 57.6798 123.88 57.3498 124.69C59.8098 122.65 61.2598 119.44 61.1698 116.25L58.7798 116.79Z" fill="#263238"/>
<path d="M172.35 202.81H114.34V209.02H172.35V202.81Z" fill="#26A4C0"/>
<path d="M134.27 203.46H114.34V208.37H134.27V203.46Z" fill="white"/>
<path opacity="0.3" d="M141.14 202.81H139.36V209.02H141.14V202.81Z" fill="white"/>
<path opacity="0.3" d="M168.28 202.81H166.5V209.02H168.28V202.81Z" fill="white"/>
<path opacity="0.2" d="M135.4 202.81H114.34V209.02H135.4V202.81Z" fill="black"/>
<path d="M364.68 223.08H-16.3101V448.48H364.68V223.08Z" fill="#263238"/>
<path opacity="0.3" d="M54.8999 223.08H-16.3101V448.48H54.8999V223.08Z" fill="black"/>
<path opacity="0.3" d="M364.68 223.08H-16.3101V228.11H364.68V223.08Z" fill="black"/>
<path d="M365.87 208.7H-22.3999V223.08H365.87V208.7Z" fill="#263238"/>
<path opacity="0.3" d="M365.87 208.7H-22.3999V223.08H365.87V208.7Z" fill="black"/>
<path opacity="0.3" d="M59.57 208.7H-23.02V223.08H59.57V208.7Z" fill="black"/>
<path opacity="0.3" d="M205.71 252.6H83.7998V343.46H205.71V252.6Z" fill="black"/>
<path d="M200.47 258.22H89.0298V337.83H200.47V258.22Z" fill="#263238"/>
<path opacity="0.3" d="M83.7998 343.46L89.0298 337.84H200.47L205.71 343.46H83.7998Z" fill="white"/>
<path opacity="0.3" d="M83.7998 252.6L89.0698 258.18L200.47 258.22L205.71 252.6H83.7998Z" fill="black"/>
<path opacity="0.3" d="M349.22 252.6H227.31V343.46H349.22V252.6Z" fill="black"/>
<path d="M343.99 258.22H232.55V337.83H343.99V258.22Z" fill="#263238"/>
<path opacity="0.3" d="M227.31 343.46L232.55 337.84H343.99L349.22 343.46H227.31Z" fill="white"/>
<path opacity="0.3" d="M227.31 252.6L232.58 258.18L343.99 258.22L349.22 252.6H227.31Z" fill="black"/>
<path opacity="0.3" d="M364.8 223.08H-16.1899V448.48H364.8V223.08Z" fill="black"/>
<path d="M315.44 206.41C314.77 213.16 314.02 220.34 309.93 226.01C306.13 231.27 299.52 233.95 293.12 232.88C292.65 232.8 292.44 233.52 292.92 233.6C299.33 234.67 305.98 232.22 310.03 227.11C314.66 221.26 315.48 213.58 316.19 206.41C316.24 205.93 315.49 205.93 315.44 206.41Z" fill="#263238"/>
<path d="M289.23 240.16C289.7 237.72 291.59 236.06 293.53 235.4C295.47 234.75 297.52 234.88 299.53 234.73C304.36 234.38 309.32 232.18 312.39 227.53C315.51 222.81 314.69 216.85 315.01 210.75C315.33 204.71 315.55 199.28 317.51 191.8C318.72 187.18 326.14 178.5 333.95 181.72L346.86 188.15C352.41 196.15 353.72 201.11 355.38 211.48C357.04 221.85 354.6 236.02 350.16 245.03C346.91 251.64 342.06 256.8 337.03 261.35C333.19 264.82 328.91 268.13 324.17 268.19C321.33 268.23 318.58 267.09 315.9 265.97C311.64 264.19 307.39 262.42 303.13 260.64C301.13 259.8 299.05 258.91 297.56 257.05C296.07 255.19 295.38 252.04 296.59 249.89C294.73 249.09 292.81 248.25 291.31 246.66C289.8 245.07 288.77 242.55 289.23 240.15V240.16Z" fill="#263238"/>
<path d="M321.529 230.61C321.529 230.61 325.409 232.52 330.189 236.64C331.189 237.5 332.279 238.24 333.449 238.86C336.589 240.53 339.439 241.48 340.219 239.97C340.389 239.64 340.519 239.28 340.619 238.9C341.279 236.37 339.669 232.89 337.599 230.68C335.589 228.53 335.539 227.78 335.959 225.29C336.179 223.88 336.689 222.43 337.279 221.01L334.619 219.41L325.129 209.83C326.219 215.71 326.539 227.14 321.539 230.61H321.529Z" fill="#E9B376"/>
<path opacity="0.2" d="M335.879 225.84C333.269 224.29 330.399 221.6 330.749 218.53C330.899 217.24 331.179 216.01 331.489 215.23L336.789 222.25C336.349 223.38 336.199 224.13 335.879 225.84Z" fill="black"/>
<path d="M323.289 199.03C324.179 208.79 324.36 212.92 329.39 218.04C336.96 225.73 348.609 223.15 350.619 213.48C352.429 204.78 350.659 190.29 341.079 186.19C331.639 182.15 322.399 189.28 323.289 199.04V199.03Z" fill="#E9B376"/>
<path d="M335.919 202.2C335.969 203.23 336.529 204.08 337.169 204.09C337.809 204.1 338.289 203.28 338.239 202.25C338.189 201.22 337.629 200.37 336.989 200.36C336.349 200.35 335.869 201.17 335.919 202.2Z" fill="#263238"/>
<path d="M345.539 202.17C345.589 203.17 346.149 203.99 346.789 204.01C347.429 204.02 347.909 203.22 347.859 202.22C347.809 201.22 347.249 200.4 346.609 200.39C345.969 200.38 345.489 201.18 345.539 202.18V202.17Z" fill="#263238"/>
<path d="M333.889 198.61C334.009 198.62 334.139 198.59 334.239 198.5C335.739 197.11 337.439 197.6 337.449 197.6C337.699 197.67 337.949 197.53 338.009 197.28C338.069 197.02 337.909 196.76 337.649 196.68C337.559 196.65 335.439 196.04 333.569 197.77C333.379 197.94 333.379 198.25 333.569 198.45C333.659 198.55 333.769 198.6 333.889 198.62V198.61Z" fill="#263238"/>
<path d="M348.779 197.28C348.879 197.25 348.959 197.17 348.999 197.07C349.089 196.85 348.979 196.57 348.759 196.44C346.529 195.19 344.879 196.14 344.809 196.18C344.609 196.3 344.569 196.57 344.699 196.8C344.839 197.03 345.109 197.11 345.299 197C345.359 196.96 346.659 196.24 348.429 197.24C348.539 197.3 348.669 197.31 348.769 197.28H348.779Z" fill="#263238"/>
<path d="M342.929 201.7C342.929 201.7 344.459 205.35 346.179 207.63C346.479 208.03 346.289 208.61 345.829 208.78C344.629 209.22 343.219 208.82 343.219 208.82L342.939 201.7H342.929Z" fill="#D58745"/>
<path d="M336.629 200.4L338.869 199.87C338.869 199.87 337.649 201.54 336.629 200.4Z" fill="#263238"/>
<path d="M346.379 200.41L348.619 199.88C348.619 199.88 347.399 201.55 346.379 200.41Z" fill="#263238"/>
<path d="M351.309 201.45C351.309 201.45 346.899 189.16 339.409 187.32C339.069 187.24 334.419 197.95 329.879 200.03C329.879 200.03 328.859 207.49 327.359 208.01C325.859 208.53 322.099 200.38 322.099 200.38C322.099 200.38 315.949 186.93 324.589 183.28C333.229 179.63 342.219 180 347.569 187.31C352.929 194.62 352.039 199.43 351.309 201.44V201.45Z" fill="#263238"/>
<path d="M320.609 206.98C321.759 208.98 323.629 210.24 325.349 210.67C327.929 211.32 329.269 207.17 328.379 204.58C327.589 202.25 325.049 200.71 322.539 201.22C320.059 201.72 319.289 204.7 320.609 206.99V206.98Z" fill="#E9B376"/>
<path opacity="0.2" d="M326.62 206.88C326.49 206.88 326.38 206.78 326.37 206.65C326.31 205.79 325.91 204.96 325.26 204.39C324.6 203.81 323.45 203.55 322.88 203.58C322.75 203.58 322.62 203.48 322.62 203.35C322.62 203.21 322.72 203.09 322.85 203.08C323.5 203.03 324.82 203.34 325.59 204.01C326.34 204.67 326.81 205.61 326.87 206.61C326.87 206.75 326.78 206.87 326.64 206.88H326.62Z" fill="#263238"/>
<path d="M337.85 230.19C337.85 230.19 344.4 231.49 350.04 235.24C355.68 238.99 361.67 259.97 361.67 259.97L350.25 260.93L337.85 230.19Z" fill="#26A4C0"/>
<path opacity="0.7" d="M337.85 230.19C337.85 230.19 344.4 231.49 350.04 235.24C355.68 238.99 361.67 259.97 361.67 259.97L350.25 260.93L337.85 230.19Z" fill="white"/>
<path d="M309.39 258.24L305.51 233.09C309.49 229.68 323.39 228.63 323.39 228.63C332.02 232.52 338.02 235.54 336.94 229.22L347.87 240.73C347.87 240.73 353.49 246.67 353.25 254.73C353.06 260.91 350.54 279.49 351.41 287.08L353.5 303.69C331.03 321.28 310.34 305.11 310.34 305.11C311.42 301.91 315.69 297.17 316.22 294.03C316.01 290 317.78 287.01 315.45 278.63C313.7 272.32 309.38 259.14 309.4 258.24H309.39Z" fill="#26A4C0"/>
<g opacity="0.7">
<path d="M309.39 258.24L305.51 233.09C309.49 229.68 323.39 228.63 323.39 228.63C332.02 232.52 338.02 235.54 336.94 229.22L347.87 240.73C347.87 240.73 353.49 246.67 353.25 254.73C353.06 260.91 350.54 279.49 351.41 287.08L353.5 303.69C331.03 321.28 310.34 305.11 310.34 305.11C311.42 301.91 315.69 297.17 316.22 294.03C316.01 290 317.78 287.01 315.45 278.63C313.7 272.32 309.38 259.14 309.4 258.24H309.39Z" fill="white"/>
</g>
<path d="M308.95 231.28C308.95 231.28 304.35 231.52 301.68 235.97C299.97 238.82 294 257.44 290.23 269.45C288.31 275.56 289.92 280.82 295.01 282.3H329.09L330.04 274.71L304.56 271.5C304.56 271.5 312.07 249.8 313.19 243.24C314.31 236.69 308.95 231.28 308.95 231.28Z" fill="#E9B376"/>
<path opacity="0.2" d="M304.53 271.51C304.53 271.51 301.46 271.5 299.56 272.74C299.56 272.74 300.63 269.29 305.49 268.64L304.52 271.51H304.53Z" fill="black"/>
<path d="M292.67 255.83L309.39 261.21L314.77 242.09C314.77 242.09 310.49 231.24 310 231C309.51 230.76 303.03 231.32 300.68 237.55C298.33 243.78 292.65 255.83 292.65 255.83H292.67Z" fill="#26A4C0"/>
<path opacity="0.7" d="M292.67 255.83L309.39 261.21L314.77 242.09C314.77 242.09 310.49 231.24 310 231C309.51 230.76 303.03 231.32 300.68 237.55C298.33 243.78 292.65 255.83 292.65 255.83H292.67Z" fill="white"/>
<path d="M359.43 260.16C359.43 260.16 363.14 269.49 363.91 271.91C364.68 274.32 367.13 279.79 362.78 281.4C358.44 283.01 329.49 281.4 329.49 281.4V273.68C329.49 273.68 351.45 271.08 351.89 270.69C352.32 270.3 352.8 260.72 352.8 260.72L359.43 260.16Z" fill="#E9B376"/>
<g opacity="0.2">
<path d="M344.42 277.06C344.17 276.53 343.52 276.19 342.97 276.39C343.53 275.73 344.11 275.04 344.35 274.2C344.59 273.36 344.39 272.34 343.66 271.87L338.38 272.73C338.98 275.36 339.7 278.44 340.3 281.06C340.35 281.28 340.41 281.51 340.55 281.69C340.98 282.24 341.85 281.99 342.48 281.69C342.9 281.5 343.35 281.27 343.53 280.85C343.72 280.43 343.42 279.8 342.96 279.88C343.47 279.59 343.95 279.22 344.25 278.72C344.56 278.22 344.66 277.58 344.42 277.05V277.06Z" fill="black"/>
</g>
<path d="M342.13 212C340.47 212 339.19 211.18 338.69 210.42C338.61 210.3 338.65 210.15 338.76 210.07C338.87 210 339.03 210.03 339.11 210.14C339.46 210.68 340.56 211.49 342.13 211.49C342.27 211.49 342.38 211.6 342.38 211.74C342.38 211.88 342.27 211.99 342.13 211.99V212Z" fill="#263238"/>
<path opacity="0.2" d="M309.75 259.78L313.1 248.04L311.31 265L309.75 259.78Z" fill="black"/>
<path opacity="0.2" d="M352.8 260.72C352.8 260.72 353.61 253.86 352.99 251.29C352.99 251.29 354.26 255.8 354.37 260.58L352.8 260.71V260.72Z" fill="black"/>
<path opacity="0.2" d="M351.9 270.68C351.9 270.68 355.67 270.82 357.67 272.75C357.67 272.75 357.05 268.97 352.22 269L351.9 270.69V270.68Z" fill="black"/>
<path d="M332.703 259.942L332.57 259.986C332.12 260.136 331.876 260.623 332.026 261.074L335.625 271.88C335.775 272.331 336.262 272.574 336.713 272.424L336.846 272.38C337.296 272.23 337.54 271.743 337.39 271.292L333.791 260.486C333.641 260.035 333.154 259.792 332.703 259.942Z" fill="#263238"/>
<path d="M327.11 274.34C327.11 274.34 332.95 268.99 333.97 269.49C334.99 269.99 335.81 270.51 335.81 270.51C335.81 270.51 340.85 268.86 341.35 270.25C341.84 271.64 341.02 272.35 341.02 272.35C341.02 272.35 343.14 272.81 342.55 274.36C341.97 275.91 341.51 276.49 341.51 276.49C341.51 276.49 342.76 277.38 342.28 278.61C341.8 279.84 340.73 279.96 340.73 279.96C340.73 279.96 342.74 281.61 341.12 282.11C340.25 282.38 328.55 282.2 327.67 281.89C325.82 281.22 327.1 274.34 327.1 274.34H327.11Z" fill="#EBB373"/>
<path d="M359.04 280.13H321.26V282.33H359.04V280.13Z" fill="white"/>
<path d="M226.34 250.07L214.8 257.41C214.8 257.41 222.12 284.44 224.42 288.07L238.8 281.23L226.33 250.07H226.34Z" fill="#E4897B"/>
<path d="M192.08 214.67C191.87 216.63 191.96 218.37 192.62 219.24C193.3 220.14 194.47 220.76 195.73 221.19C194.61 223.35 191.78 225.08 191.78 225.08H183.86C183.86 225.08 180.28 225.88 178.92 225.11C177.8 224.48 176.61 223.88 175.54 223.16C175 222.79 174.49 222.36 173.98 221.91C175.65 220.94 177.17 219.61 177.71 217.88C179.09 213.4 177.61 198.1 177.61 198.1L194.33 204.97C194.33 204.97 194.2 205.34 194.01 205.98C193.48 207.75 192.41 211.52 192.08 214.68V214.67Z" fill="#E4897B"/>
<path d="M202.12 172.95C201.66 172.37 202.93 159.27 180.37 165.79C163.62 170.63 169.95 183.76 169.95 183.76L189.1 169.93L202.12 172.96V172.95Z" fill="#263238"/>
<path opacity="0.2" d="M180.38 205.86C180.38 205.86 183.97 213.33 192.23 213.07C192.55 209.92 193.63 206.14 194.16 204.37C193.54 204.14 193.14 204 193.14 204L180.39 205.86H180.38Z" fill="black"/>
<path d="M201.68 170.27C201.68 170.27 206.55 184.04 200.06 190.93C193.58 197.82 188.53 171.42 188.53 171.42L201.68 170.26V170.27Z" fill="#263238"/>
<path d="M180.36 206.38C185.46 210.23 191.24 211.17 196.09 208.54C199.21 206.86 201.77 203.98 203 200.31C203.17 199.83 203.3 199.33 203.42 198.82C205.47 189.45 203.75 174.06 193.5 170.13C186.21 167.28 177.97 170.87 175.12 178.18C174.3 180.25 173.99 182.49 174.2 184.72C175.01 195.07 174.41 201.88 180.36 206.38Z" fill="#E4897B"/>
<path d="M188.23 187.41C188.18 188.49 188.84 189.37 189.56 189.35C190.28 189.33 190.83 188.43 190.81 187.35C190.8 186.27 190.19 185.39 189.48 185.41C188.77 185.43 188.21 186.31 188.23 187.41Z" fill="#263238"/>
<path d="M198.62 187.41C198.57 188.49 199.24 189.37 199.95 189.35C200.66 189.33 201.22 188.43 201.2 187.35C201.19 186.27 200.58 185.39 199.87 185.41C199.16 185.43 198.6 186.38 198.62 187.41Z" fill="#263238"/>
<path d="M196.53 187.6C197.59 190.16 198.99 192.57 200.71 194.75C199.55 195.61 198.07 195.92 196.66 195.59L196.53 187.6Z" fill="#DE5753"/>
<path d="M203.02 182.97C202.86 183.06 202.66 183.06 202.5 182.97C201.43 182.3 200.11 182.17 198.93 182.62C198.69 182.74 198.39 182.64 198.27 182.4C198.15 182.16 198.25 181.86 198.49 181.74C199.96 181.13 201.64 181.27 202.99 182.12C203.23 182.25 203.31 182.55 203.18 182.79C203.13 182.87 203.08 182.92 203.01 182.97H203.02Z" fill="#263238"/>
<path d="M188.04 183.53C187.94 183.53 187.84 183.5 187.76 183.44C187.58 183.24 187.59 182.93 187.79 182.74C188.96 181.64 190.59 181.19 192.16 181.52C192.42 181.59 192.58 181.86 192.51 182.13C192.43 182.39 192.17 182.54 191.9 182.48C190.66 182.25 189.38 182.63 188.46 183.49C188.33 183.57 188.18 183.58 188.04 183.53Z" fill="#263238"/>
<path d="M181.56 171.63L182.43 176.16C180.99 177.06 180.2 178.81 181.01 180.56C182.74 184.3 180.97 190.4 178.18 192.97C178.18 192.97 177.98 191.31 176.6 191.8C175.22 192.29 176.55 199.26 178.01 203.55C178.01 203.55 174.82 201.42 171.87 192.48C169.14 184.22 168.4 177.23 169.91 173.86L181.57 171.63H181.56Z" fill="#263238"/>
<path d="M169.84 193.32C171.04 195.64 173.11 197.4 175.6 198.2C178.9 199.24 180.66 196.3 179.85 193.12C179.1 190.3 176.48 186.27 173.12 186.65C169.75 187.03 168.42 190.44 169.85 193.31L169.84 193.32Z" fill="#E4897B"/>
<path d="M201.68 170.27C202.26 171.35 200.42 175.32 196.25 177.23C192.07 179.14 196.52 174.91 196.52 174.91C196.52 174.91 188.13 177.79 187.9 176.71C187.67 175.63 190.26 174.07 190.26 174.07C190.26 174.07 183.27 177.36 177.61 175.96C171.94 174.56 182.27 165.18 188.85 165.37C195.43 165.56 199.94 167 201.68 170.27Z" fill="#263238"/>
<path opacity="0.1" d="M177.38 193.91C177.07 192.23 176.01 190.74 174.52 189.9C173.94 189.58 173.16 189.37 172.7 189.78L172.37 189.4C172.93 188.91 173.83 188.94 174.77 189.46C176.38 190.37 177.54 191.99 177.88 193.81L177.39 193.9L177.38 193.91Z" fill="#263238"/>
<path d="M193.15 198.48C192.45 198.49 191.75 198.37 191.13 198.02C190.36 197.59 189.79 196.91 189.34 196.16C189.09 195.75 188.44 196.12 188.69 196.54C189.2 197.39 189.87 198.18 190.75 198.67C191.48 199.08 192.31 199.25 193.14 199.23C193.62 199.22 193.62 198.47 193.14 198.48H193.15Z" fill="#263238"/>
<path d="M210.84 219.54C204.14 222.6 200.84 235.96 213.6 265.38L232.59 252.78C230.22 245.47 227.66 241.61 223.74 232.7C218.48 220.24 210.83 219.54 210.83 219.54H210.84Z" fill="#26A4C0"/>
<path d="M207.15 218.71C202.41 218.37 183.46 216.26 164.16 220.16L166.03 288.52C166.03 288.52 165.07 313.67 166.03 315.95C186.3 324.24 211.6 312.17 224.42 303.9C224.28 304.23 220.89 295.18 220.89 295.18C218.53 273.39 214.75 239.41 211.17 219.8C211.08 219.32 207.62 218.74 207.15 218.71Z" fill="#26A4C0"/>
<path opacity="0.2" d="M166.29 261.69L167.35 261.83L170.93 242.68L172.47 264.19L166.03 264.68L166.29 261.69Z" fill="black"/>
<path d="M164.16 220.16C164.16 220.16 156.56 221.57 154.73 231.09C153.05 239.86 148.94 259.8 148.94 259.8L169.74 260.23L171.18 239.01L164.16 220.16Z" fill="#26A4C0"/>
<path d="M152.7 259.89L152.5 273.26C152.93 278.41 155.4 282.15 160.13 282.17L205.96 279.52L208 271.15L169.27 267.75L169.76 260.26L152.72 259.91L152.7 259.89Z" fill="#E4897B"/>
<path d="M228.63 270.83C227.29 269.7 219.6 266.51 216.61 265.87C213.63 265.22 202.27 270.72 202.27 270.72L201.28 277.75C201.28 277.75 203.18 279.69 206.2 279.49C207.94 279.38 211.95 277.08 211.95 277.08C211.95 277.08 212.65 278.33 213.73 279.45C214.92 280.69 216.65 281.96 217.62 280.92C218.58 279.89 215.78 276.27 215.37 275.75C215.79 276.27 218.76 279.88 220.22 278.67C221.63 277.51 218.46 273.82 218.46 273.82C218.46 273.82 220.11 275.37 220.96 276.16C221.81 276.95 223.34 276.86 223.21 275.19C223.06 273.26 221.34 271.34 221.34 271.34C221.34 271.34 223.09 271.73 226.44 273.05C228.85 274 229.77 271.77 228.64 270.82L228.63 270.83Z" fill="#E4897B"/>
<path opacity="0.1" d="M215.8 276.53C215.73 276.53 215.66 276.5 215.61 276.45C215.05 275.81 214.47 275.16 213.79 274.63C213.06 274.06 212.28 273.72 211.54 273.65C211.4 273.64 211.3 273.51 211.32 273.38C211.33 273.24 211.46 273.14 211.59 273.16C212.43 273.24 213.27 273.61 214.09 274.25C214.8 274.8 215.4 275.48 215.98 276.13C216.07 276.23 216.06 276.39 215.96 276.48C215.91 276.52 215.85 276.54 215.79 276.54L215.8 276.53Z" fill="#263238"/>
<path opacity="0.1" d="M218.87 274.39C218.8 274.39 218.73 274.36 218.68 274.31C218.12 273.67 217.53 273.01 216.86 272.49C216.11 271.91 215.36 271.58 214.61 271.51C214.47 271.5 214.37 271.37 214.39 271.24C214.4 271.1 214.53 271 214.66 271.02C215.5 271.1 216.34 271.47 217.16 272.11C217.87 272.66 218.47 273.34 219.05 273.99C219.14 274.09 219.13 274.25 219.03 274.34C218.98 274.38 218.92 274.4 218.86 274.4L218.87 274.39Z" fill="#263238"/>
<path opacity="0.1" d="M221.28 271.59C221.21 271.59 221.14 271.56 221.09 271.51C220.53 270.87 219.95 270.22 219.27 269.69C218.54 269.12 217.76 268.78 217.02 268.71C216.88 268.7 216.78 268.57 216.8 268.44C216.81 268.3 216.95 268.2 217.07 268.22C217.91 268.3 218.75 268.67 219.57 269.31C220.28 269.86 220.88 270.54 221.46 271.19C221.55 271.29 221.54 271.45 221.44 271.54C221.39 271.58 221.33 271.6 221.27 271.6L221.28 271.59Z" fill="#263238"/>
<path d="M261.41 282.26H222.69C222.02 282.26 221.48 281.82 221.49 281.28C221.49 281.18 221.51 281.08 221.55 280.98L238.77 241.49C239.2 240.36 240.5 239.59 241.97 239.59H280.71C281.37 239.59 281.9 240.02 281.9 240.54C281.9 240.65 281.88 240.76 281.83 240.86L264.61 280.35C264.17 281.47 262.88 282.24 261.41 282.25V282.26Z" fill="#263238"/>
<path opacity="0.7" d="M280.73 239.6H241.99C240.52 239.6 239.22 240.38 238.79 241.5L221.57 280.99C221.53 281.09 221.51 281.19 221.51 281.29C221.51 281.83 222.04 282.26 222.71 282.27H261.43C262.9 282.26 264.19 281.49 264.63 280.37L281.85 240.88C281.9 240.78 281.92 240.67 281.92 240.56C281.92 240.03 281.39 239.61 280.73 239.61V239.6Z" fill="white"/>
<path d="M256.73 261.81C255.89 263.71 254.2 265.01 252.93 264.74C251.67 264.48 251.33 262.75 252.14 260.85C252.95 258.95 254.67 257.68 255.93 257.94C257.19 258.2 257.57 259.86 256.72 261.81H256.73Z" fill="white"/>
<path opacity="0.3" d="M242.21 239.6H241.98C240.51 239.6 239.21 240.38 238.78 241.5L221.56 280.99C221.52 281.09 221.5 281.19 221.5 281.29C221.5 281.83 222.03 282.26 222.7 282.27H223.94L242.22 239.6H242.21Z" fill="black"/>
<path d="M184.79 282.26H225.1V279.54H187.51C186.01 279.54 184.79 280.76 184.79 282.26Z" fill="#263238"/>
<path opacity="0.7" d="M184.79 282.26H225.1V279.54H187.51C186.01 279.54 184.79 280.76 184.79 282.26Z" fill="white"/>
<path opacity="0.2" d="M214.75 240.73C214.32 240.37 217.26 262.96 217.26 262.96L221.26 260.31C221.26 260.31 215.19 241.09 214.76 240.73H214.75Z" fill="black"/>
<path d="M408.87 296.69H80.6699V448.47H408.87V296.69Z" fill="#263238"/>
<path opacity="0.4" d="M142.01 296.69H80.6699V448.47H142.01V296.69Z" fill="black"/>
<path opacity="0.3" d="M408.87 296.69H80.6699V301.71H408.87V296.69Z" fill="black"/>
<path d="M411.48 282.33H77.0098V296.7H411.48V282.33Z" fill="#263238"/>
<path opacity="0.4" d="M148.15 282.33H77.0098V296.7H148.15V282.33Z" fill="black"/>
<path opacity="0.3" d="M269 321.13H163.98V411.89H269V321.13Z" fill="black"/>
<path d="M264.49 326.75H168.49V406.27H264.49V326.75Z" fill="#263238"/>
<path opacity="0.3" d="M163.98 411.89L168.49 406.27H264.49L269 411.89H163.98Z" fill="white"/>
<path opacity="0.3" d="M163.98 321.13L168.52 326.71L264.49 326.75L269 321.13H163.98Z" fill="black"/>
<path opacity="0.3" d="M392.63 321.13H287.61V411.89H392.63V321.13Z" fill="black"/>
<path d="M388.12 326.75H292.12V406.27H388.12V326.75Z" fill="#263238"/>
<path opacity="0.3" d="M287.61 411.89L292.12 406.27H388.12L392.63 411.89H287.61Z" fill="white"/>
<path opacity="0.3" d="M287.61 321.13L292.15 326.71L388.12 326.75L392.63 321.13H287.61Z" fill="black"/>
</svg>
