<svg width="459" height="469" viewBox="0 0 459 469" fill="none" xmlns="http://www.w3.org/2000/svg">
<path d="M289.61 158.43C284.652 158.43 160.924 157.568 125.976 157.568C123.532 157.568 126.621 153.337 127.968 153.042C132.267 152.101 136.743 152.052 141.11 151.6C145.493 151.144 149.569 150.179 153.634 148.462C157.071 147.011 160.502 145.332 164.227 144.752C171.427 143.623 177.743 147.524 184.496 149.247C188.885 150.365 192.869 149.914 196.772 147.569C199.894 145.697 202.731 143.451 205.996 141.797C218.392 135.536 233.494 134.958 246.427 139.944C249.518 141.141 252.499 142.65 255.271 144.472C258.569 146.635 261.413 149.402 264.721 151.54C272.051 156.283 281.111 154.739 289.104 157.458C289.543 157.604 290.038 158.43 289.61 158.43Z" fill="#EBEBEB"/>
<path d="M447.381 268.984C442.423 268.984 318.695 268.123 283.747 268.123C281.303 268.123 284.392 263.891 285.739 263.596C290.038 262.655 294.514 262.606 298.881 262.155C303.264 261.698 307.34 260.733 311.405 259.016C314.842 257.565 318.273 255.886 321.998 255.306C329.198 254.177 335.514 258.078 342.267 259.801C346.656 260.919 350.64 260.468 354.543 258.123C357.665 256.251 360.502 254.005 363.767 252.351C376.163 246.09 391.265 245.512 404.198 250.499C407.289 251.696 410.27 253.204 413.042 255.026C416.34 257.189 419.184 259.956 422.492 262.094C429.822 266.837 438.882 265.294 446.875 268.012C447.314 268.159 447.809 268.984 447.381 268.984Z" fill="#EBEBEB"/>
<path d="M341.296 59.5882C334.74 59.5882 224.431 60.3141 217.498 60.0935C217 60.0794 216.733 59.3463 217.227 59.1007C221.598 56.9369 226.555 57.3711 231.096 55.8406C233.769 54.9404 235.409 53.1929 237.264 51.1893C238.865 49.4562 240.723 48.1287 243.004 47.442C245.022 46.8369 247.203 46.7586 249.253 47.2461C251.492 47.78 253.435 49.0612 255.57 49.869C260.869 51.8691 266.019 49.9686 269.802 46.0468C272.923 42.8154 275.991 39.7654 280.233 38.0252C283.785 36.5661 287.728 36.2635 291.283 37.8721C295.33 39.705 298.106 43.3919 301.906 45.609C306.412 48.2426 311.8 47.6198 316.775 48.4134C321.765 49.2107 325.573 53.3994 329.936 55.8123C331.427 56.6379 332.954 57.3282 334.694 57.2856C335.669 57.2607 336.626 56.9973 337.591 56.8764C339.093 56.6913 340.52 56.7341 341.53 57.9868C341.776 58.2928 341.726 59.5882 341.296 59.5882Z" fill="#EBEBEB"/>
<path d="M236.738 290.904C230.183 290.904 119.873 291.63 112.94 291.409C112.442 291.395 112.175 290.662 112.67 290.417C117.04 288.253 121.998 288.687 126.539 287.157C129.211 286.256 130.852 284.509 132.706 282.505C134.308 280.772 136.165 279.445 138.446 278.758C140.464 278.153 142.646 278.075 144.696 278.562C146.934 279.096 148.877 280.377 151.013 281.185C156.312 283.185 161.461 281.285 165.244 277.363C168.366 274.131 171.433 271.081 175.675 269.341C179.227 267.882 183.17 267.579 186.726 269.188C190.772 271.021 193.548 274.708 197.349 276.925C201.854 279.558 207.242 278.936 212.218 279.729C217.207 280.527 221.015 284.715 225.378 287.128C226.869 287.954 228.396 288.644 230.136 288.601C231.111 288.577 232.069 288.313 233.033 288.192C234.535 288.007 235.962 288.05 236.973 289.303C237.218 289.609 237.168 290.904 236.738 290.904Z" fill="#EBEBEB"/>
<path d="M438.834 103.365C434.048 103.365 353.511 103.895 348.45 103.734C348.086 103.723 347.891 103.188 348.252 103.009C351.443 101.429 355.062 101.746 358.378 100.629C360.329 99.9715 361.527 98.6956 362.881 97.2328C364.05 95.9675 365.406 94.9984 367.072 94.4969C368.545 94.0552 370.138 93.9981 371.634 94.354C373.269 94.7438 374.687 95.6792 376.246 96.2689C380.115 97.7292 383.875 96.3417 386.637 93.4784C388.916 91.1191 391.155 88.8924 394.252 87.6219C396.845 86.5566 399.724 86.3356 402.32 87.51C405.274 88.8482 407.301 91.54 410.076 93.1587C413.365 95.0815 417.299 94.6268 420.932 95.2062C424.574 95.7882 427.355 98.8464 430.54 100.608C431.629 101.211 432.743 101.715 434.014 101.684C434.726 101.665 435.425 101.473 436.129 101.385C437.225 101.25 438.267 101.281 439.005 102.196C439.184 102.419 439.148 103.365 438.834 103.365Z" fill="#EBEBEB"/>
<path d="M143.228 204.849C138.442 204.849 57.9058 205.38 52.8443 205.218C52.4806 205.208 52.2856 204.673 52.6468 204.494C55.8376 202.914 59.457 203.231 62.7724 202.113C64.7237 201.456 65.9215 200.18 67.2752 198.717C68.4444 197.452 69.8007 196.483 71.4663 195.981C72.9394 195.54 74.5322 195.483 76.0289 195.839C77.6631 196.228 79.0818 197.164 80.6406 197.754C84.5095 199.214 88.2694 197.826 91.0314 194.963C93.3101 192.604 95.5498 190.377 98.6469 189.106C101.24 188.041 104.119 187.82 106.714 188.995C109.669 190.333 111.695 193.025 114.47 194.643C117.76 196.566 121.694 196.111 125.326 196.691C128.969 197.273 131.749 200.331 134.935 202.093C136.023 202.695 137.138 203.2 138.408 203.168C139.12 203.15 139.819 202.958 140.523 202.87C141.62 202.735 142.662 202.766 143.4 203.68C143.579 203.904 143.542 204.849 143.228 204.849Z" fill="#EBEBEB"/>
<path d="M170.975 289.343H329.024V469.757H170.975V289.343Z" fill="#26A4C0"/>
<path opacity="0.4" d="M170.975 289.343H329.024V469.757H170.975V289.343Z" fill="white"/>
<path opacity="0.5" d="M170.975 447.907H329.024V469.757H170.975V447.907Z" fill="#26A4C0"/>
<path d="M169.591 284.363H330.409V289.343H169.591V284.363Z" fill="#26A4C0"/>
<path opacity="0.5" d="M170.975 289.343H329.024V296.03L170.975 293.557V289.343Z" fill="#26A4C0"/>
<path d="M170.977 307.25H329.024V313.616H170.977V307.25Z" fill="white"/>
<path opacity="0.5" d="M170.977 313.616H329.024V315.772L170.977 314.694V313.616Z" fill="#26A4C0"/>
<path d="M170.977 369.541H329.024V375.908H170.977V369.541Z" fill="white"/>
<path opacity="0.5" d="M170.977 375.908H329.024V378.064L170.977 376.986V375.908Z" fill="#26A4C0"/>
<path d="M273.648 323.55H291.464V364.098H273.648V323.55Z" fill="white"/>
<path d="M275.773 325.585H289.339V362.063H275.773V325.585Z" fill="#455A64"/>
<g opacity="0.1">
<path d="M275.773 335.592L289.339 352.432V362.063L275.773 345.223V335.592Z" fill="white"/>
<path d="M275.773 328.384L289.339 345.223V349.449L275.773 332.609V328.384Z" fill="white"/>
</g>
<path d="M271.614 320.455H293.499V323.55H271.614V320.455Z" fill="white"/>
<path d="M291.464 324.809V323.55H273.648V324.18L291.464 324.809Z" fill="#EBEBEB"/>
<path d="M241.092 323.55H258.908V364.098H241.092V323.55Z" fill="white"/>
<path d="M243.217 325.585H256.783V362.063H243.217V325.585Z" fill="#455A64"/>
<g opacity="0.1">
<path d="M243.217 335.592L256.783 352.432V362.063L243.217 345.223V335.592Z" fill="white"/>
<path d="M243.217 328.384L256.783 345.223V349.449L243.217 332.609V328.384Z" fill="white"/>
</g>
<path d="M239.057 320.455H260.942V323.55H239.057V320.455Z" fill="white"/>
<path d="M258.908 324.809V323.55H241.092V324.18L258.908 324.809Z" fill="#EBEBEB"/>
<path d="M208.536 323.55H226.352V364.098H208.536V323.55Z" fill="white"/>
<path d="M210.66 325.585H224.227V362.063H210.66V325.585Z" fill="#455A64"/>
<g opacity="0.1">
<path d="M210.66 335.592L224.227 352.432V362.063L210.66 345.223V335.592Z" fill="white"/>
<path d="M210.66 328.384L224.227 345.223V349.449L210.66 332.609V328.384Z" fill="white"/>
</g>
<path d="M206.501 320.455H228.386V323.55H206.501V320.455Z" fill="white"/>
<path d="M226.352 324.809V323.55H208.536V324.18L226.352 324.809Z" fill="#EBEBEB"/>
<path d="M276.412 407.683H295.968V469.757H276.412V407.683Z" fill="white"/>
<path d="M256.229 407.683H275.785V469.757H256.229V407.683Z" fill="white"/>
<path d="M280.471 411.875H291.91V448.268H280.471V411.875Z" fill="#455A64"/>
<path d="M260.287 411.875H271.727V448.268H260.287V411.875Z" fill="#455A64"/>
<path d="M224.215 407.683H243.771V469.757H224.215V407.683Z" fill="white"/>
<path d="M204.031 407.683H223.587V469.757H204.031V407.683Z" fill="white"/>
<path d="M228.273 411.875H239.713V448.268H228.273V411.875Z" fill="#455A64"/>
<path d="M208.09 411.875H219.529V448.268H208.09V411.875Z" fill="#455A64"/>
<path d="M194.497 395.631H305.503V407.684H194.497V395.631Z" fill="#26A4C0"/>
<path d="M201.13 265.441V284.365H298.869V265.441H280.934C280.934 265.441 271.922 255.528 250 255.528C228.078 255.528 219.066 265.441 219.066 265.441H201.13Z" fill="#26A4C0"/>
<path opacity="0.8" d="M201.13 265.441V284.365H298.869V265.441H280.934C280.934 265.441 271.922 255.528 250 255.528C228.078 255.528 219.066 265.441 219.066 265.441H201.13Z" fill="white"/>
<path d="M281.798 277.644C281.576 277.372 281.169 277.335 280.897 277.557C280.354 278.002 279.416 278.52 278.54 278.508C277.923 278.508 277.367 278.323 276.997 278.051C276.627 277.779 276.466 277.471 276.466 277.162C276.466 277.002 276.503 276.891 276.577 276.767C276.652 276.644 276.762 276.52 276.947 276.398C277.306 276.162 277.91 275.953 278.639 275.817H278.663C279.244 275.706 279.786 275.558 280.256 275.335C280.724 275.113 281.132 274.805 281.403 274.374C281.588 274.077 281.687 273.731 281.687 273.36C281.687 272.621 281.268 271.979 280.7 271.559C280.12 271.139 279.367 270.905 278.564 270.905C277.379 270.905 276.503 271.485 275.874 271.892C275.589 272.089 275.503 272.485 275.701 272.769C275.886 273.065 276.281 273.151 276.577 272.953C277.206 272.534 277.811 272.164 278.564 272.164C279.12 272.164 279.613 272.336 279.947 272.584C280.28 272.83 280.415 273.102 280.415 273.36C280.415 273.509 280.391 273.608 280.329 273.706C280.268 273.806 280.157 273.916 279.996 274.028C279.676 274.25 279.12 274.447 278.454 274.571H278.428C277.799 274.694 277.219 274.855 276.725 275.089C276.219 275.335 275.775 275.657 275.491 276.113C275.306 276.41 275.194 276.779 275.194 277.162C275.194 277.952 275.64 278.632 276.257 279.076C276.861 279.52 277.664 279.779 278.54 279.779C279.873 279.766 280.996 279.1 281.7 278.545C281.971 278.323 282.008 277.915 281.798 277.644Z" fill="#263238"/>
<path d="M271.449 275.348C271.437 272.904 269.389 270.917 266.919 270.905C265.833 270.905 264.846 271.263 264.068 271.867C263.773 272.114 263.722 272.546 263.944 272.855C264.192 273.164 264.649 273.213 264.932 272.991C265.475 272.546 266.154 272.312 266.919 272.312C267.771 272.312 268.561 272.657 269.141 273.201C269.697 273.769 270.042 274.509 270.042 275.348C270.042 276.188 269.697 276.952 269.141 277.496C268.561 278.039 267.771 278.384 266.919 278.384C266.154 278.384 265.488 278.15 264.932 277.705C264.649 277.496 264.192 277.545 263.944 277.842C263.722 278.15 263.773 278.595 264.068 278.829C264.846 279.434 265.833 279.791 266.919 279.791C269.389 279.791 271.437 277.805 271.449 275.348Z" fill="#263238"/>
<path d="M259.322 279.113V271.831C259.322 271.448 259.026 271.151 258.643 271.151C258.261 271.151 257.952 271.448 257.952 271.831V274.793H254.756V271.831C254.756 271.448 254.459 271.151 254.076 271.151C253.694 271.151 253.385 271.448 253.385 271.831V279.113C253.385 279.495 253.694 279.791 254.076 279.791C254.459 279.791 254.756 279.495 254.756 279.113V276.15H257.952V279.113C257.952 279.495 258.261 279.791 258.643 279.791C259.026 279.791 259.322 279.495 259.322 279.113Z" fill="#263238"/>
<path d="M241.902 272.226C241.136 273.04 240.655 274.126 240.655 275.348C240.655 276.57 241.136 277.669 241.902 278.471C242.629 279.273 243.716 279.791 244.852 279.791C246.036 279.791 247.122 279.273 247.876 278.471C248.64 277.669 249.097 276.57 249.097 275.348C249.097 274.126 248.64 273.04 247.876 272.226C247.122 271.411 246.036 270.905 244.852 270.905C243.716 270.905 242.629 271.411 241.902 272.226ZM242.062 275.348C242.062 274.509 242.395 273.731 242.901 273.189C243.419 272.633 244.111 272.312 244.852 272.312C245.641 272.312 246.332 272.633 246.85 273.189C247.369 273.731 247.69 274.509 247.69 275.348C247.69 276.188 247.369 276.965 246.85 277.496C246.332 278.051 245.641 278.384 244.852 278.384C244.111 278.384 243.419 278.051 242.901 277.496C242.395 276.965 242.062 276.188 242.062 275.348Z" fill="#263238"/>
<path d="M229.305 272.226C228.539 273.04 228.058 274.126 228.058 275.348C228.058 276.57 228.539 277.669 229.305 278.471C230.033 279.273 231.119 279.791 232.255 279.791C233.44 279.791 234.525 279.273 235.279 278.471C236.044 277.669 236.5 276.57 236.5 275.348C236.5 274.126 236.044 273.04 235.279 272.226C234.525 271.411 233.44 270.905 232.255 270.905C231.119 270.905 230.033 271.411 229.305 272.226ZM229.465 275.348C229.465 274.509 229.799 273.731 230.304 273.189C230.823 272.633 231.514 272.312 232.255 272.312C233.045 272.312 233.735 272.633 234.254 273.189C234.773 273.731 235.093 274.509 235.093 275.348C235.093 276.188 234.773 276.965 234.254 277.496C233.735 278.051 233.045 278.384 232.255 278.384C231.514 278.384 230.823 278.051 230.304 277.496C229.799 276.965 229.465 276.188 229.465 275.348Z" fill="#263238"/>
<path d="M223.46 279.113V271.831C223.46 271.46 223.163 271.151 222.781 271.151C222.399 271.151 222.09 271.46 222.09 271.831V278.422H218.744C218.387 278.422 218.066 278.73 218.066 279.113C218.066 279.483 218.387 279.791 218.744 279.791H222.781C223.163 279.791 223.46 279.483 223.46 279.113Z" fill="#263238"/>
<path opacity="0.2" d="M298.869 265.441C297.049 270.506 263.807 287.638 201.13 277.405V284.365H298.869V265.441Z" fill="#26A4C0"/>
<path d="M328.751 317.731H409.087V469.757H328.751V317.731Z" fill="#26A4C0"/>
<path opacity="0.6" d="M328.751 317.731H409.087V469.757H328.751V317.731Z" fill="white"/>
<path opacity="0.5" d="M328.751 447.906H409.087V469.757H328.751V447.906Z" fill="#26A4C0"/>
<path d="M327.367 312.751H410.471V317.731H327.367V312.751Z" fill="#26A4C0"/>
<path opacity="0.5" d="M409.087 317.731H328.751V324.418L409.087 321.944V317.731Z" fill="#26A4C0"/>
<path d="M328.753 327.904H409.087V334.27H328.753V327.904Z" fill="white"/>
<path opacity="0.5" d="M328.753 334.27H409.087V336.426L328.753 335.348V334.27Z" fill="#26A4C0"/>
<path d="M328.753 390.195H409.087V396.562H328.753V390.195Z" fill="white"/>
<path opacity="0.5" d="M328.753 396.562H409.087V398.717L328.753 397.639V396.562Z" fill="#26A4C0"/>
<path d="M375.765 344.204H393.581V384.752H375.765V344.204Z" fill="white"/>
<path d="M377.89 346.239H391.456V382.717H377.89V346.239Z" fill="#455A64"/>
<g opacity="0.1">
<path d="M377.89 356.246L391.456 373.086V382.717L377.89 365.877V356.246Z" fill="white"/>
<path d="M377.89 349.038L391.456 365.877V370.103L377.89 353.263V349.038Z" fill="white"/>
</g>
<path d="M373.73 341.109H395.616V344.204H373.73V341.109Z" fill="white"/>
<path d="M393.581 345.463V344.204H375.765V344.834L393.581 345.463Z" fill="#EBEBEB"/>
<path d="M343.209 344.204H361.024V384.752H343.209V344.204Z" fill="white"/>
<path d="M345.333 346.239H358.899V382.717H345.333V346.239Z" fill="#455A64"/>
<g opacity="0.1">
<path d="M345.333 356.246L358.899 373.086V382.717L345.333 365.877V356.246Z" fill="white"/>
<path d="M345.333 349.038L358.899 365.877V370.103L345.333 353.263V349.038Z" fill="white"/>
</g>
<path d="M341.174 341.109H363.059V344.204H341.174V341.109Z" fill="white"/>
<path d="M361.024 345.463V344.204H343.209V344.834L361.024 345.463Z" fill="#EBEBEB"/>
<path d="M375.765 406.126H393.581V446.674H375.765V406.126Z" fill="white"/>
<path d="M377.89 408.161H391.456V444.639H377.89V408.161Z" fill="#455A64"/>
<g opacity="0.1">
<path d="M377.89 418.168L391.456 435.008V444.639L377.89 427.799V418.168Z" fill="white"/>
<path d="M377.89 410.96L391.456 427.799V432.025L377.89 415.186V410.96Z" fill="white"/>
</g>
<path d="M373.73 403.031H395.616V406.127H373.73V403.031Z" fill="white"/>
<path d="M393.581 407.385V406.126H375.765V406.756L393.581 407.385Z" fill="#EBEBEB"/>
<path d="M343.209 406.126H361.024V446.674H343.209V406.126Z" fill="white"/>
<path d="M345.333 408.161H358.899V444.639H345.333V408.161Z" fill="#455A64"/>
<g opacity="0.1">
<path d="M345.333 418.168L358.899 435.008V444.639L345.333 427.799V418.168Z" fill="white"/>
<path d="M345.333 410.96L358.899 427.799V432.025L345.333 415.186V410.96Z" fill="white"/>
</g>
<path d="M341.174 403.031H363.059V406.127H341.174V403.031Z" fill="white"/>
<path d="M361.024 407.385V406.126H343.209V406.756L361.024 407.385Z" fill="#EBEBEB"/>
<path d="M90.9137 317.731H171.25V469.757H90.9137V317.731Z" fill="#26A4C0"/>
<path opacity="0.6" d="M90.9137 317.731H171.25V469.757H90.9137V317.731Z" fill="white"/>
<path opacity="0.5" d="M90.9137 447.906H171.25V469.757H90.9137V447.906Z" fill="#26A4C0"/>
<path d="M89.5294 312.751H172.633V317.731H89.5294V312.751Z" fill="#26A4C0"/>
<path opacity="0.5" d="M90.9137 317.731H171.25V324.418L90.9137 321.944V317.731Z" fill="#26A4C0"/>
<path d="M90.9159 327.904H171.25V334.27H90.9159V327.904Z" fill="white"/>
<path opacity="0.5" d="M90.9159 334.27H171.25V336.426L90.9159 335.348V334.27Z" fill="#26A4C0"/>
<path d="M90.9159 390.195H171.25V396.562H90.9159V390.195Z" fill="white"/>
<path opacity="0.5" d="M90.9159 396.562H171.25V398.717L90.9159 397.639V396.562Z" fill="#26A4C0"/>
<path d="M137.928 344.204H155.744V384.752H137.928V344.204Z" fill="white"/>
<path d="M140.053 346.239H153.619V382.717H140.053V346.239Z" fill="#455A64"/>
<g opacity="0.1">
<path d="M140.053 356.246L153.619 373.086V382.717L140.053 365.877V356.246Z" fill="white"/>
<path d="M140.053 349.038L153.619 365.877V370.103L140.053 353.263V349.038Z" fill="white"/>
</g>
<path d="M135.893 341.109H157.778V344.204H135.893V341.109Z" fill="white"/>
<path d="M155.744 345.463V344.204H137.928V344.834L155.744 345.463Z" fill="#EBEBEB"/>
<path d="M105.371 344.204H123.187V384.752H105.371V344.204Z" fill="white"/>
<path d="M107.496 346.239H121.062V382.717H107.496V346.239Z" fill="#455A64"/>
<g opacity="0.1">
<path d="M107.496 356.246L121.062 373.086V382.717L107.496 365.877V356.246Z" fill="white"/>
<path d="M107.496 349.038L121.062 365.877V370.103L107.496 353.263V349.038Z" fill="white"/>
</g>
<path d="M103.336 341.109H125.222V344.204H103.336V341.109Z" fill="white"/>
<path d="M123.187 345.463V344.204H105.371V344.834L123.187 345.463Z" fill="#EBEBEB"/>
<path d="M137.928 406.126H155.744V446.674H137.928V406.126Z" fill="white"/>
<path d="M140.053 408.161H153.619V444.639H140.053V408.161Z" fill="#455A64"/>
<g opacity="0.1">
<path d="M140.053 418.168L153.619 435.008V444.639L140.053 427.799V418.168Z" fill="white"/>
<path d="M140.053 410.96L153.619 427.799V432.025L140.053 415.186V410.96Z" fill="white"/>
</g>
<path d="M135.893 403.031H157.778V406.127H135.893V403.031Z" fill="white"/>
<path d="M155.744 407.385V406.126H137.928V406.756L155.744 407.385Z" fill="#EBEBEB"/>
<path d="M105.371 406.126H123.187V446.674H105.371V406.126Z" fill="white"/>
<path d="M107.496 408.161H121.062V444.639H107.496V408.161Z" fill="#455A64"/>
<g opacity="0.1">
<path d="M107.496 418.168L121.062 435.008V444.639L107.496 427.799V418.168Z" fill="white"/>
<path d="M107.496 410.96L121.062 427.799V432.025L107.496 415.186V410.96Z" fill="white"/>
</g>
<path d="M103.336 403.031H125.222V406.127H103.336V403.031Z" fill="white"/>
<path d="M123.187 407.385V406.126H105.371V406.756L123.187 407.385Z" fill="#EBEBEB"/>
<path d="M473.074 469.757H440.52L444.331 452.947C447.405 452.748 451.265 451.962 454.729 449.7L444.641 451.577L449.295 431.031C450.715 430.361 452.125 429.501 453.439 428.392L449.623 429.598L450.24 426.861C452.201 425.992 454.211 424.772 455.981 423.064L450.63 425.153L456.793 397.958L460.275 413.326L457.147 412.545C457.147 412.545 458.421 413.45 460.524 414.417L465.519 436.435L461.895 435.53C461.895 435.53 463.381 436.586 465.79 437.642L469.25 452.885L462.178 451.124C462.36 451.253 465.337 453.316 469.614 454.487L470.213 457.14L459.348 454.429C459.348 454.429 464.175 457.863 470.523 458.502L471.384 462.304L467.768 461.403C467.768 461.403 469.254 462.459 471.659 463.51L473.074 469.757Z" fill="#455A64"/>
<path d="M467.083 448.005C465.283 448.692 458.613 451.408 457.173 452.2C457.172 451.896 457.17 451.593 457.169 451.289C458.778 450.342 460.393 449.406 462.006 448.467C463.738 447.459 465.597 446.56 467.212 445.373C467.291 445.315 467.247 445.153 467.138 445.198C465.358 445.939 463.705 447.038 462.045 448.012C460.406 448.973 458.784 449.964 457.168 450.963C457.161 448.642 457.154 446.32 457.138 443.999C459.738 442.956 462.349 441.564 464.739 440.136C464.822 440.086 464.767 439.933 464.671 439.973C462.135 441.02 459.498 442.255 457.136 443.687C457.128 442.48 457.173 433.184 456.873 421.414C458.455 420.616 460.083 419.912 461.664 419.11C461.768 419.058 461.695 418.876 461.584 418.919C459.98 419.545 458.435 420.289 456.861 420.98C456.775 417.773 456.653 414.568 456.458 411.366C456.451 411.261 456.297 411.259 456.293 411.366C456.07 417.319 456.089 428.837 456.163 434.796C454.525 433.488 452.779 432.332 451.111 431.063C451.047 431.014 450.984 431.123 451.048 431.172C452.791 432.498 454.422 433.968 456.17 435.29C456.174 435.627 456.178 435.964 456.183 436.3C454.406 435.488 452.604 434.732 450.809 433.963C450.668 433.903 450.542 434.105 450.686 434.173C452.515 435.051 454.337 435.944 456.189 436.772C456.231 439.724 456.5 450.372 456.61 455.525C453.257 453.829 449.876 452.176 446.477 450.576C446.347 450.515 446.234 450.697 446.363 450.771C449.679 452.67 453.116 454.393 456.619 455.922C456.71 460.203 456.798 465.279 456.853 469.561C456.856 469.82 457.26 469.821 457.257 469.561C457.197 464.1 457.189 457.845 457.173 452.384C458.942 451.947 465.622 449.086 467.209 448.303C467.372 448.222 467.257 447.939 467.083 448.005Z" fill="#37474F"/>
<path d="M113.903 469.757H81.3488L85.1597 452.947C88.2341 452.748 92.0938 451.962 95.5586 449.7L85.4702 451.577L90.124 431.031C91.5438 430.361 92.9544 429.501 94.2677 428.392L90.4523 429.598L91.069 426.861C93.0299 425.992 95.0396 424.772 96.8097 423.064L91.4594 425.153L97.6216 397.958L101.104 413.326L97.9765 412.545C97.9765 412.545 99.2498 413.45 101.353 414.417L106.348 436.435L102.724 435.53C102.724 435.53 104.21 436.586 106.619 437.642L110.079 452.885L103.007 451.124C103.189 451.253 106.166 453.316 110.443 454.487L111.042 457.14L100.177 454.429C100.177 454.429 105.004 457.863 111.352 458.502L112.213 462.304L108.597 461.403C108.597 461.403 110.083 462.459 112.488 463.51L113.903 469.757Z" fill="#455A64"/>
<path d="M107.913 448.005C106.112 448.692 99.4426 451.408 98.0021 452.2C98.0014 451.896 97.9994 451.593 97.9986 451.289C99.6072 450.342 101.222 449.406 102.835 448.467C104.567 447.459 106.426 446.56 108.041 445.373C108.12 445.315 108.076 445.153 107.967 445.198C106.188 445.939 104.535 447.038 102.875 448.012C101.235 448.973 99.6137 449.964 97.9972 450.963C97.9901 448.642 97.9829 446.32 97.9676 443.999C100.567 442.956 103.178 441.564 105.569 440.136C105.652 440.086 105.596 439.933 105.5 439.973C102.964 441.02 100.327 442.255 97.9652 443.687C97.9571 442.48 98.0024 433.184 97.7023 421.414C99.2841 420.616 100.913 419.912 102.493 419.11C102.597 419.058 102.524 418.876 102.413 418.919C100.809 419.545 99.264 420.289 97.6901 420.98C97.6047 417.773 97.4821 414.568 97.2868 411.366C97.2805 411.261 97.1259 411.259 97.1219 411.366C96.8995 417.319 96.918 428.837 96.9927 434.796C95.3546 433.488 93.6079 432.332 91.9405 431.063C91.8761 431.014 91.8131 431.123 91.8771 431.172C93.6202 432.498 95.2509 433.968 96.9991 435.29C97.0034 435.627 97.0071 435.964 97.0119 436.3C95.2355 435.488 93.4331 434.732 91.6379 433.963C91.4973 433.903 91.3717 434.105 91.5153 434.173C93.344 435.051 95.1665 435.944 97.0185 436.772C97.0607 439.724 97.3294 450.372 97.4397 455.525C94.0866 453.829 90.7053 452.176 87.3059 450.576C87.1765 450.515 87.0637 450.697 87.1919 450.771C90.5083 452.67 93.9452 454.393 97.4478 455.922C97.5389 460.203 97.6276 465.279 97.6824 469.561C97.6856 469.82 98.089 469.821 98.0862 469.561C98.0267 464.1 98.0179 457.845 98.0028 452.384C99.7713 451.947 106.452 449.086 108.038 448.303C108.201 448.222 108.086 447.939 107.913 448.005Z" fill="#37474F"/>
<path d="M420.548 469.756H455.605L453.894 460.536C446.549 460.057 440.821 455.077 440.821 455.077L453.602 458.977L448.884 433.549C445.638 432.013 443.565 430.209 443.565 430.209L448.551 431.727L447.781 427.581C443.413 426.016 440.412 423.47 440.231 423.313L447.389 425.491L442.923 401.411C441.218 400.36 440.219 399.49 440.219 399.49L442.707 400.249L438.071 375.258L431.432 411.063L437.2 408.307C435.291 410.555 433.131 412.16 431.017 413.305V413.311L424.764 447.025L434.462 443.282C431.268 446.581 427.531 448.228 424.39 449.039L423.748 452.484L428.968 451.299C427.163 452.741 425.254 453.728 423.397 454.394L420.548 469.756Z" fill="#37474F"/>
<path d="M426.408 439.031C428.504 439.831 435.961 442.848 437.639 443.77C437.639 443.416 437.642 443.063 437.643 442.71C435.769 441.607 433.889 440.516 432.01 439.422C429.993 438.249 428.653 437.829 426.773 436.447C426.681 436.379 426.732 436.19 426.858 436.243C428.931 437.107 430.03 437.759 431.964 438.893C433.873 440.012 435.762 441.166 437.645 442.33C437.653 439.626 437.661 436.922 437.679 434.219C434.651 433.004 431.61 431.384 428.826 429.719C428.729 429.662 428.794 429.483 428.906 429.53C431.86 430.75 434.931 432.187 437.682 433.856C437.691 432.45 437.697 431.044 437.712 429.638C437.789 422.4 437.803 415.153 437.988 407.914C436.146 406.985 434.249 406.165 432.408 405.231C432.287 405.17 432.372 404.959 432.501 405.009C434.369 405.738 436.169 406.603 438.002 407.409C438.102 403.674 438.244 399.941 438.472 396.212C438.479 396.089 438.659 396.087 438.664 396.212C438.923 403.145 438.901 410.086 438.814 417.026C440.722 415.503 442.757 414.156 444.698 412.679C444.774 412.622 444.847 412.749 444.773 412.805C442.742 414.35 440.843 416.062 438.807 417.602C438.802 417.994 438.797 418.386 438.792 418.778C440.861 417.832 442.96 416.952 445.051 416.057C445.215 415.986 445.361 416.221 445.194 416.301C443.064 417.323 440.941 418.364 438.784 419.328C438.735 422.765 438.677 426.203 438.632 429.638C438.554 435.64 438.422 441.641 438.294 447.642C442.199 445.667 446.137 443.742 450.096 441.879C450.247 441.808 450.378 442.02 450.229 442.106C446.367 444.317 442.364 446.324 438.284 448.105C438.178 453.092 438.075 464.542 438.011 469.529C438.007 469.831 437.537 469.832 437.541 469.529C437.61 463.169 437.62 450.345 437.638 443.984C435.578 443.476 428.11 440.29 426.261 439.378C426.071 439.284 426.206 438.954 426.408 439.031Z" fill="#455A64"/>
<path d="M52.4296 469.756H87.4868L85.776 460.536C78.4305 460.057 72.7026 455.077 72.7026 455.077L85.4839 458.977L80.7661 433.549C77.5197 432.013 75.4468 430.209 75.4468 430.209L80.4333 431.727L79.6625 427.581C75.295 426.016 72.2938 423.47 72.1127 423.313L79.2713 425.491L74.8046 401.411C73.0995 400.36 72.1011 399.49 72.1011 399.49L74.5885 400.249L69.9524 375.258L63.3134 411.063L69.0823 408.307C67.173 410.555 65.0126 412.16 62.8989 413.305V413.311L56.6454 447.025L66.3439 443.282C63.1499 446.581 59.4129 448.228 56.2716 449.039L55.6294 452.484L60.8493 451.299C59.0451 452.741 57.1359 453.728 55.2791 454.394L52.4296 469.756Z" fill="#37474F"/>
<path d="M58.2897 439.031C60.3862 439.831 67.8427 442.848 69.5204 443.77C69.5213 443.416 69.5238 443.063 69.5248 442.71C67.6513 441.607 65.7706 440.516 63.8914 439.422C61.8748 438.249 60.5349 437.829 58.6544 436.447C58.5627 436.379 58.6136 436.19 58.7403 436.243C60.8132 437.107 61.9122 437.759 63.8458 438.893C65.7553 440.012 67.6436 441.166 69.5264 442.33C69.5345 439.626 69.5427 436.922 69.5606 434.219C66.5328 433.004 63.4922 431.384 60.7079 429.719C60.6112 429.662 60.6758 429.483 60.7878 429.53C63.7417 430.75 66.8125 432.187 69.5635 433.856C69.5732 432.45 69.5784 431.044 69.5935 429.638C69.6708 422.4 69.6852 415.153 69.8697 407.914C68.0274 406.985 66.1306 406.165 64.2897 405.231C64.1692 405.17 64.254 404.959 64.3832 405.009C66.2514 405.738 68.0507 406.603 69.884 407.409C69.9836 403.674 70.1262 399.941 70.3535 396.212C70.3611 396.089 70.5411 396.087 70.546 396.212C70.8047 403.145 70.783 410.086 70.696 417.026C72.6039 415.503 74.6384 414.156 76.5803 412.679C76.6553 412.622 76.7285 412.749 76.6544 412.805C74.6241 414.35 72.7248 416.062 70.6888 417.602C70.6837 417.994 70.6793 418.386 70.6738 418.778C72.7431 417.832 74.8421 416.952 76.9328 416.057C77.0965 415.986 77.2429 416.221 77.0758 416.301C74.9458 417.323 72.823 418.364 70.6661 419.328C70.617 422.765 70.5585 426.203 70.514 429.638C70.4357 435.64 70.3038 441.641 70.1758 447.642C74.0809 445.667 78.0191 443.742 81.9782 441.879C82.1291 441.808 82.2603 442.02 82.111 442.106C78.2486 444.317 74.2458 446.324 70.1661 448.105C70.06 453.092 69.9568 464.542 69.8929 469.529C69.8891 469.831 69.4192 469.832 69.4226 469.529C69.4918 463.169 69.5023 450.345 69.5197 443.984C67.46 443.476 59.9914 440.29 58.1433 439.378C57.9533 439.284 58.0874 438.954 58.2897 439.031Z" fill="#455A64"/>
<path d="M45.2581 469.757H70.8447L67.8496 456.545C65.4331 456.389 62.3995 455.771 59.6764 453.993L67.6055 455.468L63.9477 439.32C62.8319 438.794 61.7232 438.117 60.691 437.246L63.6897 438.194L63.205 436.043C61.6638 435.359 60.0843 434.4 58.693 433.058L62.8982 434.7L58.0549 413.326L55.3176 425.404L57.776 424.79C57.776 424.79 56.7752 425.502 55.1225 426.262L51.1962 443.567L54.0449 442.856C54.0449 442.856 52.8768 443.686 50.9836 444.516L48.2638 456.497L53.8219 455.112C53.6789 455.213 51.3392 456.835 47.9778 457.755L47.5071 459.84L56.0464 457.71C56.0464 457.71 52.2528 460.409 47.263 460.911L46.5865 463.899L49.4283 463.191C49.4283 463.191 48.2603 464.021 46.3704 464.848L45.2581 469.757Z" fill="#455A64"/>
<path d="M49.9667 452.661C51.3818 453.201 56.6239 455.335 57.756 455.958C57.7567 455.719 57.7582 455.481 57.7589 455.242C56.4946 454.498 55.2255 453.762 53.9573 453.024C52.5965 452.232 51.135 451.525 49.8658 450.592C49.8038 450.546 49.8382 450.419 49.9238 450.455C51.3226 451.038 52.6218 451.901 53.9265 452.666C55.2151 453.422 56.4894 454.2 57.7601 454.986C57.7656 453.161 57.7712 451.337 57.7832 449.512C55.7399 448.693 53.6881 447.599 51.8092 446.476C51.7439 446.437 51.7874 446.317 51.863 446.348C53.8565 447.171 55.9285 448.142 57.7851 449.267C57.7915 448.319 57.7559 441.013 57.9917 431.761C56.7486 431.134 55.4686 430.581 54.2263 429.951C54.1448 429.909 54.202 429.767 54.2892 429.801C55.5499 430.293 56.7643 430.877 58.0012 431.421C58.0685 428.9 58.1647 426.381 58.3182 423.864C58.3233 423.781 58.4448 423.78 58.4479 423.864C58.6227 428.543 58.6081 437.596 58.5495 442.279C59.837 441.251 61.2097 440.342 62.5203 439.345C62.571 439.307 62.6204 439.393 62.5702 439.431C61.2001 440.473 59.9185 441.628 58.5444 442.668C58.5411 442.932 58.5381 443.197 58.5344 443.461C59.9305 442.823 61.3471 442.229 62.7582 441.625C62.8686 441.577 62.9673 441.736 62.8545 441.79C61.4172 442.479 59.9847 443.182 58.5292 443.832C58.496 446.152 58.2848 454.521 58.1981 458.571C60.8334 457.238 63.491 455.939 66.1629 454.681C66.2646 454.634 66.3533 454.777 66.2525 454.835C63.6459 456.327 60.9448 457.681 58.1918 458.884C58.1202 462.248 58.0504 466.238 58.0074 469.603C58.0049 469.807 57.6878 469.808 57.69 469.603C57.7368 465.311 57.7436 460.395 57.7556 456.102C56.3655 455.759 51.115 453.511 49.8681 452.895C49.7397 452.832 49.8304 452.609 49.9667 452.661Z" fill="#37474F"/>
<path d="M405.152 469.757H430.738L427.743 456.545C425.327 456.389 422.293 455.771 419.57 453.993L427.499 455.468L423.841 439.32C422.725 438.794 421.617 438.117 420.585 437.246L423.583 438.194L423.099 436.043C421.557 435.359 419.978 434.4 418.587 433.058L422.792 434.7L417.948 413.326L415.211 425.404L417.67 424.79C417.67 424.79 416.669 425.502 415.016 426.262L411.09 443.567L413.939 442.856C413.939 442.856 412.77 443.686 410.877 444.516L408.157 456.497L413.716 455.112C413.572 455.213 411.233 456.835 407.871 457.755L407.401 459.84L415.94 457.71C415.94 457.71 412.146 460.409 407.157 460.911L406.48 463.899L409.322 463.191C409.322 463.191 408.154 464.021 406.264 464.848L405.152 469.757Z" fill="#455A64"/>
<path d="M409.86 452.661C411.275 453.201 416.517 455.335 417.65 455.958C417.65 455.719 417.652 455.481 417.652 455.242C416.388 454.498 415.119 453.762 413.851 453.024C412.49 452.232 411.029 451.525 409.759 450.592C409.697 450.546 409.732 450.419 409.817 450.455C411.216 451.038 412.515 451.901 413.82 452.666C415.109 453.422 416.383 454.2 417.654 454.986C417.659 453.161 417.665 451.337 417.677 449.512C415.633 448.693 413.582 447.599 411.703 446.476C411.637 446.437 411.681 446.317 411.757 446.348C413.75 447.171 415.822 448.142 417.679 449.267C417.685 448.319 417.649 441.013 417.885 431.761C416.642 431.134 415.362 430.581 414.12 429.951C414.038 429.909 414.096 429.767 414.183 429.801C415.443 430.293 416.658 430.877 417.895 431.421C417.962 428.9 418.058 426.381 418.212 423.864C418.217 423.781 418.338 423.78 418.341 423.864C418.516 428.543 418.502 437.596 418.443 442.279C419.731 441.251 421.103 440.342 422.414 439.345C422.465 439.307 422.514 439.393 422.464 439.431C421.094 440.473 419.812 441.628 418.438 442.668C418.435 442.932 418.432 443.197 418.428 443.461C419.824 442.823 421.241 442.229 422.652 441.625C422.762 441.577 422.861 441.736 422.748 441.79C421.311 442.479 419.878 443.182 418.423 443.832C418.39 446.152 418.178 454.521 418.092 458.571C420.727 457.238 423.385 455.939 426.056 454.681C426.158 454.634 426.247 454.777 426.146 454.835C423.539 456.327 420.838 457.681 418.085 458.884C418.014 462.248 417.944 466.238 417.901 469.603C417.898 469.807 417.581 469.808 417.584 469.603C417.63 465.311 417.637 460.395 417.649 456.102C416.259 455.759 411.009 453.511 409.762 452.895C409.633 452.832 409.724 452.609 409.86 452.661Z" fill="#37474F"/>
<path d="M292.409 159.65C280.142 176.5 268.312 190.984 259.651 198.394C248.795 207.683 230.216 223.711 225.693 227.903C219.737 233.424 246.575 261.315 250.868 257.759C256.656 252.963 274.221 233.199 284.283 216.078C291.959 203.016 298.961 183.185 303.704 165.712C308.472 148.143 298.604 151.139 292.409 159.65Z" fill="#F7A9A0"/>
<path d="M263.346 257.847C266.628 249.838 266.936 230.834 265.247 226.221C263.557 221.608 238.77 218.969 235.493 222.799C232.215 226.629 212.682 253.526 218.24 263.963C222.39 271.759 259.945 266.144 263.346 257.847Z" fill="#F7A9A0"/>
<path d="M257.282 210.948L58.1536 467.333L61.0368 469.757L263.322 215.865L257.282 210.948Z" fill="#C7C7C7"/>
<path d="M58.15 467.34L61.0316 469.754L85.0796 439.58L81.7781 436.916L58.15 467.34Z" fill="#263238"/>
<path d="M198.397 286.567L203.607 291.125L263.32 215.862L257.284 210.949L198.397 286.567Z" fill="#263238"/>
<path d="M81.7784 436.915L85.0798 439.58L120.334 395.332L116.55 392.146L81.7784 436.915Z" fill="#26A4C0"/>
<path d="M171.49 321.408L176.001 325.463L203.607 291.125L198.397 286.567L171.49 321.408Z" fill="#26A4C0"/>
<path d="M219.806 261.182C221.818 257.061 225.522 261.792 225.522 261.792C225.522 261.792 221.832 253.697 225.549 250.252C229.141 246.94 233.414 252.812 233.726 253.229C233.534 252.799 230.337 245.273 234.43 242.195C238.686 238.999 241.963 245.631 242.173 246.06C242.12 245.598 241.517 239.468 245.158 237.836C251.415 235.036 253.388 250.667 257.913 253.882C257.913 253.882 264.238 246.836 264.464 246.67C264.464 246.67 266.646 261.503 261.968 267.364C259.502 270.454 256.135 268.765 256.135 268.765C256.135 268.765 257.367 273.47 254.222 275.995C252.604 277.286 249.098 275.847 249.098 275.847C249.098 275.847 249.927 279.656 246.989 281.727C244.649 283.388 241.496 281.686 241.496 281.686C241.496 281.686 240.595 285.712 237.654 286.632C231.727 288.5 215.504 270.009 219.806 261.182Z" fill="#F7A9A0"/>
<path d="M240.956 281.493C241.015 281.55 240.947 281.644 240.877 281.596C234.058 276.816 228.031 269.475 225.295 261.557C225.205 261.297 225.588 261.039 225.742 261.306C230.122 268.928 234.617 275.343 240.956 281.493Z" fill="#263238"/>
<path d="M249.141 275.972C249.21 276.038 249.101 276.154 249.017 276.094C242.017 271.131 235.455 262.676 233.377 253.178C233.306 252.853 233.569 252.489 233.679 252.857C235.54 259.068 243.406 270.465 249.141 275.972Z" fill="#263238"/>
<path d="M242.257 245.348C244.601 254.377 249.605 261.747 255.833 268.578C255.914 268.667 255.78 268.773 255.692 268.717C251.734 266.205 248.219 261.437 245.798 257.496C243.478 253.721 242.144 249.849 241.941 245.429C241.933 245.258 242.207 245.154 242.257 245.348Z" fill="#263238"/>
<path d="M225.522 261.791C224.965 260.165 224.53 258.498 224.282 256.817C224.054 255.153 224.004 253.383 224.631 251.927C224.945 251.212 225.464 250.627 226.15 250.316C226.85 250.006 227.642 249.833 228.389 249.912C229.896 250.039 231.267 251.129 232.13 252.349L234.302 255.418L233.329 251.78C232.904 250.192 232.679 248.455 232.794 246.825C232.905 245.198 233.448 243.606 234.63 242.718C235.848 241.766 237.366 241.65 238.584 242.567C239.823 243.423 240.813 244.9 241.486 246.346L243.365 250.385L242.912 245.973C242.789 244.778 242.809 243.484 243.001 242.285C243.201 241.089 243.6 239.911 244.357 239.126C245.095 238.354 246.266 237.978 247.23 238.319C248.249 238.663 249.134 239.621 249.881 240.609C251.383 242.646 252.467 245.033 253.66 247.344C254.249 248.508 254.839 249.677 255.486 250.818C256.144 251.935 256.829 253.122 257.913 253.882C256.921 253.02 256.386 251.798 255.806 250.651C255.254 249.476 254.758 248.274 254.26 247.069C253.263 244.659 252.233 242.244 250.758 239.987C249.989 238.898 249.117 237.742 247.666 237.14C246.163 236.531 244.435 237.08 243.381 238.168C242.301 239.273 241.848 240.696 241.594 242.041C241.358 243.414 241.313 244.749 241.434 246.147L242.86 245.774C242.079 244.06 241.101 242.475 239.476 241.276C238.674 240.691 237.6 240.309 236.523 240.389C235.44 240.465 234.495 240.909 233.699 241.532C232.051 242.834 231.467 244.913 231.372 246.731C231.279 248.602 231.54 250.387 232.045 252.172L233.244 251.602C232.094 250.089 230.432 248.937 228.46 248.833C227.488 248.791 226.561 249.049 225.718 249.478C224.849 249.92 224.195 250.743 223.869 251.614C223.225 253.394 223.493 255.211 223.836 256.898C224.208 258.597 224.787 260.234 225.522 261.791Z" fill="#263238"/>
<path d="M228.891 225.552C228.891 225.552 213.848 233.944 213.833 240.823C213.81 251.375 207.51 268.522 211.198 269.081C217.704 270.065 224.355 258.883 225.987 245.393C225.987 245.393 236.277 240.186 234.788 231.94C233.854 226.769 228.891 225.552 228.891 225.552Z" fill="#F7A9A0"/>
<path d="M211.198 269.081C220.883 270.058 225.885 253.028 226.583 245.466L226.258 245.929C228.84 244.472 231.113 242.586 232.862 240.199C234.608 237.863 235.489 234.797 234.788 231.94C235.089 234.811 234.031 237.534 232.23 239.714C230.393 241.917 227.964 243.698 225.435 245C224.458 252.365 220.379 268.952 211.198 269.081Z" fill="#263238"/>
<path d="M282.23 226.491L256.666 193.231C256.666 193.231 279.623 171.456 292.1 158.402C304.576 145.348 312.113 145.952 306.564 168.182C301.015 190.412 282.23 226.491 282.23 226.491Z" fill="#26A4C0"/>
<path opacity="0.1" d="M266.626 206.189L282.234 226.486C282.234 226.486 301.021 190.418 306.564 168.189C309.736 155.448 308.625 149.809 304.748 149.769L266.626 206.189Z" fill="black"/>
<path d="M265.569 253.242C268.812 250.538 268.735 243.842 265.359 234.873C260.55 222.095 248.425 204.565 238.045 204.565C237.969 204.565 237.893 204.566 237.818 204.568C235.866 204.616 234.182 205.397 232.812 206.887C227.906 212.224 228.606 225.019 228.639 225.561L229.992 225.48C229.984 225.353 229.293 212.717 233.81 207.803C234.938 206.578 236.259 205.962 237.851 205.923C237.913 205.921 237.975 205.92 238.038 205.92C246.873 205.92 258.822 221.354 264.091 235.351C267.205 243.623 267.432 249.923 264.7 252.202L265.569 253.242Z" fill="#C7C7C7"/>
<path d="M232.286 469.091C235.36 470.123 323.387 470.205 326.747 468.087C328.025 467.29 329.717 451.743 329.938 436.221C330.051 428.315 323.571 381.493 323.571 381.493L269.593 381.337L274.26 438.88C274.26 438.88 238.792 453.78 235.358 456.499C231.942 459.218 229.212 468.059 232.286 469.091Z" fill="#F7A9A0"/>
<path d="M329.609 446.406C328.996 457.915 327.753 467.461 326.741 468.086C323.391 470.2 235.366 470.124 232.285 469.095C229.204 468.065 231.941 459.215 235.352 456.496C237.206 455.035 248.241 450.073 258.09 445.786C246.926 451.352 238.504 457.389 260.535 456.301C281.164 455.28 318.321 448.528 329.609 446.406Z" fill="#263238"/>
<path d="M258.09 445.786C258.09 445.786 272.448 441.384 283.732 453.938L258.09 445.786Z" fill="#263238"/>
<path d="M329.218 425.942L272.937 425.141C272.937 425.141 265.6 353.728 266.301 329.236C266.91 307.989 274.624 225.389 274.624 225.389L322.777 225.387C322.777 225.387 321.678 282.948 320.82 306.538C320.279 321.387 329.218 425.942 329.218 425.942Z" fill="#263238"/>
<path opacity="0.1" d="M325.412 379.444L274.624 225.392L322.776 225.392C322.776 225.392 321.68 282.945 320.824 306.542C320.616 312.368 323.748 362.794 325.412 379.444Z" fill="black"/>
<path d="M366.82 469.012C369.899 467.995 440.404 415.291 441.823 411.581C442.369 410.177 434.403 396.719 425.275 384.163C420.626 377.767 391.587 342.579 391.587 342.579L347.529 371.216L382.304 419.669C382.304 419.669 362.849 452.857 361.73 457.091C360.625 461.316 363.741 470.029 366.82 469.012Z" fill="#F7A9A0"/>
<path d="M431.117 392.511C437.526 402.091 442.253 410.476 441.818 411.583C440.404 415.284 369.904 467.993 366.821 469.016C363.737 470.039 360.623 461.314 361.723 457.093C362.331 454.813 368.189 444.226 373.502 434.89C367.903 446.037 364.781 455.918 381.762 441.84C397.661 428.657 423.354 400.977 431.117 392.511Z" fill="#263238"/>
<path d="M373.503 434.89C373.503 434.89 382.355 422.76 398.913 426.043L373.503 434.89Z" fill="#263238"/>
<path d="M413.275 369.059L370.998 403.915C370.998 403.915 323.552 349.1 316.159 336.959C306.515 321.122 299.219 267.322 299.219 267.322L286.919 265.196C278.545 259.909 275.592 232.821 274.624 225.389L346.832 225.505C346.832 225.505 353.845 242.642 356.137 253.176C357.064 257.439 356.843 261.976 356.185 266.321C356.185 266.321 365.552 309.96 368.204 313.681C370.427 316.8 413.275 369.059 413.275 369.059Z" fill="#263238"/>
<path d="M394.726 222.825C398.267 233.666 404.823 240.093 407.637 242.052C410.45 244.011 418.758 246.347 418.924 246.846C419.09 247.344 413.647 252.852 413.276 253.028C412.904 253.204 405.791 249.324 400.965 245.623C396.139 241.922 390.858 225.706 390.858 225.706L394.726 222.825Z" fill="#263238"/>
<path d="M355.666 241.856C351.205 238.751 346.352 217.627 336.947 196.318C327.543 175.01 314.833 149.614 315.943 147.767C317.604 145 333.255 144.844 339.855 148.827C348.229 153.881 364.205 170.842 364.205 170.842C364.205 170.842 372.641 174.362 375.183 178.175C375.85 179.175 377.529 182.608 379.64 187.159C380.23 188.432 385.562 191.244 386.207 192.663C389.911 200.812 393.57 208.318 396.246 214.887C397.79 218.676 394.79 222.422 394.726 222.825C394.463 224.482 392.928 240.218 390.875 242.303C388.821 244.388 373.758 254.452 355.666 241.856Z" fill="#455A64"/>
<g opacity="0.8">
<path d="M360.231 232.533C359.249 229.284 359.562 230.308 358.591 227.057C357.639 223.869 356.563 220.692 355.732 217.481C355.636 217.111 355.558 216.806 355.976 216.537C356.621 216.122 357.866 215.988 358.624 215.793C360.832 215.226 363.055 214.698 365.291 214.211C369.909 213.206 375.127 212.137 379.837 211.528C380.279 211.471 380.429 211.999 379.98 212.066C372.705 213.155 364.954 214.728 357.89 216.582C357.5 216.685 356.593 216.824 356.406 217.162C356.363 217.239 356.616 217.849 356.623 217.87C356.839 218.579 357.056 219.287 357.273 219.995C357.707 221.412 358.14 222.829 358.574 224.246C359.441 227.079 359.032 225.636 359.899 228.47C360.296 229.768 360.695 231.067 361.087 232.366C361.302 233.075 361.515 233.784 361.73 234.493C361.837 234.844 361.918 235.212 362.054 235.556C362.334 236.263 362.588 236.542 363.504 236.76C365.023 237.123 366.694 237.263 368.255 237.507C370.02 237.784 371.785 238.06 373.55 238.337C374.397 238.469 375.502 238.805 376.374 238.734C377.349 238.654 378.166 237.565 378.762 237.015L384.241 231.961C384.707 231.531 385.345 230.712 385.594 230.174C385.922 229.462 381.349 214.684 379.828 211.718C379.759 211.583 380.18 211.444 380.248 211.58C381.659 214.383 386.698 228.319 386.841 229.792C386.962 231.043 385.842 231.865 384.865 232.759C383.49 234.018 382.115 235.277 380.74 236.535C380.027 237.188 379.324 237.848 378.597 238.491C378.092 238.938 377.595 239.407 376.814 239.511C376.147 239.6 375.423 239.411 374.789 239.307C373.762 239.14 372.734 238.976 371.706 238.811L365.76 237.853C364.446 237.641 362.384 237.627 361.598 236.624C361.232 236.158 361.139 235.543 360.981 235.014C360.732 234.187 360.481 233.36 360.231 232.533Z" fill="#263238"/>
<path d="M356.901 218.259C361.188 219.37 365.486 220.448 369.864 221.343C370.428 221.459 370.992 221.582 371.562 221.682C372.673 221.876 373.091 221.654 373.793 220.973C374.483 220.303 375.139 219.61 375.824 218.937C377.395 217.394 378.991 215.868 380.574 214.333C380.692 214.219 380.931 214.325 380.818 214.452C379.209 216.265 377.603 218.076 375.936 219.857C374.798 221.071 373.804 222.754 371.648 222.377C369.196 221.948 366.779 221.265 364.407 220.64C361.853 219.968 359.32 219.214 356.85 218.381C356.759 218.35 356.802 218.233 356.901 218.259Z" fill="#263238"/>
<path d="M371.042 219.851C371.049 219.573 371.127 219.262 371.422 219.077C371.767 218.861 372.225 218.901 372.602 219.015C372.773 219.067 372.683 219.289 372.509 219.237C372.355 219.19 372.195 219.15 372.027 219.184C371.954 219.2 371.884 219.225 371.828 219.266C371.797 219.289 371.752 219.341 371.745 219.353C371.711 219.408 371.685 219.472 371.662 219.53C371.649 219.56 371.638 219.592 371.631 219.623C371.638 219.594 371.625 219.656 371.624 219.662C371.602 219.794 371.591 219.943 371.611 220.075C371.647 220.304 371.849 220.508 372.137 220.572C372.307 220.609 372.465 220.565 372.566 220.446C372.677 220.316 372.693 220.158 372.701 220.008C372.703 219.97 372.782 219.961 372.787 220.001C372.822 220.254 372.804 220.546 372.51 220.714C372.217 220.882 371.798 220.796 371.538 220.646C371.224 220.465 371.034 220.165 371.042 219.851Z" fill="#263238"/>
</g>
<path d="M379.92 187.88C379.92 187.88 385.052 201.373 385.306 202.761C385.56 204.149 391.088 219.104 392.311 219.9C393.535 220.697 394.103 221.479 394.103 221.479" fill="#263238"/>
<path d="M364.205 170.842C364.205 170.842 372.858 187.8 373.55 188.969C374.242 190.139 381.614 205.969 382.626 207.305C383.638 208.641 386.077 211.447 386.717 211.779" fill="#263238"/>
<path d="M354.484 244.387C354.507 244.335 272.889 243.833 272.889 243.833C272.832 243.75 265.458 239.211 266.785 231.911C269.847 215.073 279.402 182.534 293.625 158.141C300.208 146.85 315.251 142.244 323.533 156.032C344.264 190.544 354.384 216.43 356.649 230.991C358.008 239.727 354.484 244.387 354.484 244.387Z" fill="#26A4C0"/>
<path opacity="0.1" d="M291.872 212.806C291.872 212.806 298.441 207.334 303.061 200.877C307.682 194.421 308.602 185.79 305.597 182.913C300.263 177.805 294.334 192.868 294.334 192.868C294.334 192.868 293.494 178.608 289.072 181.391C281.821 185.956 291.872 212.806 291.872 212.806Z" fill="black"/>
<path d="M355.382 225.697C354.339 224.665 321.823 184.606 317.031 163.142C313.885 149.045 325.251 151.364 325.251 151.364L323.399 147.205C323.399 147.205 319.334 145.237 311.581 151.909C297.411 164.104 334.054 222.422 356.294 234.544L355.382 225.697Z" fill="#263238"/>
<path d="M369.625 302.418L297.996 281.922L300.849 271.951L372.478 292.447L369.625 302.418Z" fill="#26A4C0"/>
<path d="M372.478 292.447L300.849 271.951L312.772 230.283L384.401 250.779L372.478 292.447Z" fill="#26A4C0"/>
<path opacity="0.3" d="M372.478 292.447L300.849 271.951L312.772 230.283L384.401 250.779L372.478 292.447Z" fill="black"/>
<path d="M369.921 301.383L298.292 280.887L300.553 272.986L372.182 293.482L369.921 301.383Z" fill="white"/>
<path d="M304.724 275.938C326.245 282.436 350.014 289.241 371.716 295.107C350.196 288.606 326.425 281.807 304.724 275.938Z" fill="#DBDBDB"/>
<path d="M304.28 277.488C325.801 283.986 349.57 290.791 371.272 296.657C349.752 290.156 325.981 283.357 304.28 277.488Z" fill="#DBDBDB"/>
<path d="M303.836 279.038C325.357 285.536 349.127 292.341 370.829 298.208C349.309 291.706 325.538 284.907 303.836 279.038Z" fill="#DBDBDB"/>
<path d="M303.393 280.588C324.914 287.087 348.684 293.891 370.386 299.758C348.865 293.257 325.094 286.458 303.393 280.588Z" fill="#DBDBDB"/>
<path d="M328.733 157.585C347.457 174.065 371.308 204.672 371.397 212.586C371.62 232.409 370.504 250.98 367.402 260.958C365.342 267.586 325.412 255.753 327.341 249.891C330.212 241.169 336.489 217.498 337.561 214.092C338.133 212.275 326.96 188.527 320.345 172.319C313.279 155.006 322.714 152.287 328.733 157.585Z" fill="#F7A9A0"/>
<path d="M314.896 295.55C318.406 298.306 322.218 295.696 322.218 295.696C322.218 295.696 323.332 299.08 326.366 300.664C329.841 302.477 334.209 297.823 334.209 297.823C334.209 297.823 336.045 301.015 339.419 302.365C342.919 303.766 347.996 299.698 347.996 299.698C347.996 299.698 351.34 301.732 355.093 300.807C361.509 299.226 364.885 289.598 366.261 283.332C367.91 275.827 368.854 256.436 369.254 252.787L330.458 241.102C330.458 241.102 313.46 265.716 312.05 273.204C310.862 279.511 310.957 292.458 314.896 295.55Z" fill="#F7A9A0"/>
<path d="M322.08 295.509C321.734 288.5 323.479 281.77 324.84 274.953C324.87 274.801 325.107 274.851 325.075 275.003C323.643 281.766 323.573 288.727 322.413 295.533C322.381 295.721 322.089 295.698 322.08 295.509Z" fill="#263238"/>
<path d="M333.744 297.521C333.713 295.933 334.207 294.34 334.591 292.812C335.006 291.168 335.449 289.532 335.917 287.902C336.855 284.64 337.867 281.398 338.973 278.189C339.022 278.047 339.252 278.087 339.209 278.239C338.28 281.492 337.4 284.759 336.609 288.048C336.213 289.694 335.832 291.344 335.461 292.996C335.116 294.532 334.88 296.182 334.199 297.615C334.098 297.826 333.748 297.761 333.744 297.521Z" fill="#263238"/>
<path d="M348.032 299.56C347.949 298.181 348.617 296.664 349.021 295.362C349.479 293.884 349.929 292.404 350.371 290.921C351.254 287.957 352.135 284.992 352.915 281.998C352.954 281.849 353.189 281.897 353.15 282.048C352.374 285.094 351.639 288.149 350.836 291.188C350.442 292.681 350.039 294.17 349.628 295.658C349.279 296.923 348.986 298.544 348.179 299.61C348.133 299.67 348.036 299.629 348.032 299.56Z" fill="#263238"/>
<path d="M374.608 204.968L333.572 213.672C333.572 213.672 323.838 183.565 317.447 166.677C311.056 149.788 314.854 143.25 332.513 157.85C350.171 172.45 374.608 204.968 374.608 204.968Z" fill="#26A4C0"/>
<path d="M337.381 212.864C336.093 213.048 334.814 213.271 333.532 213.48L333.758 213.61C331.228 205.032 328.446 196.534 325.371 188.138C324.355 185.337 323.309 182.546 322.187 179.783C322.963 182.668 323.815 185.526 324.696 188.373C327.314 196.922 330.224 205.368 333.387 213.734L333.452 213.906C334.762 213.562 336.076 213.234 337.381 212.864Z" fill="#263238"/>
<path d="M335.904 77.0907C335.904 77.0907 346.455 78.8598 350.017 87.2367C353.578 95.6137 348.816 101.343 341.085 105.134C333.354 108.924 322.127 110.022 317.127 103.494C309.145 93.0711 318.939 78.7983 325.472 77.1382C332.004 75.4782 335.904 77.0907 335.904 77.0907Z" fill="#263238"/>
<path d="M335.904 77.0907C343.323 79.646 353.791 85.0211 351.664 94.3987C349.801 100.728 342.276 104.483 336.578 106.904C342.967 105.324 351.018 101.602 353.063 94.7763C355.636 84.6324 344.339 78.4751 335.904 77.0907Z" fill="#263238"/>
<path d="M348.038 102.616C348.038 102.616 355.074 103.557 358.279 111.096C361.485 118.635 357.199 123.792 350.241 127.203C343.283 130.615 331.261 132.048 327.772 122.366C323.766 111.25 332.958 102.496 338.837 101.002C344.716 99.5079 348.038 102.616 348.038 102.616Z" fill="#263238"/>
<path d="M345.578 101.965C352.204 104.319 361.584 109.12 359.693 117.523C357.996 123.226 351.304 126.558 346.185 128.797C351.997 127.401 359.213 124.097 361.091 117.901C363.428 108.733 353.22 103.146 345.578 101.965Z" fill="#263238"/>
<path d="M353.791 145.954C353.791 145.954 347.995 147.421 343.128 142.529C338.261 137.636 339.999 132.262 344.372 127.416C348.744 122.57 359.022 118.451 364.357 125.284C369.493 131.861 365.622 141.327 361.492 144.336C357.362 147.345 353.791 145.954 353.791 145.954Z" fill="#263238"/>
<path d="M355.919 145.693C350.045 145.817 341.287 145.028 340.125 137.932C339.688 132.926 343.794 128.33 347.045 124.9C342.843 127.789 338.228 132.593 338.686 138.101C339.72 146.069 349.538 147.286 355.919 145.693Z" fill="#263238"/>
<path d="M365.922 164.504C365.922 164.504 366.684 164.351 367.844 163.959C364.111 159.842 363.733 156.37 363.733 156.37C365.819 159.528 368.705 161.585 370.729 162.745C372.483 161.852 374.413 160.561 375.964 158.729C379.806 154.181 381.125 148.464 381.125 148.464C373.841 141.136 367.507 140.254 364.625 140.312C363.558 140.331 362.962 140.482 362.962 140.482L356.196 145.212C355.156 155.846 365.922 164.504 365.922 164.504Z" fill="#263238"/>
<path d="M362.662 140.891C368.624 139.325 374.666 141.388 379.414 145.035C380.096 145.562 380.751 146.127 381.46 146.649C380.91 145.975 380.337 145.307 379.732 144.668C375.444 140.316 368.35 137.994 362.662 140.891Z" fill="#263238"/>
<path d="M322.211 81.6964C326.609 79.6003 331.393 81.8358 334.441 88.2315C338.033 95.7704 334.159 101.316 329.76 103.412C325.362 105.508 320.659 101.513 318.288 94.0212C316.337 87.8548 317.16 84.1031 322.211 81.6964Z" fill="#26A4C0"/>
<path d="M308.435 146.054C317.788 145.078 318.632 155.711 314.485 165.039C310.337 174.367 304.601 176.898 302.253 176.961C299.905 177.025 298.409 166.939 298.409 166.939C298.409 166.939 294.343 174.49 291.161 173.642C287.979 172.794 292.754 147.689 308.435 146.054Z" fill="white"/>
<path d="M314.772 149.334C314.595 151.289 307.287 164.845 298.578 165.654C295.741 165.913 293.637 150.493 293.637 150.493L293.221 149.39L287.416 133.948L306.939 117.331C306.939 117.331 314.835 148.505 314.772 149.334Z" fill="#F7A9A0"/>
<path d="M287.42 133.953L293.228 149.385L293.639 150.497C293.639 150.497 294.025 153.288 294.678 156.473C306.22 153.063 310.379 143.448 311.873 137.005C309.646 127.992 306.938 117.332 306.938 117.332L287.42 133.953Z" fill="#263238"/>
<path d="M262.442 102.667C250.304 135.863 268.816 146.881 275.978 149.491C282.478 151.859 304.914 159.099 320.417 127.335C335.919 95.5702 324.322 79.4331 309.741 73.2291C295.159 67.0247 274.579 69.4705 262.442 102.667Z" fill="#F7A9A0"/>
<path d="M268.502 103.712C269.324 103.857 270.107 103.854 270.935 103.913C271.869 103.979 272.607 104.128 273.455 103.643C273.911 103.384 274.103 102.638 273.892 102.172C273.401 101.087 272.277 100.721 271.155 100.595C269.938 100.458 268.965 100.664 267.937 101.325C266.941 101.966 267.417 103.521 268.502 103.712Z" fill="#263238"/>
<path d="M291.487 110.404C290.742 110.026 290.119 109.553 289.421 109.102C288.634 108.594 287.956 108.271 287.568 107.373C287.361 106.892 287.655 106.18 288.103 105.935C289.148 105.362 290.266 105.745 291.238 106.318C292.293 106.94 292.947 107.689 293.372 108.835C293.784 109.946 292.468 110.903 291.487 110.404Z" fill="#263238"/>
<path d="M280.405 134.266C279.72 134.69 278.99 135.322 278.121 135.204C277.288 135.09 276.413 134.507 275.728 134.05C275.661 134.004 275.568 134.066 275.6 134.147C276.009 135.185 277.166 136.035 278.297 136.088C279.401 136.139 280.133 135.338 280.607 134.423C280.674 134.295 280.505 134.204 280.405 134.266Z" fill="#263238"/>
<path d="M273.102 123.149C273.102 123.149 271.643 126.471 271.179 128.102C271.137 128.255 271.511 128.44 272.055 128.629C272.079 128.645 272.091 128.66 272.118 128.649C274.871 129.916 278.053 129.746 280.471 127.892C280.629 127.764 280.47 127.537 280.292 127.597C277.694 128.565 275.202 128.298 272.636 127.615C272.649 127.13 275.341 121.946 275.073 121.916C273.936 121.791 271.889 121.73 271.131 121.703C272.03 119.523 274.889 113.462 276.52 109.489C276.622 109.241 276.252 109.047 276.124 109.263C272.771 114.955 271.112 117.972 269.063 122.623C268.903 122.986 272.371 123.241 273.102 123.149Z" fill="#263238"/>
<path d="M284.618 115.992C284.666 115.916 284.748 116.157 284.712 116.245C283.832 118.368 283.182 120.949 284.857 122.397C284.909 122.442 284.862 122.548 284.793 122.511C282.546 121.281 283.444 117.863 284.618 115.992Z" fill="#263238"/>
<path d="M289.237 116.673C289.125 117.091 288.954 117.495 288.764 117.873C288.783 118.226 288.854 118.572 288.964 118.873C289.217 119.539 289.686 120.037 290.378 120.123C291.761 120.296 292.672 119.039 293.087 117.695C293.12 117.597 293.074 117.525 293.002 117.571C292.27 118.15 291.445 118.716 290.689 118.4C290.036 118.138 289.719 117.275 289.283 116.712C289.27 116.706 289.263 116.686 289.244 116.692L289.237 116.673Z" fill="#263238"/>
<path d="M283.675 118.3C283.564 118.873 283.582 119.513 283.812 120.155C284.042 120.796 284.631 121.312 285.263 121.561C285.916 121.817 286.751 121.676 287.291 121.295C287.831 120.913 288.227 120.437 288.507 119.92C288.687 119.594 288.826 119.253 288.954 118.909C289.214 118.174 289.344 117.408 289.248 116.648C289.088 117.193 288.867 117.705 288.601 118.179C288.354 118.635 288.084 119.05 287.787 119.443C287.161 120.253 286.346 120.823 285.63 120.51C284.85 120.247 284.508 119.415 284.54 118.381C284.566 117.368 284.785 116.303 285.032 115.223C284.367 116.114 283.877 117.147 283.675 118.3Z" fill="#263238"/>
<path d="M272.016 111.923C272.021 111.834 271.814 111.98 271.792 112.072C271.259 114.309 270.272 116.781 268.066 116.971C267.997 116.977 267.974 117.09 268.051 117.1C270.592 117.422 271.869 114.127 272.016 111.923Z" fill="#263238"/>
<path d="M267.875 109.766C267.721 110.169 267.622 110.597 267.555 111.015C267.333 111.29 267.072 111.529 266.807 111.707C266.211 112.099 265.539 112.227 264.928 111.891C263.706 111.22 263.706 109.667 264.158 108.335C264.189 108.237 264.268 108.205 264.299 108.284C264.553 109.183 264.889 110.125 265.687 110.313C266.369 110.483 267.132 109.971 267.815 109.771C267.83 109.773 267.847 109.761 267.859 109.777L267.875 109.766Z" fill="#263238"/>
<path d="M271.426 114.345C271.18 114.875 270.789 115.383 270.227 115.768C269.665 116.152 268.885 116.225 268.228 116.055C267.548 115.88 266.955 115.276 266.741 114.651C266.528 114.025 266.486 113.406 266.562 112.824C266.608 112.454 266.695 112.097 266.793 111.743C267.014 110.996 267.358 110.299 267.881 109.739C267.692 110.275 267.569 110.819 267.507 111.359C267.44 111.874 267.415 112.367 267.425 112.859C267.457 113.883 267.783 114.823 268.547 114.99C269.333 115.234 270.097 114.76 270.678 113.904C271.251 113.068 271.699 112.077 272.131 111.058C272.148 112.17 271.939 113.293 271.426 114.345Z" fill="#263238"/>
<path d="M318.868 130.334C312.02 125.142 313.367 117.108 313.367 117.108C304.774 111.073 301.218 102.641 300.846 101.784C300.928 102.542 301.511 108.014 301.896 110.793C280.926 102.106 277.696 83.9741 277.696 83.9741C269.125 89.5459 266.757 93.7672 265.256 95.8061C265.256 95.8061 267.923 82.3781 276.703 74.8633C287.448 65.6602 298.508 70.1717 298.508 70.1717C298.508 70.1717 316.535 68.7018 326.685 85.8048C337.605 104.247 318.868 130.334 318.868 130.334Z" fill="#263238"/>
<path d="M286.065 103.677C289.129 106.368 292.718 108.506 296.396 110.153C296.427 110.167 296.444 110.12 296.416 110.105C290.632 107.065 285.79 102.676 282.435 97.0334C281.016 94.649 279.898 92.1163 279.113 89.4547C278.291 86.6725 277.605 83.4203 277.968 80.5184C277.996 80.2984 277.653 80.2554 277.625 80.4766C277.241 83.5441 276.919 86.3786 277.542 89.4455C278.133 92.3565 279.268 95.191 280.867 97.6963C282.296 99.9356 284.069 101.923 286.065 103.677Z" fill="#263238"/>
<path opacity="0.9" d="M274.962 110.894C275.933 106.687 271.284 104.814 266.902 103.802C263.166 102.94 260.18 103.323 258.839 104.626C255.356 108.009 255.5 121.268 260.864 122.506C265.815 123.649 273.33 117.963 274.962 110.894Z" fill="#263238"/>
<g opacity="0.2">
<path d="M272.9 106.141L256.616 110.821C256.726 109.543 256.982 108.346 257.315 107.312L268.285 104.16C270.006 104.635 271.664 105.265 272.9 106.141Z" fill="#455A64"/>
<path d="M273.387 114.846L257.671 119.363C257.447 118.904 257.271 118.401 257.116 117.861L274.31 112.92C274.057 113.592 273.731 114.224 273.387 114.846Z" fill="#455A64"/>
<path d="M274.208 107.319L256.503 112.407C256.49 112.257 256.496 112.116 256.502 111.976L273.894 106.978C274.02 107.096 274.128 107.203 274.208 107.319Z" fill="#455A64"/>
</g>
<path d="M261.492 122.859C263.83 123.112 266.695 122.065 269.311 119.972C272.278 117.596 274.425 114.308 275.2 110.949C276.008 107.447 273.312 105.03 266.958 103.563C263.225 102.703 260.126 103.033 258.668 104.451C256.385 106.667 255.526 113.061 256.865 117.863C257.64 120.64 259.003 122.328 260.809 122.744C261.031 122.796 261.259 122.834 261.492 122.859ZM274.723 110.839C273.972 114.092 271.888 117.281 269.004 119.588C266.244 121.798 263.227 122.799 260.919 122.267C259.322 121.899 258.05 120.288 257.337 117.731C256.062 113.159 256.874 106.875 259.01 104.801C260.328 103.521 263.329 103.229 266.847 104.04C272.881 105.433 275.457 107.657 274.723 110.839Z" fill="#263238"/>
<path d="M300.445 115.699C300.445 115.699 323.148 122.791 324.446 123.126C325.745 123.461 330.237 131.694 329.799 132.209C329.361 132.723 328.413 134.099 327.728 133.861C327.044 133.624 323.89 125.975 323.588 125.486C323.285 124.998 304.542 120.246 303.78 120.218C303.018 120.191 300.616 122.296 300.616 122.296C300.616 122.296 302.731 118.105 300.445 115.699Z" fill="#263238"/>
<path opacity="0.9" d="M279.022 111.726C280.461 107.655 286.903 109.104 292.519 111.089C297.306 112.781 300.484 115.013 301.226 116.941C303.154 121.949 294.961 132.722 288.087 130.293C281.743 128.05 276.605 118.565 279.022 111.726Z" fill="#263238"/>
<g opacity="0.2">
<path d="M295.685 128.528C293.559 130.123 291.126 131.023 288.79 130.494L295.685 128.528Z" fill="#455A64"/>
<path d="M300.616 122.296L283.48 127.221C283.057 126.819 282.664 126.363 282.3 125.898L301.255 120.451C301.118 121.044 300.896 121.662 300.616 122.296Z" fill="#455A64"/>
<path d="M301.469 118.036L280.95 123.933C280.871 123.817 280.773 123.691 280.714 123.539L301.403 117.593C301.444 117.735 301.457 117.886 301.469 118.036Z" fill="#455A64"/>
<path d="M289.642 110.175L278.615 113.344C278.704 112.795 278.839 112.248 279.029 111.732C279.041 111.667 279.082 111.594 279.112 111.539L286.501 109.416C287.523 109.599 288.579 109.849 289.642 110.175Z" fill="#455A64"/>
</g>
<path d="M289.419 130.844C292.049 131.128 295.009 129.816 297.595 127.156C300.844 123.815 302.467 119.482 301.455 116.853C300.656 114.777 297.346 112.535 292.601 110.859C284.506 107.999 279.988 108.255 278.791 111.644C276.263 118.797 281.839 128.343 288.006 130.524C288.463 130.686 288.934 130.792 289.419 130.844ZM285.119 109.453C287.077 109.664 289.512 110.286 292.438 111.32C296.98 112.926 300.261 115.113 300.997 117.029C301.929 119.449 300.316 123.656 297.244 126.814C294.317 129.823 290.923 131.032 288.169 130.062C282.204 127.954 276.809 118.722 279.253 111.807C279.933 109.886 281.868 109.102 285.119 109.453Z" fill="#263238"/>
<path d="M283.533 109.033C284.977 108.97 278.634 108.5 277.336 107.991C276.039 107.483 272.899 106.141 272.899 106.141C272.899 106.141 276.022 107.318 274.653 112.004C274.653 112.004 275.695 110.599 276.687 110.932C277.68 111.265 278.495 114.014 278.495 114.014C278.495 114.014 278.752 109.243 283.533 109.033Z" fill="#263238"/>
<path d="M314.209 127.955C314.209 127.955 324.535 119.318 328.65 123.28C332.764 127.241 322.992 141.166 316.747 141.745C310.503 142.323 309.854 136.553 309.854 136.553L314.209 127.955Z" fill="#F7A9A0"/>
<path d="M325.749 127.201C325.843 127.218 325.826 127.351 325.738 127.361C321.324 127.898 318.233 131.02 315.733 134.449C317.314 133.297 319.143 132.925 320.734 134.866C320.818 134.968 320.674 135.104 320.569 135.05C319.034 134.26 317.782 134.225 316.328 135.233C315.299 135.946 314.45 136.97 313.603 137.886C313.321 138.192 312.731 137.828 312.976 137.455C312.995 137.428 313.016 137.4 313.034 137.372C314.304 132.272 320.165 126.24 325.749 127.201Z" fill="#263238"/>
</svg>
