<svg width="34" height="26" viewBox="0 0 34 26" fill="none" xmlns="http://www.w3.org/2000/svg">
<g id="eye-regular 1" clip-path="url(#clip0_95_19)">
<path id="Vector" d="M17 4.0625C13.1514 4.0625 9.98749 5.56562 7.56145 7.50039C5.28888 9.31836 3.71874 11.4766 2.91596 13C3.71874 14.5234 5.28888 16.6816 7.55554 18.4996C9.98749 20.4344 13.1514 21.9375 17 21.9375C20.8486 21.9375 24.0125 20.4344 26.4385 18.4996C28.7111 16.6816 30.2812 14.5234 31.084 13C30.2812 11.4766 28.7111 9.31836 26.4444 7.50039C24.0125 5.56562 20.8486 4.0625 17 4.0625ZM5.63124 5.71797C8.41145 3.49375 12.2305 1.625 17 1.625C21.7694 1.625 25.5885 3.49375 28.3687 5.71797C31.1312 7.92695 32.9788 10.5625 33.8583 12.3754C34.0531 12.7766 34.0531 13.2234 33.8583 13.6246C32.9788 15.4375 31.1312 18.0781 28.3687 20.282C25.5885 22.5063 21.7694 24.375 17 24.375C12.2305 24.375 8.41145 22.5063 5.63124 20.282C2.86874 18.0781 1.02117 15.4375 0.147559 13.6246C-0.0472331 13.2234 -0.0472331 12.7766 0.147559 12.3754C1.02117 10.5625 2.86874 7.92188 5.63124 5.71797ZM17 17.0625C19.609 17.0625 21.7222 15.2445 21.7222 13C21.7222 10.7555 19.609 8.9375 17 8.9375C16.9587 8.9375 16.9233 8.9375 16.8819 8.9375C16.9587 9.19648 17 9.4707 17 9.75C17 11.5426 15.3059 13 13.2222 13C12.8976 13 12.5788 12.9645 12.2778 12.8984C12.2778 12.934 12.2778 12.9645 12.2778 13C12.2778 15.2445 14.391 17.0625 17 17.0625ZM17 6.5C19.0038 6.5 20.9256 7.18482 22.3426 8.40381C23.7595 9.62279 24.5555 11.2761 24.5555 13C24.5555 14.7239 23.7595 16.3772 22.3426 17.5962C20.9256 18.8152 19.0038 19.5 17 19.5C14.9961 19.5 13.0743 18.8152 11.6574 17.5962C10.2405 16.3772 9.44443 14.7239 9.44443 13C9.44443 11.2761 10.2405 9.62279 11.6574 8.40381C13.0743 7.18482 14.9961 6.5 17 6.5Z" fill="#B9B9B9"/>
</g>
<defs>
<clipPath id="clip0_95_19">
<rect width="34" height="26" fill="white"/>
</clipPath>
</defs>
</svg>
