<svg width="370" height="370" viewBox="0 0 370 370" fill="none" xmlns="http://www.w3.org/2000/svg">
<path opacity="0.1" d="M103.802 247.819C104.031 247.19 100.702 238.053 89.2412 232.084C89.2412 232.084 79.2948 236.72 88.3628 246.493C92.7162 251.184 95.3876 254.021 96.9882 255.702C98.2403 257.018 100.411 256.661 101.2 255.025C102.699 251.923 103.802 247.819 103.802 247.819Z" fill="white"/>
<path d="M138.08 244.533L135.318 282.586C135.318 282.586 147.963 289.734 186.487 292.252C224.316 294.725 235.647 288.226 235.647 288.226L239.321 237.619L138.081 244.532L138.08 244.533Z" fill="#263238"/>
<path d="M235.643 288.29C236.848 272.535 215.397 258.048 187.733 255.933C160.068 253.819 136.666 264.877 135.461 280.633C134.257 296.388 155.707 310.875 183.372 312.99C211.036 315.104 234.439 304.046 235.643 288.29Z" fill="#263238"/>
<path d="M184.122 303.666C160.033 301.855 139.822 287.017 135.96 273.748C135.96 273.748 135.604 278.654 135.456 280.692C134.312 296.453 155.812 310.916 183.48 312.996C211.147 315.076 234.502 303.986 235.647 288.226C235.795 286.188 236.098 282.015 236.098 282.015C230.361 294.562 208.211 305.478 184.122 303.666Z" fill="#26A4C0"/>
<path opacity="0.2" d="M136.977 259.738C136.977 259.738 167.114 313.135 223.596 305.118C223.596 305.118 232.794 300.138 234.981 291.829L235.551 289.554L237.745 259.329L137.528 252.155L136.977 259.737V259.738Z" fill="black"/>
<path d="M110.569 238.416L110.103 244.846L182.635 303.462L265.901 256.56L266.368 250.13L110.569 238.416Z" fill="#263238"/>
<path opacity="0.4" d="M110.569 238.416L110.103 244.846L182.635 303.462L265.901 256.56L266.368 250.13L110.569 238.416Z" fill="black"/>
<path d="M110.569 238.416C110.869 239.619 183.311 296.671 183.311 296.671L266.369 250.13L192.05 194.945L110.569 238.416Z" fill="#263238"/>
<path opacity="0.4" d="M197.062 242.455C196.814 245.867 192.175 248.297 186.698 247.886C181.222 247.475 176.983 244.375 177.231 240.964C177.478 237.553 182.119 235.122 187.595 235.533C193.071 235.945 197.309 239.044 197.062 242.455Z" fill="black"/>
<path d="M188.275 241.709C188.832 234.193 190.34 226.18 195.23 220.24C200.637 213.671 209.631 210.282 217.84 209.577C222.173 209.205 226.555 209.539 230.765 210.663C235.416 211.903 239.746 214.072 244.207 215.851C248.338 217.499 252.791 218.922 257.277 218.845C259.309 218.811 261.51 218.481 263.272 217.388C264.911 216.369 266.101 214.812 267.394 213.404C269.02 211.633 270.979 210.176 272.718 208.519C274.431 206.886 276.076 205.177 277.621 203.377C280.864 199.599 283.649 195.44 285.807 190.927C286.439 189.603 284.494 188.437 283.858 189.767C279.988 197.861 274.111 204.483 267.393 210.246C265.853 211.568 264.675 213.237 263.178 214.601C261.629 216.012 259.626 216.47 257.59 216.54C253.085 216.697 248.62 215.175 244.486 213.508C239.947 211.678 235.527 209.475 230.763 208.293C226.551 207.248 222.159 206.907 217.84 207.28C209.525 207.998 200.496 211.207 194.631 217.479C188.556 223.976 186.66 233.047 186.019 241.709C185.909 243.183 188.166 243.177 188.275 241.709Z" fill="#26A4C0"/>
<path d="M266.837 217.931C266.633 220.741 264.229 222.852 261.467 222.644C258.705 222.436 256.632 219.989 256.836 217.179C257.04 214.368 259.445 212.258 262.206 212.466C264.968 212.674 267.041 215.12 266.837 217.931Z" fill="#26A4C0"/>
<path d="M264.064 220.146C276.044 222.635 288.591 221.087 299.645 215.773C300.958 215.142 299.813 213.161 298.506 213.79C288.034 218.824 276.01 220.288 264.665 217.931C263.247 217.636 262.641 219.85 264.065 220.146H264.064Z" fill="#26A4C0"/>
<path d="M262.854 219.171C275.641 220.393 288.728 215.559 297.82 206.342C298.851 205.298 297.255 203.674 296.225 204.718C287.52 213.542 275.077 218.042 262.854 216.874C261.409 216.736 261.418 219.033 262.854 219.171Z" fill="#26A4C0"/>
<path d="M263.954 217.494C275.774 212.941 289.476 207.15 293.5 193.664C293.922 192.247 291.745 191.641 291.323 193.053C287.562 205.663 274.363 211.038 263.354 215.279C262.009 215.797 262.592 218.019 263.954 217.494H263.954Z" fill="#26A4C0"/>
<path d="M264.152 218.248C275.219 217.798 285.93 212.675 293.449 204.413C295.564 202.09 297.42 199.522 298.964 196.773C299.687 195.487 297.737 194.329 297.016 195.614C291.827 204.848 282.966 211.708 272.91 214.551C270.048 215.36 267.119 215.831 264.152 215.951C262.704 216.01 262.697 218.307 264.152 218.248V218.248Z" fill="#26A4C0"/>
<path d="M265.266 218.398C271.392 221.407 278.518 221.276 284.886 219.107C291.5 216.854 297.219 212.665 302.558 208.203C303.682 207.264 302.077 205.648 300.963 206.578C291.657 214.356 278.636 222.423 266.406 216.415C265.103 215.776 263.957 217.755 265.266 218.398Z" fill="#26A4C0"/>
<path d="M264.223 217.311C274.199 212.1 282.695 204.183 288.715 194.56C289.498 193.309 287.545 192.157 286.766 193.401C280.945 202.705 272.723 210.293 263.083 215.328C261.791 216.003 262.932 217.986 264.222 217.311H264.223Z" fill="#26A4C0"/>
<path opacity="0.3" d="M266.837 217.931C266.633 220.741 264.229 222.852 261.467 222.644C258.705 222.436 256.632 219.989 256.836 217.179C257.04 214.368 259.445 212.258 262.206 212.466C264.968 212.674 267.041 215.12 266.837 217.931Z" fill="black"/>
<path opacity="0.1" d="M193.154 198.208C192.605 196.55 116.25 236.849 116.48 239.191C116.71 241.533 163.867 279.047 165.502 279.047C171.013 279.047 164.121 255.118 171.486 235.444C178.851 215.769 195.224 204.459 193.153 198.208H193.154Z" fill="white"/>
<path d="M235.526 88.1481L218.822 114.732C218.822 114.732 225.425 124.886 252.959 141.82C279.996 158.448 290.884 158.165 290.884 158.165L313.098 122.81L235.526 88.1473L235.526 88.1481Z" fill="#263238"/>
<path d="M290.884 158.165C297.802 147.154 287.464 128.21 267.794 115.851C248.124 103.492 226.571 102.398 219.653 113.409C212.735 124.419 223.072 143.364 242.742 155.723C262.412 168.082 283.966 169.175 290.884 158.165Z" fill="#263238"/>
<path d="M246.812 149.191C229.686 138.43 220.449 119.719 222.702 108.558C222.702 108.558 220.548 111.986 219.654 113.409C212.736 124.42 223.073 143.364 242.743 155.723C262.413 168.082 283.966 169.176 290.885 158.165C291.779 156.742 293.611 153.827 293.611 153.827C284.533 160.7 263.939 159.952 246.813 149.191H246.812Z" fill="#26A4C0"/>
<path opacity="0.2" d="M228.852 98.7699C228.852 98.7699 230.58 149.408 275.46 165.723C275.46 165.723 284.184 165.707 289.002 160.524L290.3 159.093L303.568 137.978L232.179 93.473L228.852 98.7699Z" fill="black"/>
<path d="M223.161 66.3018L220.338 70.795L251.426 141.848L331.104 140.391L333.927 135.898L223.161 66.3018Z" fill="#263238"/>
<path opacity="0.4" d="M223.161 66.3018L220.338 70.795L251.426 141.848L331.104 140.391L333.927 135.898L223.161 66.3018Z" fill="black"/>
<path d="M223.162 66.3018C222.92 67.2941 254.542 137.175 254.542 137.175L333.926 135.898L300.196 66.6399L223.162 66.3018Z" fill="#263238"/>
<path opacity="0.4" d="M285.603 103.148C284.106 105.531 279.736 105.48 275.842 103.033C271.949 100.587 270.007 96.6721 271.504 94.2893C273.001 91.9065 277.371 91.9576 281.264 94.404C285.157 96.8504 287.1 100.764 285.603 103.148Z" fill="black"/>
<path d="M278.385 99.7719C278.586 99.8038 278.784 99.8593 278.981 99.9088C279.081 99.934 279.181 99.9658 279.28 99.9939C278.828 99.8659 279.315 100.007 279.44 100.049C279.759 100.156 280.074 100.274 280.386 100.399C281.279 100.758 282.146 101.182 282.987 101.649C284.134 102.285 284.949 102.816 286.113 103.672C293.773 109.305 299.298 117.614 303.587 125.966C307.925 134.412 311.171 143.391 313.822 152.495C314.206 153.813 316.195 153.035 315.812 151.722C311.701 137.603 306.17 123.24 297.018 111.552C292.964 106.373 287.947 101.362 281.827 98.6893C280.848 98.2609 279.785 97.8309 278.721 97.6644C277.365 97.452 277.025 99.5596 278.384 99.7719H278.385Z" fill="#26A4C0"/>
<path d="M315.576 161.328C313.069 161.039 311.271 158.774 311.56 156.268C311.848 153.762 314.113 151.963 316.62 152.252C319.126 152.541 320.924 154.806 320.636 157.312C320.347 159.818 318.082 161.617 315.576 161.328Z" fill="#26A4C0"/>
<path d="M313.623 158.868C310.981 169.563 311.906 181.03 316.199 191.172C316.734 192.435 318.727 191.669 318.189 190.399C314.028 180.57 313.171 169.564 315.73 159.204C316.06 157.871 313.95 157.541 313.623 158.868Z" fill="#26A4C0"/>
<path d="M314.588 157.53C313.02 169.127 316.76 181.25 324.681 189.882C325.6 190.883 327.339 189.641 326.41 188.63C318.857 180.4 315.197 168.95 316.695 157.868C316.879 156.508 314.772 156.167 314.588 157.531V157.53Z" fill="#26A4C0"/>
<path d="M316.08 158.873C319.676 169.688 324.364 182.354 336.16 186.473C337.449 186.923 338.342 184.983 337.045 184.53C325.788 180.598 321.494 168.396 318.07 158.099C317.637 156.796 315.646 157.57 316.08 158.873Z" fill="#26A4C0"/>
<path d="M315.358 159.031C315.349 169.064 319.579 178.864 326.584 185.998C328.568 188.018 330.784 189.797 333.183 191.302C333.675 191.61 334.282 191.635 334.685 191.154C335.019 190.756 335.025 189.957 334.537 189.652C326.419 184.559 320.488 176.178 318.37 166.824C317.773 164.189 317.477 161.497 317.48 158.795C317.481 157.425 315.359 157.668 315.358 159.031Z" fill="#26A4C0"/>
<path d="M315.109 159.992C312.166 165.51 312.157 172.094 313.896 177.991C315.65 183.942 319.137 189.219 322.841 194.125C323.669 195.222 325.399 193.971 324.57 192.873C321.084 188.257 317.827 183.36 316.065 177.801C314.313 172.276 314.281 166.074 317.053 160.877C317.702 159.663 315.754 158.785 315.11 159.992L315.109 159.992Z" fill="#26A4C0"/>
<path d="M316.14 158.875C320.434 168.15 327.149 176.213 335.543 182.053C336.666 182.834 338.026 181.188 336.897 180.403C328.803 174.772 322.274 167.054 318.129 158.102C317.555 156.861 315.56 157.624 316.14 158.875H316.14Z" fill="#26A4C0"/>
<path opacity="0.3" d="M315.576 161.328C313.069 161.039 311.271 158.774 311.56 156.268C311.848 153.762 314.113 151.963 316.62 152.252C319.126 152.541 320.924 154.806 320.636 157.312C320.347 159.818 318.082 161.617 315.576 161.328Z" fill="black"/>
<path opacity="0.1" d="M226.247 68.2399L299.066 69.1079L312.097 97.2094C312.097 97.2094 235.436 78.2691 232.529 75.7442C229.622 73.2193 226.247 68.2399 226.247 68.2399Z" fill="white"/>
<path opacity="0.1" d="M228.152 103.147C228.152 103.147 219.813 114.287 219.545 118.02C219.278 121.754 219.387 129.202 223.51 132.22C227.632 135.237 232.814 108.238 231.961 102.728C231.108 97.219 228.152 103.147 228.152 103.147H228.152Z" fill="white"/>
<path d="M93.862 102.05C87.0303 101.352 79.7591 101.53 73.5926 104.906C67.1583 108.429 62.7516 115.302 60.4458 122.103C59.2522 125.623 58.6039 129.347 58.5447 133.064C58.4789 137.253 59.3358 141.335 60.249 145.4C61.1384 149.358 62.0131 153.371 61.8289 157.454C61.7467 159.272 61.4485 161.162 60.6278 162.805C59.8449 164.373 58.4685 165.244 57.0233 166.14C55.2325 167.25 53.6829 168.633 52.0187 169.917C50.3026 171.24 48.5229 172.484 46.6788 173.623C42.9219 175.945 38.9051 177.772 34.6538 178.975C33.4247 179.323 33.9471 181.242 35.1822 180.892C42.7221 178.758 49.4094 174.689 55.4175 169.728C56.7525 168.626 58.2414 167.817 59.6414 166.81C61.0896 165.769 62.093 164.532 62.7613 162.874C64.1369 159.46 63.9956 155.559 63.5264 151.976C62.9648 147.694 61.7282 143.544 61.0178 139.289C60.3822 135.481 60.3592 131.582 61.0385 127.778C62.3173 120.616 65.9211 113.236 71.6479 108.586C77.8617 103.541 86.257 103.261 93.8627 104.038C95.1348 104.168 95.1259 102.179 93.8627 102.05H93.862Z" fill="#26A4C0"/>
<path d="M61.2207 168.537C63.6479 168.789 65.8198 167.025 66.0714 164.598C66.323 162.171 64.5596 159.999 62.1324 159.748C59.7052 159.496 57.5333 161.259 57.2817 163.687C57.0301 166.114 58.7935 168.286 61.2207 168.537Z" fill="#26A4C0"/>
<path d="M61.5543 166.561C61.8059 176.887 58.6594 187.103 52.672 195.517C51.9283 196.562 53.6525 197.556 54.3896 196.52C60.5641 187.845 63.8031 177.204 63.5434 166.561C63.5123 165.284 61.5224 165.278 61.5543 166.561Z" fill="#26A4C0"/>
<path d="M60.9231 165.096C60.0322 175.749 54.2232 185.844 45.4623 191.968C44.4211 192.696 45.4135 194.421 46.4657 193.685C53.7318 188.605 59.1086 181.045 61.5632 172.525C62.2618 170.101 62.7013 167.61 62.9115 165.096C63.0181 163.821 61.0289 163.828 60.9231 165.096Z" fill="#26A4C0"/>
<path d="M59.5405 165.039C54.2392 173.903 47.6147 184.636 36.3068 185.975C35.051 186.124 35.0362 188.115 36.3068 187.964C48.4561 186.524 55.5135 175.646 61.2573 166.042C61.9159 164.941 60.1969 163.94 59.5405 165.039Z" fill="#26A4C0"/>
<path d="M59.9707 165.816C57.9912 174.797 52.3398 182.809 44.6246 187.8C42.4201 189.226 40.0654 190.401 37.5924 191.281C36.395 191.708 36.9108 193.63 38.1207 193.199C47.2989 189.93 54.9964 182.924 59.1944 174.133C60.3821 171.645 61.2946 169.037 61.8881 166.345C62.1626 165.098 60.246 164.565 59.9707 165.816Z" fill="#26A4C0"/>
<path d="M59.9714 167.852C61.4936 173.299 60.1512 179.108 57.3903 183.932C54.5628 188.87 50.4054 192.854 46.112 196.516C45.1366 197.348 46.5493 198.749 47.518 197.922C52.0749 194.036 56.4831 189.749 59.3824 184.444C62.2121 179.267 63.502 173.094 61.8888 167.324C61.5447 166.093 59.6251 166.616 59.9714 167.852Z" fill="#26A4C0"/>
<path d="M59.4832 165.027C53.7674 172.524 46.0174 178.472 37.298 182.054C36.1303 182.534 36.6416 184.458 37.8263 183.971C47.0763 180.171 55.1379 173.983 61.2007 166.031C61.9762 165.013 60.2498 164.022 59.4832 165.027Z" fill="#26A4C0"/>
<path opacity="0.3" d="M61.2207 168.537C63.6479 168.789 65.8198 167.025 66.0714 164.598C66.323 162.171 64.5596 159.999 62.1324 159.748C59.7052 159.496 57.5333 161.259 57.2817 163.687C57.0301 166.114 58.7935 168.286 61.2207 168.537Z" fill="black"/>
<path d="M34.9201 149.963L32.686 144.925L75.6379 66.7355L164.044 71.8356L165.673 76.2208L35.8133 149.963" fill="#263238"/>
<path opacity="0.1" d="M34.9201 149.963L32.686 144.925L75.6379 66.7355L164.044 71.8356L165.673 76.2208L35.8133 149.963" fill="white"/>
<path d="M33.8032 149.963L78.0515 71.8356L164.556 76.2208L122.301 154.354L33.8032 149.963Z" fill="#263238"/>
<path opacity="0.3" d="M33.8032 149.963L78.0515 71.8356L164.556 76.2208L122.301 154.354L33.8032 149.963Z" fill="black"/>
<path d="M113.179 135.952C133.383 122.351 144.799 103.953 138.677 94.8592C132.556 85.7654 111.214 89.4194 91.0103 103.02C70.8063 116.622 59.3904 135.019 65.5122 144.113C71.634 153.207 92.9753 149.553 113.179 135.952Z" fill="#263238"/>
<path d="M64.3892 141.802L79.8219 166.125L154.882 118.433L137.436 93.3844L64.3892 141.802Z" fill="#263238"/>
<path d="M106.737 125.696C125.167 113.289 145.552 110.491 153.622 116.497C153.622 116.497 151.099 112.958 150.51 112.083C144.387 102.989 123.667 106.822 103.275 120.55C82.8817 134.279 71.1127 152.951 77.2347 162.045C77.8238 162.921 79.8232 166.125 79.8232 166.125C77.2939 156.389 88.3081 138.102 106.739 125.696H106.737Z" fill="#26A4C0"/>
<path d="M128.304 158.521C148.697 144.793 160.266 126.292 154.145 117.198C148.023 108.104 126.528 111.862 106.135 125.59C85.7419 139.319 74.1727 157.82 80.2945 166.913C86.4162 176.007 107.911 172.25 128.304 158.521Z" fill="#263238"/>
<path opacity="0.5" d="M92.5261 168.653C89.2523 168.653 84.9366 168.039 82.9675 165.113C80.7919 161.882 81.899 156.263 86.0037 149.698C90.6495 142.269 98.4379 134.656 107.934 128.264C119.845 120.246 132.547 115.459 141.912 115.459C145.186 115.459 149.502 116.074 151.471 118.998C153.646 122.23 152.539 127.848 148.435 134.414C143.789 141.843 136 149.456 126.504 155.849C114.594 163.866 101.892 168.653 92.5261 168.653Z" fill="black"/>
<path opacity="0.1" d="M132.418 93.3843C131.659 92.5422 115.329 90.2778 97.2917 102.708C97.2917 102.708 96.3423 121.286 118.178 115.459C128.66 112.661 135.029 110.911 138.819 109.847C141.783 109.015 142.972 105.481 141.149 103C137.691 98.2935 132.419 93.3836 132.419 93.3836L132.418 93.3843Z" fill="white"/>
<path opacity="0.1" d="M90.8532 147.556C90.8532 146.83 71.7346 168.141 96.1775 166.561L107.31 164.142C107.31 164.142 90.8532 159.414 90.8532 147.556Z" fill="white"/>
</svg>
