<svg width="162" height="113" viewBox="0 0 162 113" fill="none" xmlns="http://www.w3.org/2000/svg">
<g id="sos logo trace 2" clip-path="url(#clip0_60_790)">
<path id="Vector" d="M25.944 29.1249L4.51113 41.9576C4.31998 42.0749 4.17793 42.258 4.11152 42.4727C4.04511 42.6873 4.05888 42.919 4.15025 43.1242L5.31309 45.5379C5.39553 45.7212 5.5378 45.8709 5.71637 45.9623C5.89495 46.0537 6.09922 46.0814 6.29556 46.0407L22.5757 42.5811C22.7395 42.5469 22.9096 42.559 23.0669 42.6161C23.2242 42.6732 23.3626 42.7731 23.4666 42.9045C23.5706 43.036 23.6361 43.1939 23.6558 43.3605C23.6755 43.5272 23.6487 43.6961 23.5782 43.8483L11.1676 69.2321C11.1133 69.3121 11.0842 69.4067 11.0842 69.5036C11.0842 69.6004 11.1133 69.6951 11.1676 69.7752L17.1824 76.4128C17.3093 76.5729 17.3783 76.7714 17.3783 76.9759C17.3783 77.1805 17.3093 77.379 17.1824 77.5391L15.7389 79.5505C15.6092 79.734 15.4147 79.8611 15.195 79.906C14.9752 79.9508 14.7468 79.91 14.5559 79.7919L4.5312 73.5163C3.89854 73.2341 3.18381 73.1983 2.52625 73.4158L1.88465 73.979C1.25256 74.5479 0.853407 75.3318 0.764511 76.1791C0.675615 77.0263 0.903324 77.8765 1.40348 78.5649L8.56117 88.4811C9.40695 89.7006 10.5728 90.6613 11.9295 91.2568L14.1349 92.524C14.9492 92.9225 15.8386 93.143 16.7442 93.1707C17.6497 93.1985 18.5509 93.0329 19.3879 92.6849L21.6535 91.7194C22.6844 91.2985 23.6089 90.6527 24.3601 89.8287L31.3173 82.2659C31.4287 82.1369 31.5765 82.0448 31.7411 82.0017C31.9058 81.9586 32.0796 81.9666 32.2396 82.0245L35.7483 83.1509C36.3958 83.3623 37.0723 83.4709 37.7532 83.4727H43.6077H43.8482L45.7129 83.9756L48.9609 93.5699L52.1888 102.38C52.1888 102.38 53.452 105.035 53.472 105.055L55.2765 108.414C55.2765 108.414 56.0784 110.687 57.4418 111.31C58.1773 111.696 59.014 111.843 59.8363 111.731C60.6587 111.62 61.4262 111.255 62.0332 110.687C62.0977 110.622 62.1519 110.547 62.1936 110.466L62.8953 109.178C63.2207 108.559 63.3797 107.866 63.3564 107.167L62.6948 103.144C62.6872 102.675 62.6198 102.208 62.4943 101.756L61.0508 94.636L58.8854 84.6997L55.2765 67.6833L52.0285 53.4225L51.3668 48.3538C51.342 48.19 51.3636 48.0225 51.429 47.8704C51.4944 47.7182 51.6011 47.5875 51.7369 47.4932C51.8727 47.3989 52.0321 47.3447 52.1971 47.3368C52.3621 47.329 52.526 47.3677 52.6701 47.4487L57.9832 50.3853L63.998 53.6237L66.3238 54.6897L68.1282 53.6035L68.429 51.2905C68.4492 51.164 68.4398 51.0345 68.4015 50.9123C68.3633 50.7901 68.2972 50.6786 68.2084 50.5865L65.4416 47.4688L61.151 43.1644L57.7426 39.1417L53.9733 34.4752L50.4245 30.915L48.6802 29.3663C47.8544 28.6459 46.8085 28.2294 45.715 28.1855C44.6216 28.1416 43.5458 28.473 42.6653 29.1249C42.5998 29.1833 42.5253 29.2309 42.4448 29.2657C39.4734 30.5479 36.1517 30.7611 33.0416 29.8691L32.801 29.7686L31.8185 29.2054C30.9279 28.6892 29.9202 28.4107 28.8918 28.3967C27.8633 28.3826 26.8484 28.6333 25.944 29.1249Z" fill="white" stroke="white" stroke-miterlimit="10"/>
<path id="Vector_2" d="M27.7686 22.1254L30.2948 21.0392L35.1268 24.2574C35.8734 24.7603 36.7436 25.047 37.642 25.086C38.5404 25.1251 39.4322 24.9149 40.2193 24.4787L44.2292 22.0248L45.0713 21.2806C46.1941 20.114 45.9335 19.2692 45.3921 17.7405L44.6302 15.5079L47.0161 13.3356C47.1605 13.2041 47.2596 13.0301 47.2992 12.8385C47.3389 12.647 47.3169 12.4478 47.2366 12.2695L44.3495 6.23537C43.4189 4.80604 42.1043 3.66986 40.5575 2.95805C39.0108 2.24624 37.2949 1.98782 35.6079 2.21259L32.5404 2.55452C30.1469 3.00895 28.0049 4.33404 26.5255 6.27558L24.7211 9.07141C23.6929 11.3397 23.4392 13.8848 23.9993 16.3124L27.0468 21.8438C27.0495 21.9265 27.0764 22.0066 27.124 22.0741C27.1717 22.1416 27.2381 22.1936 27.315 22.2236C27.3919 22.2536 27.4759 22.2603 27.5565 22.2428C27.6371 22.2254 27.7109 22.1845 27.7686 22.1254Z" fill="white" stroke="white" stroke-miterlimit="10"/>
<path id="Vector_3" d="M135.835 28.3207L156.466 40.5298C156.659 40.6403 156.805 40.8184 156.875 41.03C156.946 41.2416 156.936 41.4717 156.847 41.6763L155.765 44.1302C155.686 44.3173 155.545 44.4714 155.366 44.5666C155.187 44.6618 154.981 44.6924 154.782 44.6532L138.422 41.6964C138.257 41.6605 138.085 41.6728 137.927 41.732C137.768 41.7912 137.63 41.8947 137.529 42.0303C137.427 42.1659 137.367 42.3278 137.355 42.4968C137.342 42.6658 137.379 42.8348 137.459 42.9837L150.632 67.9854C150.681 68.0672 150.708 68.1611 150.708 68.2569C150.708 68.3526 150.681 68.4466 150.632 68.5284L144.858 75.3471C144.731 75.5072 144.662 75.7057 144.662 75.9102C144.662 76.1148 144.731 76.3133 144.858 76.4734L146.361 78.4848C146.503 78.6595 146.704 78.7763 146.925 78.8133C147.146 78.8504 147.374 78.8051 147.564 78.6859L157.308 72.1087C157.937 71.8192 158.647 71.7622 159.313 71.9478L159.975 72.4908C160.62 73.0424 161.039 73.8128 161.154 74.6549C161.268 75.497 161.07 76.352 160.597 77.0567L153.72 87.1137C152.909 88.3588 151.771 89.3545 150.431 89.99L148.286 91.3175C147.483 91.7406 146.6 91.9881 145.694 92.0436C144.789 92.0991 143.882 91.9613 143.033 91.6393L140.727 90.7543C139.695 90.3513 138.759 89.7344 137.981 88.944L130.803 81.5823C130.681 81.4634 130.528 81.38 130.362 81.3411C130.196 81.3021 130.023 81.309 129.861 81.3611L126.392 82.6082C125.746 82.8318 125.07 82.9605 124.387 82.9903H122.382L118.533 83.111H118.292L116.448 83.6742L113.48 93.3691L110.834 101.314L109.31 104.995L107.606 108.394C107.251 109.56 106.551 110.591 105.601 111.351C104.877 111.759 104.044 111.932 103.218 111.846C102.392 111.76 101.613 111.418 100.989 110.868C100.919 110.804 100.858 110.729 100.809 110.647L100.087 109.38C99.7254 108.772 99.5381 108.076 99.5458 107.368L100.087 103.346C100.088 102.877 100.148 102.411 100.268 101.958L101.491 94.7972L103.355 84.7402L106.443 67.6233L109.27 53.2619L109.791 48.1731C109.805 48.009 109.774 47.844 109.702 47.6962C109.629 47.5484 109.518 47.4232 109.379 47.3342C109.241 47.2452 109.081 47.1958 108.917 47.1912C108.753 47.1866 108.591 47.2271 108.448 47.3082L103.215 50.4058L97.4005 53.8251L95.1148 54.9515L93.2903 53.9257L92.9094 51.6327C92.8863 51.5047 92.8925 51.3731 92.9272 51.2477C92.9619 51.1223 93.0243 51.0064 93.1099 50.9086L95.7965 47.7105L99.9668 43.2855L103.255 39.2627L106.864 34.4756L108.989 31.8406L111.275 29.427C111.698 28.9349 112.286 28.6145 112.928 28.5257C113.57 28.4368 114.223 28.5856 114.763 28.9442L115.485 31.72C115.485 31.72 115.826 35.1393 115.846 35.2198C117.41 40.1678 120.778 31.197 122.583 30.3924C123.525 30.0103 127.836 38.6593 127.996 38.5989C128.156 38.5386 128.938 33.6911 129.44 30.9556C129.663 29.8151 130.181 28.7537 130.943 27.8782L131.364 27.3753C132.948 26.249 134.031 27.2748 135.835 28.3207Z" fill="white" stroke="white" stroke-miterlimit="10"/>
<path id="Vector_4" d="M118.232 26.43L120.498 27.0133H120.979H123.525L125.53 25.364L126.372 23.6744V20.8585L127.816 18.1431L128.457 14.7439L128.938 13.537L128.818 7.02012L127.014 3.64097L124.608 2.07208L120.999 0.865234H118.112L114.102 2.67551L110.974 4.00303L109.831 5.47134L110.132 12.2095L109.51 13.5571C109.29 14.0211 109.187 14.5322 109.21 15.0456V16.3932C109.227 16.8205 109.315 17.242 109.47 17.6403L110.212 19.4505C110.43 20.0097 110.781 20.5069 111.235 20.8987L114.904 23.3929L117.851 26.1686L118.232 26.43Z" fill="white" stroke="white" stroke-miterlimit="10"/>
<line id="Line 8" x1="77.0909" y1="109.104" x2="77.0909" y2="26.8658" stroke="white" stroke-width="7"/>
<g id="Ellipse 5">
<mask id="path-6-inside-1_60_790" fill="white">
<ellipse cx="79.9773" cy="28.0959" rx="6.13636" ry="11.4846"/>
</mask>
<path d="M79.1137 28.0959C79.1137 30.349 78.6107 32.0415 78.1424 32.9179C77.912 33.3491 77.8143 33.3532 78.0211 33.1895C78.2732 32.9899 78.9552 32.5805 79.9773 32.5805V46.5805C85.5089 46.5805 88.8967 42.4981 90.4903 39.5155C92.243 36.2353 93.1137 32.1856 93.1137 28.0959H79.1137ZM79.9773 32.5805C80.9994 32.5805 81.6814 32.9899 81.9335 33.1895C82.1403 33.3532 82.0426 33.3491 81.8122 32.9179C81.344 32.0415 80.8409 30.349 80.8409 28.0959H66.8409C66.8409 32.1856 67.7116 36.2353 69.4643 39.5155C71.0579 42.4981 74.4457 46.5805 79.9773 46.5805V32.5805ZM80.8409 28.0959C80.8409 25.8428 81.344 24.1503 81.8122 23.2739C82.0426 22.8427 82.1403 22.8386 81.9335 23.0023C81.6814 23.2019 80.9994 23.6113 79.9773 23.6113V9.61133C74.4457 9.61133 71.0579 13.6938 69.4643 16.6763C67.7116 19.9565 66.8409 24.0062 66.8409 28.0959H80.8409ZM79.9773 23.6113C78.9552 23.6113 78.2732 23.2019 78.0211 23.0023C77.8143 22.8386 77.912 22.8427 78.1424 23.2739C78.6107 24.1503 79.1137 25.8428 79.1137 28.0959H93.1137C93.1137 24.0062 92.243 19.9565 90.4903 16.6763C88.8967 13.6938 85.5089 9.61133 79.9773 9.61133V23.6113Z" fill="white" mask="url(#path-6-inside-1_60_790)"/>
</g>
<g id="Ellipse 6">
<mask id="path-8-inside-2_60_790" fill="white">
<ellipse cx="5.52072" cy="12.6087" rx="5.52072" ry="12.6087" transform="matrix(0.877384 0.479789 -0.477856 0.878438 93.4683 59.7139)"/>
</mask>
<path d="M90.9891 72.7288C89.6754 75.1438 88.2058 76.7953 87.1673 77.6006C86.6391 78.0101 86.4904 77.9933 86.7595 77.9191C87.0739 77.8325 88.2453 77.6209 89.6069 78.3654L82.9169 90.6636C85.616 92.1396 88.3988 92.0049 90.482 91.4311C92.52 90.8699 94.2973 89.8018 95.736 88.6863C98.6313 86.4415 101.259 83.148 103.272 79.4459L90.9891 72.7288ZM89.6069 78.3654C90.9684 79.11 91.4252 80.212 91.5228 80.5239C91.6064 80.7909 91.5118 80.6746 91.5692 80.0077C91.682 78.6963 92.2712 76.5633 93.5849 74.1483L81.3015 67.4313C79.2876 71.1334 77.9485 75.1313 77.6338 78.7873C77.4775 80.604 77.5442 82.6805 78.177 84.7023C78.8239 86.7689 80.2177 89.1876 82.9169 90.6636L89.6069 78.3654ZM93.5849 74.1483C94.8986 71.7333 96.3681 70.0818 97.4067 69.2766C97.9349 68.8671 98.0836 68.8839 97.8145 68.958C97.5001 69.0446 96.3287 69.2563 94.9671 68.5117L101.657 56.2136C98.958 54.7376 96.1751 54.8723 94.0919 55.446C92.054 56.0073 90.2767 57.0754 88.8379 58.1909C85.9427 60.4357 83.3154 63.7292 81.3015 67.4313L93.5849 74.1483ZM94.9671 68.5117C93.6056 67.7672 93.1488 66.6652 93.0512 66.3532C92.9676 66.0862 93.0622 66.2025 93.0048 66.8695C92.8919 68.1809 92.3028 70.3139 90.9891 72.7288L103.272 79.4459C105.286 75.7438 106.625 71.7458 106.94 68.0899C107.097 66.2732 107.03 64.1966 106.397 62.1749C105.75 60.1083 104.356 57.6896 101.657 56.2136L94.9671 68.5117Z" fill="white" mask="url(#path-8-inside-2_60_790)"/>
</g>
<g id="Ellipse 7">
<mask id="path-10-inside-3_60_790" fill="white">
<ellipse cx="5.52072" cy="12.6087" rx="5.52072" ry="12.6087" transform="matrix(0.877371 -0.479812 0.477879 0.878426 55.2273 64.9766)"/>
</mask>
<path d="M64.7986 74.1132C66.1123 76.5282 66.7015 78.6611 66.8144 79.9725C66.8719 80.6395 66.7772 80.7557 66.8608 80.4887C66.9584 80.1768 67.4152 79.0748 68.7767 78.3302L75.467 90.6282C78.1661 89.1521 79.5599 86.7334 80.2067 84.6667C80.8395 82.645 80.9062 80.5685 80.7497 78.7517C80.435 75.0958 79.0957 71.0979 77.0818 67.3958L64.7986 74.1132ZM68.7767 78.3302C70.1382 77.5856 71.3096 77.7973 71.6241 77.8838C71.8932 77.958 71.7444 77.9748 71.2163 77.5653C70.1777 76.7601 68.7081 75.1086 67.3943 72.6937L55.1111 79.411C57.1251 83.1131 59.7525 86.4065 62.6478 88.6512C64.0865 89.7667 65.8639 90.8347 67.9019 91.3959C69.9851 91.9696 72.7679 92.1042 75.467 90.6282L68.7767 78.3302ZM67.3943 72.6937C66.0805 70.2787 65.4914 68.1458 65.3784 66.8343C65.321 66.1674 65.4156 66.0511 65.3321 66.3181C65.2345 66.63 64.7777 67.732 63.4162 68.4766L56.7259 56.1787C54.0268 57.6547 52.633 60.0735 51.9862 62.1401C51.3534 64.1619 51.2867 66.2384 51.4431 68.0551C51.7579 71.7111 53.0971 75.709 55.1111 79.411L67.3943 72.6937ZM63.4162 68.4766C62.0546 69.2212 60.8832 69.0096 60.5688 68.923C60.2997 68.8489 60.4484 68.8321 60.9766 69.2416C62.0152 70.0468 63.4848 71.6983 64.7986 74.1132L77.0818 67.3958C75.0678 63.6938 72.4404 60.4004 69.5451 58.1556C68.1063 57.0402 66.329 55.9722 64.291 55.4109C62.2078 54.8372 59.425 54.7026 56.7259 56.1787L63.4162 68.4766Z" fill="white" mask="url(#path-10-inside-3_60_790)"/>
</g>
</g>
<defs>
<clipPath id="clip0_60_790">
<rect width="162" height="113" fill="white"/>
</clipPath>
</defs>
</svg>
