<svg width="314" height="72" viewBox="0 0 314 72" fill="none" xmlns="http://www.w3.org/2000/svg">
<path d="M46.7227 19.3418L49.5352 19.0684C49.7044 20.0124 50.0462 20.7057 50.5605 21.1484C51.0814 21.5911 51.7812 21.8125 52.6602 21.8125C53.5911 21.8125 54.291 21.6172 54.7598 21.2266C55.235 20.8294 55.4727 20.3672 55.4727 19.8398C55.4727 19.5013 55.3717 19.2148 55.1699 18.9805C54.9746 18.7396 54.6296 18.5312 54.1348 18.3555C53.7962 18.2383 53.0247 18.0299 51.8203 17.7305C50.2708 17.3464 49.1836 16.8743 48.5586 16.3145C47.6797 15.5267 47.2402 14.5664 47.2402 13.4336C47.2402 12.7044 47.4453 12.0241 47.8555 11.3926C48.2721 10.7546 48.8678 10.2695 49.6426 9.9375C50.4238 9.60547 51.3646 9.43945 52.4648 9.43945C54.2617 9.43945 55.6126 9.83333 56.5176 10.6211C57.429 11.4089 57.9076 12.4603 57.9531 13.7754L55.0625 13.9023C54.9388 13.1667 54.6719 12.6393 54.2617 12.3203C53.8581 11.9948 53.2493 11.832 52.4355 11.832C51.5957 11.832 50.9382 12.0046 50.4629 12.3496C50.1569 12.571 50.0039 12.8672 50.0039 13.2383C50.0039 13.5768 50.1471 13.8665 50.4336 14.1074C50.7982 14.4134 51.6836 14.7324 53.0898 15.0645C54.4961 15.3965 55.5345 15.7415 56.2051 16.0996C56.8822 16.4512 57.4095 16.9362 57.7871 17.5547C58.1712 18.1667 58.3633 18.9251 58.3633 19.8301C58.3633 20.6504 58.1354 21.4186 57.6797 22.1348C57.224 22.8509 56.5794 23.3848 55.7461 23.7363C54.9128 24.0814 53.8743 24.2539 52.6309 24.2539C50.821 24.2539 49.431 23.8372 48.4609 23.0039C47.4909 22.1641 46.9115 20.9434 46.7227 19.3418ZM60.209 16.9297C60.209 15.4714 60.4271 14.2474 60.8633 13.2578C61.1888 12.5286 61.6315 11.8743 62.1914 11.2949C62.7578 10.7155 63.3763 10.2858 64.0469 10.0059C64.9388 9.62826 65.9674 9.43945 67.1328 9.43945C69.2422 9.43945 70.9284 10.0938 72.1914 11.4023C73.4609 12.7109 74.0957 14.5306 74.0957 16.8613C74.0957 19.1725 73.4674 20.9824 72.2109 22.291C70.9544 23.5931 69.2747 24.2441 67.1719 24.2441C65.043 24.2441 63.3503 23.5964 62.0938 22.3008C60.8372 20.9987 60.209 19.2083 60.209 16.9297ZM63.1875 16.832C63.1875 18.4531 63.5618 19.6836 64.3105 20.5234C65.0592 21.3568 66.0098 21.7734 67.1621 21.7734C68.3145 21.7734 69.2585 21.36 69.9941 20.5332C70.7363 19.6999 71.1074 18.4531 71.1074 16.793C71.1074 15.1523 70.7461 13.9284 70.0234 13.1211C69.3073 12.3138 68.3535 11.9102 67.1621 11.9102C65.9707 11.9102 65.0104 12.3203 64.2812 13.1406C63.5521 13.9544 63.1875 15.1849 63.1875 16.832ZM75.6289 19.3418L78.4414 19.0684C78.6107 20.0124 78.9525 20.7057 79.4668 21.1484C79.9876 21.5911 80.6875 21.8125 81.5664 21.8125C82.4974 21.8125 83.1973 21.6172 83.666 21.2266C84.1413 20.8294 84.3789 20.3672 84.3789 19.8398C84.3789 19.5013 84.278 19.2148 84.0762 18.9805C83.8809 18.7396 83.5358 18.5312 83.041 18.3555C82.7025 18.2383 81.931 18.0299 80.7266 17.7305C79.1771 17.3464 78.0898 16.8743 77.4648 16.3145C76.5859 15.5267 76.1465 14.5664 76.1465 13.4336C76.1465 12.7044 76.3516 12.0241 76.7617 11.3926C77.1784 10.7546 77.7741 10.2695 78.5488 9.9375C79.3301 9.60547 80.2708 9.43945 81.3711 9.43945C83.168 9.43945 84.5189 9.83333 85.4238 10.6211C86.3353 11.4089 86.8138 12.4603 86.8594 13.7754L83.9688 13.9023C83.8451 13.1667 83.5781 12.6393 83.168 12.3203C82.7643 11.9948 82.1556 11.832 81.3418 11.832C80.502 11.832 79.8444 12.0046 79.3691 12.3496C79.0632 12.571 78.9102 12.8672 78.9102 13.2383C78.9102 13.5768 79.0534 13.8665 79.3398 14.1074C79.7044 14.4134 80.5898 14.7324 81.9961 15.0645C83.4023 15.3965 84.4408 15.7415 85.1113 16.0996C85.7884 16.4512 86.3158 16.9362 86.6934 17.5547C87.0775 18.1667 87.2695 18.9251 87.2695 19.8301C87.2695 20.6504 87.0417 21.4186 86.5859 22.1348C86.1302 22.8509 85.4857 23.3848 84.6523 23.7363C83.819 24.0814 82.7806 24.2539 81.5371 24.2539C79.7272 24.2539 78.3372 23.8372 77.3672 23.0039C76.3971 22.1641 75.8177 20.9434 75.6289 19.3418ZM89.7109 24V9.68359H92.6016V15.3184H98.2656V9.68359H101.156V24H98.2656V17.7402H92.6016V24H89.7109ZM110.814 18.7363V16.3242H117.045V22.0273C116.439 22.6133 115.561 23.1309 114.408 23.5801C113.262 24.0228 112.1 24.2441 110.922 24.2441C109.424 24.2441 108.119 23.9316 107.006 23.3066C105.893 22.6751 105.056 21.7767 104.496 20.6113C103.936 19.4395 103.656 18.1667 103.656 16.793C103.656 15.3021 103.969 13.9772 104.594 12.8184C105.219 11.6595 106.133 10.7708 107.338 10.1523C108.256 9.67708 109.398 9.43945 110.766 9.43945C112.543 9.43945 113.93 9.8138 114.926 10.5625C115.928 11.3047 116.573 12.3333 116.859 13.6484L113.988 14.1855C113.786 13.4824 113.406 12.929 112.846 12.5254C112.292 12.1152 111.599 11.9102 110.766 11.9102C109.503 11.9102 108.497 12.3105 107.748 13.1113C107.006 13.9121 106.635 15.1003 106.635 16.6758C106.635 18.375 107.012 19.651 107.768 20.5039C108.523 21.3503 109.512 21.7734 110.736 21.7734C111.342 21.7734 111.947 21.6562 112.553 21.4219C113.165 21.181 113.689 20.8913 114.125 20.5527V18.7363H110.814ZM118.988 19.3418L121.801 19.0684C121.97 20.0124 122.312 20.7057 122.826 21.1484C123.347 21.5911 124.047 21.8125 124.926 21.8125C125.857 21.8125 126.557 21.6172 127.025 21.2266C127.501 20.8294 127.738 20.3672 127.738 19.8398C127.738 19.5013 127.637 19.2148 127.436 18.9805C127.24 18.7396 126.895 18.5312 126.4 18.3555C126.062 18.2383 125.29 18.0299 124.086 17.7305C122.536 17.3464 121.449 16.8743 120.824 16.3145C119.945 15.5267 119.506 14.5664 119.506 13.4336C119.506 12.7044 119.711 12.0241 120.121 11.3926C120.538 10.7546 121.133 10.2695 121.908 9.9375C122.689 9.60547 123.63 9.43945 124.73 9.43945C126.527 9.43945 127.878 9.83333 128.783 10.6211C129.695 11.4089 130.173 12.4603 130.219 13.7754L127.328 13.9023C127.204 13.1667 126.938 12.6393 126.527 12.3203C126.124 11.9948 125.515 11.832 124.701 11.832C123.861 11.832 123.204 12.0046 122.729 12.3496C122.423 12.571 122.27 12.8672 122.27 13.2383C122.27 13.5768 122.413 13.8665 122.699 14.1074C123.064 14.4134 123.949 14.7324 125.355 15.0645C126.762 15.3965 127.8 15.7415 128.471 16.0996C129.148 16.4512 129.675 16.9362 130.053 17.5547C130.437 18.1667 130.629 18.9251 130.629 19.8301C130.629 20.6504 130.401 21.4186 129.945 22.1348C129.49 22.8509 128.845 23.3848 128.012 23.7363C127.178 24.0814 126.14 24.2539 124.896 24.2539C123.087 24.2539 121.697 23.8372 120.727 23.0039C119.757 22.1641 119.177 20.9434 118.988 19.3418ZM133.07 24V9.68359H135.961V15.3184H141.625V9.68359H144.516V24H141.625V17.7402H135.961V24H133.07ZM160.424 24H157.279L156.029 20.748H150.307L149.125 24H146.059L151.635 9.68359H154.691L160.424 24ZM155.102 18.3359L153.129 13.0234L151.195 18.3359H155.102ZM162.885 24L159.467 9.68359H162.426L164.584 19.5176L167.201 9.68359H170.639L173.148 19.6836L175.346 9.68359H178.256L174.779 24H171.713L168.861 13.2969L166.02 24H162.885ZM191.537 24H188.393L187.143 20.748H181.42L180.238 24H177.172L182.748 9.68359H185.805L191.537 24ZM186.215 18.3359L184.242 13.0234L182.309 18.3359H186.215ZM192.348 19.3418L195.16 19.0684C195.329 20.0124 195.671 20.7057 196.186 21.1484C196.706 21.5911 197.406 21.8125 198.285 21.8125C199.216 21.8125 199.916 21.6172 200.385 21.2266C200.86 20.8294 201.098 20.3672 201.098 19.8398C201.098 19.5013 200.997 19.2148 200.795 18.9805C200.6 18.7396 200.255 18.5312 199.76 18.3555C199.421 18.2383 198.65 18.0299 197.445 17.7305C195.896 17.3464 194.809 16.8743 194.184 16.3145C193.305 15.5267 192.865 14.5664 192.865 13.4336C192.865 12.7044 193.07 12.0241 193.48 11.3926C193.897 10.7546 194.493 10.2695 195.268 9.9375C196.049 9.60547 196.99 9.43945 198.09 9.43945C199.887 9.43945 201.238 9.83333 202.143 10.6211C203.054 11.4089 203.533 12.4603 203.578 13.7754L200.688 13.9023C200.564 13.1667 200.297 12.6393 199.887 12.3203C199.483 11.9948 198.874 11.832 198.061 11.832C197.221 11.832 196.563 12.0046 196.088 12.3496C195.782 12.571 195.629 12.8672 195.629 13.2383C195.629 13.5768 195.772 13.8665 196.059 14.1074C196.423 14.4134 197.309 14.7324 198.715 15.0645C200.121 15.3965 201.16 15.7415 201.83 16.0996C202.507 16.4512 203.035 16.9362 203.412 17.5547C203.796 18.1667 203.988 18.9251 203.988 19.8301C203.988 20.6504 203.76 21.4186 203.305 22.1348C202.849 22.8509 202.204 23.3848 201.371 23.7363C200.538 24.0814 199.499 24.2539 198.256 24.2539C196.446 24.2539 195.056 23.8372 194.086 23.0039C193.116 22.1641 192.536 20.9434 192.348 19.3418ZM205.688 19.3418L208.5 19.0684C208.669 20.0124 209.011 20.7057 209.525 21.1484C210.046 21.5911 210.746 21.8125 211.625 21.8125C212.556 21.8125 213.256 21.6172 213.725 21.2266C214.2 20.8294 214.438 20.3672 214.438 19.8398C214.438 19.5013 214.337 19.2148 214.135 18.9805C213.939 18.7396 213.594 18.5312 213.1 18.3555C212.761 18.2383 211.99 18.0299 210.785 17.7305C209.236 17.3464 208.148 16.8743 207.523 16.3145C206.645 15.5267 206.205 14.5664 206.205 13.4336C206.205 12.7044 206.41 12.0241 206.82 11.3926C207.237 10.7546 207.833 10.2695 208.607 9.9375C209.389 9.60547 210.329 9.43945 211.43 9.43945C213.227 9.43945 214.577 9.83333 215.482 10.6211C216.394 11.4089 216.872 12.4603 216.918 13.7754L214.027 13.9023C213.904 13.1667 213.637 12.6393 213.227 12.3203C212.823 11.9948 212.214 11.832 211.4 11.832C210.561 11.832 209.903 12.0046 209.428 12.3496C209.122 12.571 208.969 12.8672 208.969 13.2383C208.969 13.5768 209.112 13.8665 209.398 14.1074C209.763 14.4134 210.648 14.7324 212.055 15.0645C213.461 15.3965 214.499 15.7415 215.17 16.0996C215.847 16.4512 216.374 16.9362 216.752 17.5547C217.136 18.1667 217.328 18.9251 217.328 19.8301C217.328 20.6504 217.1 21.4186 216.645 22.1348C216.189 22.8509 215.544 23.3848 214.711 23.7363C213.878 24.0814 212.839 24.2539 211.596 24.2539C209.786 24.2539 208.396 23.8372 207.426 23.0039C206.456 22.1641 205.876 20.9434 205.688 19.3418ZM232.67 24H229.525L228.275 20.748H222.553L221.371 24H218.305L223.881 9.68359H226.938L232.67 24ZM227.348 18.3359L225.375 13.0234L223.441 18.3359H227.348ZM234.193 24V21.2559H236.938V24H234.193ZM245.766 20.6992L248.5 21.1582C248.148 22.1608 247.592 22.9258 246.83 23.4531C246.075 23.974 245.128 24.2344 243.988 24.2344C242.185 24.2344 240.85 23.6452 239.984 22.4668C239.301 21.5228 238.959 20.3314 238.959 18.8926C238.959 17.1738 239.408 15.8294 240.307 14.8594C241.205 13.8828 242.341 13.3945 243.715 13.3945C245.258 13.3945 246.475 13.9056 247.367 14.9277C248.259 15.9434 248.686 17.5026 248.646 19.6055H241.771C241.791 20.4193 242.012 21.054 242.436 21.5098C242.859 21.959 243.386 22.1836 244.018 22.1836C244.447 22.1836 244.809 22.0664 245.102 21.832C245.395 21.5977 245.616 21.2201 245.766 20.6992ZM245.922 17.9258C245.902 17.1315 245.697 16.5293 245.307 16.1191C244.916 15.7025 244.441 15.4941 243.881 15.4941C243.282 15.4941 242.787 15.7122 242.396 16.1484C242.006 16.5846 241.814 17.1771 241.82 17.9258H245.922ZM260.404 24H257.855V22.4766C257.432 23.069 256.931 23.5117 256.352 23.8047C255.779 24.0911 255.199 24.2344 254.613 24.2344C253.422 24.2344 252.4 23.7559 251.547 22.7988C250.701 21.8353 250.277 20.4941 250.277 18.7754C250.277 17.0176 250.691 15.6829 251.518 14.7715C252.344 13.8535 253.389 13.3945 254.652 13.3945C255.811 13.3945 256.814 13.8763 257.66 14.8398V9.68359H260.404V24ZM253.08 18.5898C253.08 19.6966 253.233 20.4974 253.539 20.9922C253.982 21.7083 254.6 22.0664 255.395 22.0664C256.026 22.0664 256.563 21.7995 257.006 21.2656C257.449 20.7253 257.67 19.9212 257.67 18.8535C257.67 17.6621 257.455 16.806 257.025 16.2852C256.596 15.7578 256.046 15.4941 255.375 15.4941C254.724 15.4941 254.177 15.7546 253.734 16.2754C253.298 16.7897 253.08 17.5612 253.08 18.5898ZM269.945 24V22.4473C269.568 23.0007 269.07 23.4368 268.451 23.7559C267.839 24.0749 267.191 24.2344 266.508 24.2344C265.811 24.2344 265.186 24.0814 264.633 23.7754C264.079 23.4694 263.679 23.0397 263.432 22.4863C263.184 21.9329 263.061 21.168 263.061 20.1914V13.6289H265.805V18.3945C265.805 19.8529 265.854 20.748 265.951 21.0801C266.055 21.4056 266.241 21.666 266.508 21.8613C266.775 22.0501 267.113 22.1445 267.523 22.1445C267.992 22.1445 268.412 22.0176 268.783 21.7637C269.154 21.5033 269.408 21.1842 269.545 20.8066C269.682 20.4225 269.75 19.4883 269.75 18.0039V13.6289H272.494V24H269.945ZM275.346 24V21.2559H278.09V24H275.346ZM286.918 20.6992L289.652 21.1582C289.301 22.1608 288.744 22.9258 287.982 23.4531C287.227 23.974 286.28 24.2344 285.141 24.2344C283.337 24.2344 282.003 23.6452 281.137 22.4668C280.453 21.5228 280.111 20.3314 280.111 18.8926C280.111 17.1738 280.561 15.8294 281.459 14.8594C282.357 13.8828 283.493 13.3945 284.867 13.3945C286.41 13.3945 287.628 13.9056 288.52 14.9277C289.411 15.9434 289.838 17.5026 289.799 19.6055H282.924C282.943 20.4193 283.165 21.054 283.588 21.5098C284.011 21.959 284.538 22.1836 285.17 22.1836C285.6 22.1836 285.961 22.0664 286.254 21.832C286.547 21.5977 286.768 21.2201 286.918 20.6992ZM287.074 17.9258C287.055 17.1315 286.85 16.5293 286.459 16.1191C286.068 15.7025 285.593 15.4941 285.033 15.4941C284.434 15.4941 283.939 15.7122 283.549 16.1484C283.158 16.5846 282.966 17.1771 282.973 17.9258H287.074ZM296.801 13.6289V15.8164H294.926V19.9961C294.926 20.8424 294.942 21.3372 294.975 21.4805C295.014 21.6172 295.095 21.7311 295.219 21.8223C295.349 21.9134 295.505 21.959 295.688 21.959C295.941 21.959 296.309 21.8711 296.791 21.6953L297.025 23.8242C296.387 24.0977 295.665 24.2344 294.857 24.2344C294.363 24.2344 293.917 24.153 293.52 23.9902C293.122 23.821 292.829 23.6061 292.641 23.3457C292.458 23.0788 292.331 22.7207 292.26 22.2715C292.201 21.9525 292.172 21.3079 292.172 20.3379V15.8164H290.912V13.6289H292.172V11.5684L294.926 9.9668V13.6289H296.801Z" fill="black"/>
<path d="M51.4883 53.8C52.875 53.8 53.959 54.2948 54.7402 55.2844C55.6712 56.4563 56.1367 58.3997 56.1367 61.1145C56.1367 63.8228 55.668 65.7694 54.7305 66.9543C53.9557 67.9309 52.875 68.4192 51.4883 68.4192C50.0951 68.4192 48.972 67.8853 48.1191 66.8176C47.2663 65.7434 46.8398 63.8326 46.8398 61.0852C46.8398 58.3899 47.3086 56.4498 48.2461 55.2649C49.0208 54.2883 50.1016 53.8 51.4883 53.8ZM51.4883 56.0754C51.1562 56.0754 50.86 56.1829 50.5996 56.3977C50.3392 56.606 50.1374 56.9836 49.9941 57.5305C49.8053 58.2402 49.7109 59.4348 49.7109 61.1145C49.7109 62.7942 49.7956 63.9498 49.9648 64.5813C50.1341 65.2063 50.3457 65.623 50.5996 65.8313C50.86 66.0396 51.1562 66.1438 51.4883 66.1438C51.8203 66.1438 52.1165 66.0396 52.377 65.8313C52.6374 65.6165 52.8392 65.2356 52.9824 64.6887C53.1712 63.9856 53.2656 62.7942 53.2656 61.1145C53.2656 59.4348 53.181 58.2825 53.0117 57.6575C52.8424 57.026 52.6276 56.606 52.3672 56.3977C52.1133 56.1829 51.8203 56.0754 51.4883 56.0754ZM63.3633 68.175V65.2942H57.5039V62.8918L63.7148 53.8H66.0195V62.8821H67.7969V65.2942H66.0195V68.175H63.3633ZM63.3633 62.8821V57.9895L60.0723 62.8821H63.3633ZM78.4121 57.3645L75.7559 57.6575C75.6908 57.1106 75.5215 56.7069 75.248 56.4465C74.9746 56.1861 74.6198 56.0559 74.1836 56.0559C73.6042 56.0559 73.1126 56.3163 72.709 56.8372C72.3118 57.358 72.0612 58.442 71.957 60.0891C72.6406 59.2818 73.4902 58.8782 74.5059 58.8782C75.6517 58.8782 76.6315 59.3144 77.4453 60.1868C78.2656 61.0592 78.6758 62.1855 78.6758 63.5657C78.6758 65.0305 78.2461 66.2056 77.3867 67.0911C76.5273 67.9765 75.4238 68.4192 74.0762 68.4192C72.6309 68.4192 71.4427 67.8593 70.5117 66.7395C69.5807 65.6132 69.1152 63.7708 69.1152 61.2122C69.1152 58.5885 69.6003 56.6972 70.5703 55.5383C71.5404 54.3795 72.8001 53.8 74.3496 53.8C75.4368 53.8 76.3353 54.106 77.0449 54.718C77.7611 55.3235 78.2168 56.2056 78.4121 57.3645ZM72.1914 63.3508C72.1914 64.2428 72.3965 64.9329 72.8066 65.4211C73.2168 65.9029 73.6855 66.1438 74.2129 66.1438C74.7207 66.1438 75.1439 65.9452 75.4824 65.5481C75.821 65.151 75.9902 64.4999 75.9902 63.595C75.9902 62.664 75.8079 61.9836 75.4434 61.554C75.0788 61.1178 74.623 60.8997 74.0762 60.8997C73.5488 60.8997 73.1029 61.108 72.7383 61.5247C72.3737 61.9348 72.1914 62.5435 72.1914 63.3508ZM89.5156 65.6262V68.175H79.8965C80.0007 67.2115 80.3132 66.3 80.834 65.4407C81.3548 64.5748 82.3835 63.429 83.9199 62.0032C85.1569 60.8508 85.9154 60.0696 86.1953 59.6594C86.5729 59.093 86.7617 58.5331 86.7617 57.9797C86.7617 57.3678 86.5957 56.899 86.2637 56.5735C85.9382 56.2415 85.4857 56.0754 84.9062 56.0754C84.3333 56.0754 83.8776 56.248 83.5391 56.593C83.2005 56.9381 83.0052 57.511 82.9531 58.3118L80.2188 58.0383C80.3815 56.5279 80.8926 55.4439 81.752 54.7864C82.6113 54.1288 83.6855 53.8 84.9746 53.8C86.3874 53.8 87.4974 54.1809 88.3047 54.9426C89.112 55.7043 89.5156 56.6516 89.5156 57.7844C89.5156 58.429 89.3984 59.0442 89.1641 59.6301C88.9362 60.2096 88.5716 60.8183 88.0703 61.4563C87.7383 61.8795 87.1393 62.4882 86.2734 63.2825C85.4076 64.0767 84.8574 64.6041 84.623 64.8645C84.3952 65.1249 84.2096 65.3788 84.0664 65.6262H89.5156ZM98.4023 68.175H95.6582V57.8333C94.6556 58.7708 93.474 59.4641 92.1133 59.9133V57.4231C92.8294 57.1887 93.6074 56.746 94.4473 56.095C95.2871 55.4374 95.8633 54.6724 96.1758 53.8H98.4023V68.175ZM111.781 65.6262V68.175H102.162C102.266 67.2115 102.579 66.3 103.1 65.4407C103.62 64.5748 104.649 63.429 106.186 62.0032C107.423 60.8508 108.181 60.0696 108.461 59.6594C108.839 59.093 109.027 58.5331 109.027 57.9797C109.027 57.3678 108.861 56.899 108.529 56.5735C108.204 56.2415 107.751 56.0754 107.172 56.0754C106.599 56.0754 106.143 56.248 105.805 56.593C105.466 56.9381 105.271 57.511 105.219 58.3118L102.484 58.0383C102.647 56.5279 103.158 55.4439 104.018 54.7864C104.877 54.1288 105.951 53.8 107.24 53.8C108.653 53.8 109.763 54.1809 110.57 54.9426C111.378 55.7043 111.781 56.6516 111.781 57.7844C111.781 58.429 111.664 59.0442 111.43 59.6301C111.202 60.2096 110.837 60.8183 110.336 61.4563C110.004 61.8795 109.405 62.4882 108.539 63.2825C107.673 64.0767 107.123 64.6041 106.889 64.8645C106.661 65.1249 106.475 65.3788 106.332 65.6262H111.781ZM113.646 56.6028V54.054H123.031V56.0461C122.257 56.8079 121.469 57.9016 120.668 59.3274C119.867 60.7532 119.255 62.2701 118.832 63.8782C118.415 65.4797 118.21 66.912 118.217 68.175H115.57C115.616 66.1959 116.023 64.1777 116.791 62.1204C117.566 60.0631 118.598 58.2239 119.887 56.6028H113.646ZM127.133 60.4504C126.423 60.151 125.906 59.7408 125.58 59.22C125.261 58.6926 125.102 58.1165 125.102 57.4915C125.102 56.4237 125.473 55.5416 126.215 54.845C126.964 54.1484 128.025 53.8 129.398 53.8C130.759 53.8 131.814 54.1484 132.562 54.845C133.318 55.5416 133.695 56.4237 133.695 57.4915C133.695 58.1555 133.523 58.748 133.178 59.2688C132.833 59.7831 132.348 60.177 131.723 60.4504C132.517 60.7694 133.119 61.2349 133.529 61.8469C133.946 62.4589 134.154 63.1653 134.154 63.9661C134.154 65.2877 133.731 66.3619 132.885 67.1887C132.045 68.0155 130.925 68.429 129.525 68.429C128.223 68.429 127.139 68.0872 126.273 67.4036C125.251 66.5963 124.74 65.4895 124.74 64.0833C124.74 63.3085 124.932 62.5989 125.316 61.9543C125.701 61.3033 126.306 60.802 127.133 60.4504ZM127.699 57.6868C127.699 58.2336 127.852 58.6601 128.158 58.9661C128.471 59.2721 128.884 59.425 129.398 59.425C129.919 59.425 130.336 59.2721 130.648 58.9661C130.961 58.6536 131.117 58.2239 131.117 57.677C131.117 57.1627 130.961 56.7525 130.648 56.4465C130.342 56.134 129.936 55.9778 129.428 55.9778C128.9 55.9778 128.48 56.134 128.168 56.4465C127.855 56.759 127.699 57.1724 127.699 57.6868ZM127.445 63.8196C127.445 64.5748 127.637 65.164 128.021 65.5872C128.412 66.0103 128.897 66.2219 129.477 66.2219C130.043 66.2219 130.512 66.0201 130.883 65.6165C131.254 65.2063 131.439 64.6171 131.439 63.8489C131.439 63.1783 131.251 62.6412 130.873 62.2375C130.495 61.8274 130.017 61.6223 129.438 61.6223C128.767 61.6223 128.266 61.8534 127.934 62.3157C127.608 62.7779 127.445 63.2792 127.445 63.8196ZM135.971 64.8645L138.627 64.5715C138.692 65.1119 138.861 65.5123 139.135 65.7727C139.408 66.0331 139.77 66.1633 140.219 66.1633C140.785 66.1633 141.267 65.9029 141.664 65.3821C142.061 64.8612 142.315 63.7805 142.426 62.1399C141.736 62.9407 140.873 63.3411 139.838 63.3411C138.712 63.3411 137.738 62.9081 136.918 62.0422C136.104 61.1698 135.697 60.037 135.697 58.6438C135.697 57.192 136.127 56.0234 136.986 55.1379C137.852 54.246 138.952 53.8 140.287 53.8C141.739 53.8 142.93 54.3632 143.861 55.4895C144.792 56.6093 145.258 58.455 145.258 61.0266C145.258 63.6438 144.773 65.5318 143.803 66.6907C142.833 67.8495 141.57 68.429 140.014 68.429C138.894 68.429 137.989 68.1327 137.299 67.5403C136.609 66.9413 136.166 66.0494 135.971 64.8645ZM142.182 58.8684C142.182 57.983 141.977 57.2961 141.566 56.8079C141.163 56.3196 140.694 56.0754 140.16 56.0754C139.652 56.0754 139.229 56.2773 138.891 56.6809C138.559 57.078 138.393 57.7323 138.393 58.6438C138.393 59.5683 138.575 60.2486 138.939 60.6848C139.304 61.1145 139.76 61.3293 140.307 61.3293C140.834 61.3293 141.277 61.121 141.635 60.7043C141.999 60.2877 142.182 59.6757 142.182 58.8684ZM151.684 53.8C153.07 53.8 154.154 54.2948 154.936 55.2844C155.867 56.4563 156.332 58.3997 156.332 61.1145C156.332 63.8228 155.863 65.7694 154.926 66.9543C154.151 67.9309 153.07 68.4192 151.684 68.4192C150.29 68.4192 149.167 67.8853 148.314 66.8176C147.462 65.7434 147.035 63.8326 147.035 61.0852C147.035 58.3899 147.504 56.4498 148.441 55.2649C149.216 54.2883 150.297 53.8 151.684 53.8ZM151.684 56.0754C151.352 56.0754 151.055 56.1829 150.795 56.3977C150.535 56.606 150.333 56.9836 150.189 57.5305C150.001 58.2402 149.906 59.4348 149.906 61.1145C149.906 62.7942 149.991 63.9498 150.16 64.5813C150.329 65.2063 150.541 65.623 150.795 65.8313C151.055 66.0396 151.352 66.1438 151.684 66.1438C152.016 66.1438 152.312 66.0396 152.572 65.8313C152.833 65.6165 153.035 65.2356 153.178 64.6887C153.367 63.9856 153.461 62.7942 153.461 61.1145C153.461 59.4348 153.376 58.2825 153.207 57.6575C153.038 57.026 152.823 56.606 152.562 56.3977C152.309 56.1829 152.016 56.0754 151.684 56.0754Z" fill="black"/>
<path d="M2.71875 3.625C1.21777 3.625 0 4.84277 0 6.34375C0 7.19902 0.402148 8.00332 1.0875 8.51875L13.4125 17.7625C14.0582 18.2439 14.9418 18.2439 15.5875 17.7625L27.9125 8.51875C28.5979 8.00332 29 7.19902 29 6.34375C29 4.84277 27.7822 3.625 26.2812 3.625H2.71875ZM0 9.96875V21.75C0 23.7494 1.62559 25.375 3.625 25.375H25.375C27.3744 25.375 29 23.7494 29 21.75V9.96875L16.675 19.2125C15.3836 20.1811 13.6164 20.1811 12.325 19.2125L0 9.96875Z" fill="black"/>
<g clip-path="url(#clip0_152_155)">
<path d="M11.3738 47.2491C10.9828 46.3046 9.95195 45.8019 8.9668 46.071L4.49805 47.2898C3.61445 47.5335 3 48.3359 3 49.2499C3 61.8132 13.1867 71.9999 25.75 71.9999C26.6641 71.9999 27.4664 71.3855 27.7102 70.5019L28.9289 66.0331C29.198 65.048 28.6953 64.0171 27.7508 63.6261L22.8758 61.5948C22.048 61.2495 21.0883 61.4882 20.5246 62.1839L18.473 64.6874C14.898 62.9964 12.0035 60.1019 10.3125 56.5269L12.816 54.4804C13.5117 53.9116 13.7504 52.957 13.4051 52.1292L11.3738 47.2542V47.2491Z" fill="black"/>
</g>
<defs>
<clipPath id="clip0_152_155">
<rect width="26" height="26" fill="white" transform="translate(3 46)"/>
</clipPath>
</defs>
</svg>
