<svg width="500" height="500" viewBox="0 0 500 500" fill="none" xmlns="http://www.w3.org/2000/svg">
<path d="M167.19 71.92C167.19 71.92 91.4201 110.52 53.6301 170C15.8401 229.48 18.8301 306 64.7501 362.8C110.67 419.6 198.44 412.14 271.93 448.12C345.42 484.1 426.5 476.69 461.25 400.46C496 324.23 443.6 295.74 434.6 207.52C425.6 119.3 346.07 -9.88004 167.19 71.92Z" fill="#92C6E3"/>
<path opacity="0.7" d="M167.19 71.92C167.19 71.92 91.4201 110.52 53.6301 170C15.8401 229.48 18.8301 306 64.7501 362.8C110.67 419.6 198.44 412.14 271.93 448.12C345.42 484.1 426.5 476.69 461.25 400.46C496 324.23 443.6 295.74 434.6 207.52C425.6 119.3 346.07 -9.88004 167.19 71.92Z" fill="white"/>
<path d="M123.5 378.48C126.5 377.48 131.82 372.59 131.82 372.58C131.82 372.57 127.54 370.09 127.25 369.97C123.88 368.55 116.53 367.79 113.86 370.9C113.437 371.429 113.13 372.041 112.958 372.695C112.786 373.35 112.752 374.034 112.86 374.702C112.967 375.37 113.213 376.009 113.581 376.577C113.95 377.145 114.433 377.63 115 378C117.36 379.68 120.9 379.32 123.5 378.48Z" fill="#9C9C9C"/>
<path d="M178.91 331.34C178.98 331.34 176.71 326.91 176.53 326.64C174.53 323.64 168.79 318.91 164.85 320.03C164.2 320.234 163.601 320.573 163.09 321.024C162.58 321.475 162.17 322.028 161.887 322.647C161.604 323.267 161.455 323.939 161.448 324.62C161.442 325.301 161.579 325.975 161.85 326.6C162.92 329.28 166.07 330.94 168.71 331.67C171.81 332.53 178.9 331.35 178.91 331.34Z" fill="#9C9C9C"/>
<path d="M139.19 392.39C141.77 390.7 145.33 385.05 145.61 384.6C148.838 386.643 152.198 388.467 155.67 390.06C157.67 391 159.75 391.89 161.83 392.75C160.83 392.49 159.92 392.28 159.83 392.26C156.2 391.78 148.91 392.99 147.16 396.69C146.886 397.315 146.746 397.991 146.751 398.674C146.756 399.356 146.905 400.03 147.188 400.651C147.471 401.272 147.882 401.826 148.394 402.278C148.907 402.729 149.508 403.067 150.16 403.27C152.88 404.27 156.16 402.96 158.49 401.46C160.82 399.96 163.94 395.17 164.75 393.9L167.15 394.9C171 396.43 174.84 397.9 178.57 399.54C179.88 400.1 181.15 400.71 182.43 401.3C181.53 401.08 180.78 400.9 180.66 400.89C177.03 400.41 169.75 401.62 167.99 405.32C167.716 405.944 167.576 406.62 167.581 407.301C167.586 407.983 167.735 408.657 168.018 409.277C168.302 409.897 168.713 410.451 169.225 410.901C169.737 411.351 170.338 411.688 170.99 411.89C173.72 412.89 177.04 411.58 179.32 410.08C181.6 408.58 184.46 404.26 185.44 402.76C186.72 403.41 188.01 404.06 189.23 404.76C190.05 405.25 190.88 405.66 191.68 406.2L194.06 407.73C195.53 408.73 197.06 409.81 198.48 410.85C199.48 411.57 200.4 412.27 201.34 412.97C200.04 412.4 197.47 411.32 197.24 411.26C193.73 410.26 186.34 410.33 184.05 413.72C183.683 414.294 183.441 414.938 183.341 415.612C183.24 416.286 183.282 416.973 183.466 417.629C183.649 418.285 183.968 418.895 184.403 419.419C184.838 419.943 185.379 420.369 185.99 420.67C188.53 422.04 191.99 421.28 194.5 420.14C197.23 418.89 201.5 414.06 201.98 413.45C203.53 414.62 205.03 415.77 206.42 416.88C210.48 420.09 213.86 422.98 216.42 425.24L218.42 423.42C215.74 421.16 212.16 418.22 207.85 414.96C206.28 413.77 204.58 412.52 202.85 411.26C203.773 409.412 204.588 407.512 205.29 405.57C208.36 405.88 214.14 404.29 214.89 404.08C215.54 405.91 216.15 407.7 216.7 409.39C218.28 414.22 219.49 418.39 220.38 421.7L222.62 419.7C221.69 416.61 220.49 412.84 219 408.59C218.35 406.73 217.62 404.76 216.84 402.74C217.53 402.35 223.09 399.11 224.84 396.67C226.43 394.45 227.84 391.18 226.98 388.41C226.798 387.755 226.481 387.145 226.049 386.62C225.618 386.095 225.08 385.666 224.472 385.362C223.865 385.058 223.2 384.884 222.52 384.853C221.841 384.821 221.163 384.933 220.53 385.18C216.76 386.79 215.26 394.02 215.59 397.66C215.59 397.88 216.09 400.19 216.41 401.66C216.09 400.83 215.79 400.03 215.41 399.19C214.75 397.51 214.04 395.86 213.29 394.08C212.89 393.23 212.5 392.38 212.09 391.52C211.68 390.66 211.2 389.79 210.75 388.91C209.68 386.91 208.49 384.91 207.24 382.91C208.71 382.33 213.88 380.19 215.8 378.23C217.72 376.27 219.6 373.23 219.16 370.4C219.083 369.724 218.864 369.072 218.518 368.487C218.171 367.901 217.706 367.395 217.151 367.002C216.596 366.608 215.965 366.336 215.298 366.203C214.631 366.07 213.943 366.079 213.28 366.23C209.28 367.23 206.73 374.17 206.51 377.82C206.51 378.04 206.63 380.68 206.73 382.13C205.97 380.95 205.22 379.77 204.42 378.6C202.1 375.23 199.64 371.89 197.21 368.55C196.46 367.55 195.73 366.5 195 365.47C195.52 365.27 201.72 362.86 203.87 360.67C205.78 358.67 207.67 355.67 207.24 352.83C207.161 352.154 206.941 351.502 206.594 350.916C206.247 350.331 205.78 349.825 205.225 349.432C204.669 349.038 204.037 348.766 203.369 348.633C202.702 348.5 202.014 348.509 201.35 348.66C197.35 349.66 194.8 356.6 194.58 360.25C194.58 360.53 194.76 364.32 194.86 365.25C193.24 362.98 191.65 360.71 190.17 358.41C188.152 355.317 186.341 352.093 184.75 348.76C184.99 348.67 191.47 346.18 193.67 343.93C195.58 341.93 197.47 338.93 197.04 336.1C196.963 335.424 196.744 334.772 196.398 334.187C196.052 333.601 195.586 333.095 195.031 332.702C194.476 332.308 193.845 332.036 193.178 331.903C192.511 331.77 191.823 331.779 191.16 331.93C187.16 332.93 184.61 339.87 184.39 343.52C184.39 343.76 184.52 346.65 184.62 348.02L184.4 348.08C182.878 344.686 181.667 341.162 180.78 337.55C180.27 335.55 179.89 333.64 179.56 331.77C180.81 331.43 186.56 329.82 188.74 328.01C190.92 326.2 193.06 323.48 192.95 320.59C192.944 319.91 192.796 319.238 192.514 318.618C192.233 317.999 191.824 317.446 191.315 316.994C190.806 316.543 190.208 316.203 189.559 315.997C188.911 315.792 188.226 315.724 187.55 315.8C183.5 316.37 180.17 322.97 179.55 326.58C179.55 326.77 179.39 328.8 179.32 330.28C179.19 329.43 179.03 328.56 178.92 327.74C178.49 324.67 178.28 321.84 178.11 319.33C178.03 317.9 177.99 316.6 177.96 315.39C179.01 314.39 183.23 310.39 184.33 307.86C185.43 305.33 186.08 301.86 184.65 299.34C184.333 298.737 183.893 298.207 183.358 297.786C182.823 297.364 182.205 297.06 181.545 296.893C180.884 296.726 180.196 296.7 179.525 296.817C178.854 296.933 178.215 297.19 177.65 297.57C174.31 299.95 174.4 307.34 175.51 310.83C175.61 311.13 177.64 315.67 177.7 315.62L177.76 315.56C177.76 316.72 177.76 317.97 177.84 319.34C177.95 321.86 178.09 324.71 178.46 327.8C178.821 331.129 179.375 334.435 180.12 337.7C180.936 341.365 182.081 344.95 183.54 348.41L183.6 348.53C182.82 347.62 180.55 345.15 180.35 344.98C177.59 342.58 170.84 339.57 167.35 341.69C166.777 342.057 166.288 342.541 165.915 343.11C165.541 343.68 165.292 344.321 165.184 344.993C165.075 345.665 165.11 346.352 165.285 347.01C165.46 347.668 165.772 348.281 166.2 348.81C167.94 351.12 171.41 351.89 174.15 351.9C177.23 351.9 183.31 349.15 183.8 348.9C185.366 352.386 187.163 355.764 189.18 359.01C190.34 360.9 191.57 362.78 192.83 364.64C192.13 363.88 191.5 363.2 191.4 363.11C188.64 360.72 181.89 357.7 178.4 359.82C177.827 360.187 177.338 360.671 176.965 361.24C176.591 361.81 176.342 362.451 176.234 363.123C176.125 363.795 176.16 364.482 176.335 365.14C176.51 365.798 176.822 366.411 177.25 366.94C178.98 369.26 182.46 370.02 185.2 370.03C187.94 370.04 193.2 367.79 194.58 367.18C195.07 367.89 195.58 368.61 196.05 369.32C198.41 372.71 200.78 376.1 203.05 379.48C203.84 380.68 204.57 381.88 205.3 383.08C204.68 382.4 204.15 381.84 204.06 381.76C201.3 379.36 194.55 376.35 191.06 378.47C190.488 378.838 189.999 379.323 189.627 379.892C189.255 380.462 189.007 381.103 188.899 381.775C188.792 382.447 188.827 383.134 189.003 383.791C189.179 384.449 189.491 385.062 189.92 385.59C191.65 387.9 195.13 388.67 197.86 388.68C200.59 388.69 205.36 386.68 207 385.94C207.72 387.19 208.44 388.44 209.07 389.69C209.49 390.55 209.95 391.35 210.31 392.24C210.67 393.13 211.08 393.98 211.45 394.83C212.12 396.51 212.81 398.23 213.45 399.88C213.88 401.02 214.27 402.12 214.66 403.22C213.9 402.02 212.34 399.71 212.19 399.53C210.011 397.151 207.255 395.374 204.19 394.37C203.962 394.092 203.708 393.838 203.43 393.61C202.918 393.162 202.318 392.827 201.668 392.626C201.018 392.426 200.334 392.364 199.658 392.445C198.983 392.526 198.333 392.748 197.749 393.097C197.165 393.446 196.661 393.914 196.27 394.47C194.01 397.89 196.75 404.75 199.04 407.61C199.17 407.78 200.84 409.44 201.91 410.47L199.65 409C198.18 408 196.65 407 195.07 405.91L192.66 404.43C191.86 403.92 190.96 403.48 190.1 403C188.1 401.92 186.01 400.92 183.89 400C184.79 398.71 187.89 394.08 188.44 391.38C188.99 388.68 188.86 385.14 186.93 382.99C186.491 382.47 185.948 382.048 185.336 381.751C184.724 381.454 184.056 381.29 183.376 381.268C182.696 381.247 182.019 381.368 181.389 381.625C180.759 381.882 180.191 382.269 179.72 382.76C176.97 385.76 178.64 392.99 180.46 396.16C180.58 396.36 182.14 398.48 183.03 399.63C181.75 399.07 180.47 398.5 179.16 397.97C175.36 396.44 171.47 394.97 167.6 393.56C166.41 393.12 165.23 392.66 164.05 392.21C164.38 391.76 168.22 386.33 168.8 383.31C169.32 380.63 169.23 377.07 167.29 374.92C166.851 374.4 166.308 373.978 165.696 373.681C165.084 373.384 164.416 373.22 163.736 373.198C163.056 373.177 162.379 373.298 161.749 373.555C161.119 373.812 160.551 374.199 160.08 374.69C157.33 377.69 159 384.92 160.83 388.09C160.96 388.33 163.22 391.38 163.83 392.09C161.23 391.09 158.65 390.09 156.14 388.98C152.752 387.513 149.464 385.822 146.3 383.92C146.45 383.71 150.49 378.06 151.08 374.97C151.59 372.29 151.5 368.73 149.57 366.58C149.131 366.06 148.588 365.638 147.976 365.341C147.364 365.044 146.696 364.88 146.016 364.858C145.336 364.837 144.659 364.958 144.029 365.215C143.399 365.472 142.831 365.859 142.36 366.35C139.61 369.35 141.28 376.58 143.1 379.75C143.22 379.96 144.94 382.29 145.79 383.38L145.63 383.55C142.493 381.554 139.541 379.282 136.81 376.76C135.28 375.39 133.9 374 132.59 372.61C133.45 371.61 137.33 367.14 138.18 364.41C139.03 361.68 139.28 358.25 137.6 355.91C137.219 355.346 136.723 354.869 136.146 354.509C135.568 354.149 134.921 353.914 134.247 353.82C133.573 353.725 132.887 353.774 132.233 353.961C131.579 354.149 130.971 354.472 130.45 354.91C127.39 357.63 128.26 364.97 129.72 368.32C129.8 368.5 130.82 370.26 131.58 371.53C131 370.9 130.39 370.26 129.84 369.64C127.84 367.32 126.05 365.07 124.53 363.06C123.67 361.91 122.92 360.86 122.22 359.87C122.57 358.47 123.89 352.82 123.39 350.07C122.89 347.32 121.53 344.07 118.95 342.79C118.354 342.463 117.697 342.264 117.019 342.208C116.342 342.151 115.66 342.238 115.019 342.463C114.377 342.687 113.79 343.044 113.296 343.511C112.802 343.977 112.411 344.543 112.15 345.17C110.68 348.99 114.83 355.1 117.67 357.4C117.92 357.6 122.12 360.26 122.14 360.19C122.142 360.16 122.142 360.13 122.14 360.1C122.79 361.1 123.5 362.1 124.29 363.22C125.77 365.22 127.47 367.56 129.48 369.93C131.621 372.509 133.908 374.963 136.33 377.28C139.035 379.866 141.963 382.208 145.08 384.28L145.2 384.35C144.05 384.02 140.79 383.21 140.53 383.18C136.9 382.7 129.62 383.91 127.86 387.61C127.586 388.235 127.446 388.911 127.451 389.594C127.456 390.276 127.605 390.95 127.888 391.571C128.171 392.192 128.582 392.746 129.094 393.198C129.607 393.649 130.208 393.987 130.86 394.19C133.59 395.17 136.91 393.9 139.19 392.39Z" fill="#9C9C9C"/>
<path d="M326.28 138.71C328.42 142.29 336.13 147.54 336.14 147.54C336.15 147.54 338.06 141.41 338.14 141C338.96 136.33 337.8 126.81 333.14 124.33C332.348 123.939 331.483 123.72 330.601 123.686C329.718 123.651 328.839 123.803 328.019 124.132C327.199 124.46 326.458 124.957 325.843 125.591C325.228 126.225 324.753 126.981 324.45 127.81C323 131.29 324.46 135.67 326.28 138.71Z" fill="#9C9C9C"/>
<path d="M401.89 195.25C401.89 195.34 406.89 191.19 407.16 190.89C410.43 187.44 414.71 178.89 412.16 174.2C411.715 173.437 411.114 172.777 410.397 172.261C409.68 171.746 408.862 171.387 407.997 171.209C407.132 171.031 406.239 171.037 405.376 171.226C404.514 171.416 403.701 171.785 402.99 172.31C399.9 174.44 398.71 178.9 398.54 182.44C398.35 186.6 401.89 195.24 401.89 195.25Z" fill="#9C9C9C"/>
<path d="M313.19 162.58C316.08 165.35 324.26 168.23 324.91 168.45C323.26 173.126 321.923 177.906 320.91 182.76C320.3 185.58 319.77 188.45 319.28 191.33C319.28 189.98 319.28 188.77 319.28 188.6C318.84 183.88 315.21 175 310.02 173.85C309.152 173.681 308.259 173.697 307.398 173.896C306.537 174.096 305.728 174.474 305.023 175.007C304.319 175.54 303.734 176.216 303.308 176.99C302.882 177.764 302.623 178.619 302.55 179.5C302.11 183.23 304.69 187.07 307.25 189.5C309.81 191.93 316.77 194.59 318.61 195.25C318.43 196.35 318.24 197.46 318.07 198.56C317.24 203.87 316.44 209.17 315.49 214.35C315.16 216.17 314.76 217.96 314.37 219.75C314.37 218.55 314.37 217.54 314.37 217.39C313.93 212.66 310.3 203.79 305.11 202.63C304.242 202.463 303.349 202.48 302.489 202.681C301.629 202.881 300.82 203.261 300.117 203.795C299.413 204.329 298.829 205.005 298.404 205.78C297.979 206.554 297.722 207.41 297.65 208.29C297.21 212.01 299.78 215.85 302.34 218.29C304.9 220.73 311.19 223.11 313.34 223.91C312.89 225.73 312.44 227.55 311.92 229.29C311.53 230.47 311.25 231.63 310.8 232.8L309.54 236.25C308.67 238.41 307.78 240.65 306.87 242.75C306.25 244.2 305.63 245.58 305.01 246.97C305.36 245.16 306.01 241.6 306.01 241.3C306.29 236.56 304.01 227.24 299.09 225.3C298.257 225.002 297.372 224.882 296.49 224.949C295.609 225.016 294.751 225.269 293.974 225.69C293.196 226.11 292.516 226.69 291.978 227.392C291.439 228.093 291.055 228.9 290.85 229.76C289.85 233.37 291.85 237.56 293.97 240.37C296.35 243.47 303.68 247.43 304.6 247.92C303.6 250.21 302.54 252.44 301.54 254.52C298.64 260.59 295.96 265.69 293.84 269.6L296.73 271.66C298.83 267.66 301.51 262.25 304.39 255.85C305.45 253.52 306.54 251.01 307.63 248.42C310.231 249.063 312.869 249.547 315.53 249.87C316.03 253.87 319.7 260.71 320.18 261.59C318.05 262.94 315.97 264.23 313.98 265.41C308.33 268.81 303.36 271.55 299.47 273.62L302.62 275.87C306.27 273.81 310.69 271.21 315.62 268.1C317.79 266.74 320.08 265.24 322.41 263.68C323.1 264.44 328.8 270.54 332.41 272.06C335.68 273.43 340.22 274.28 343.47 272.39C344.249 271.975 344.933 271.4 345.475 270.702C346.017 270.005 346.406 269.201 346.617 268.343C346.827 267.486 346.854 266.593 346.696 265.724C346.538 264.855 346.199 264.029 345.7 263.3C342.58 258.99 333 259.18 328.48 260.65C328.22 260.74 325.43 262 323.69 262.83C324.64 262.19 325.57 261.57 326.54 260.9C328.47 259.58 330.36 258.21 332.39 256.75L335.29 254.5C336.29 253.76 337.22 252.87 338.2 252.05C340.43 250.11 342.6 248.05 344.73 245.89C345.89 247.57 350.09 253.5 353.12 255.36C356.15 257.22 360.51 258.74 364 257.36C364.833 257.067 365.596 256.602 366.238 255.995C366.88 255.388 367.387 254.652 367.725 253.836C368.064 253.02 368.227 252.142 368.204 251.259C368.18 250.375 367.971 249.507 367.59 248.71C365.16 243.98 355.65 242.71 350.97 243.48C350.68 243.53 347.38 244.48 345.58 245C346.85 243.71 348.13 242.42 349.37 241.06C352.97 237.16 356.49 233.06 360.01 229.06C361.09 227.82 362.19 226.6 363.27 225.38C363.68 225.98 368.51 233.13 371.91 235.22C374.91 237.07 379.3 238.6 382.8 237.22C383.633 236.926 384.394 236.46 385.035 235.853C385.676 235.245 386.182 234.51 386.519 233.694C386.857 232.878 387.019 232 386.995 231.117C386.971 230.234 386.761 229.366 386.38 228.57C383.95 223.84 374.44 222.57 369.76 223.34C369.41 223.39 364.66 224.74 363.47 225.14C365.87 222.44 368.28 219.77 370.77 217.23C374.108 213.79 377.665 210.57 381.42 207.59C381.61 207.87 386.62 215.36 390.1 217.5C393.1 219.35 397.49 220.87 400.99 219.5C401.823 219.206 402.584 218.74 403.225 218.133C403.866 217.525 404.372 216.79 404.709 215.974C405.047 215.158 405.209 214.28 405.185 213.397C405.161 212.514 404.951 211.646 404.57 210.85C402.14 206.12 392.63 204.85 387.95 205.63C387.64 205.63 384.03 206.7 382.32 207.22L382.18 206.95C386.043 204.054 390.155 201.507 394.47 199.34C396.83 198.12 399.15 197.09 401.47 196.13C402.26 197.62 405.95 204.39 408.87 206.66C411.79 208.93 415.87 210.83 419.47 209.85C420.329 209.65 421.137 209.27 421.841 208.737C422.544 208.204 423.128 207.529 423.553 206.756C423.978 205.982 424.236 205.128 424.31 204.248C424.383 203.369 424.271 202.483 423.98 201.65C422.08 196.65 412.78 194.37 408.04 194.65C407.78 194.65 405.17 195.1 403.28 195.43C404.28 195.02 405.38 194.57 406.38 194.19C410.14 192.76 413.66 191.68 416.8 190.75C418.58 190.23 420.21 189.75 421.73 189.41C423.27 190.47 429.52 194.66 433.1 195.31C436.68 195.96 441.21 195.8 443.97 193.26C444.641 192.686 445.183 191.977 445.562 191.179C445.941 190.381 446.147 189.512 446.168 188.629C446.189 187.746 446.023 186.869 445.682 186.054C445.342 185.239 444.833 184.505 444.19 183.9C440.19 180.37 430.9 182.61 426.81 185.01C426.45 185.22 421.3 189.11 421.38 189.17L421.47 189.23C420 189.57 418.42 189.96 416.7 190.41C413.55 191.28 409.98 192.29 406.18 193.64C402.067 195.073 398.04 196.742 394.12 198.64C389.72 200.732 385.514 203.208 381.55 206.04L381.42 206.15C382.34 204.9 384.82 201.32 384.98 201.02C387.22 196.83 389.09 187.43 385.4 183.6C384.767 182.984 384.013 182.507 383.184 182.2C382.356 181.894 381.473 181.765 380.591 181.822C379.71 181.878 378.85 182.119 378.068 182.529C377.286 182.938 376.598 183.508 376.05 184.2C373.63 187.07 373.66 191.69 374.44 195.15C375.32 199.05 380.55 205.96 380.97 206.51C377.011 209.496 373.256 212.744 369.73 216.23C367.66 218.23 365.65 220.35 363.65 222.48C364.42 221.37 365.09 220.37 365.17 220.22C367.41 216.04 369.28 206.63 365.59 202.81C364.96 202.191 364.206 201.712 363.378 201.404C362.551 201.096 361.667 200.966 360.786 201.022C359.904 201.079 359.045 201.321 358.263 201.732C357.481 202.144 356.795 202.715 356.25 203.41C353.82 206.27 353.85 210.89 354.63 214.35C355.41 217.81 359.77 223.85 360.94 225.41L358.66 227.88C355.04 231.88 351.45 235.83 347.8 239.62C346.52 240.96 345.2 242.23 343.89 243.51C344.57 242.51 345.14 241.69 345.21 241.51C347.45 237.33 349.32 227.92 345.63 224.1C344.999 223.482 344.245 223.003 343.417 222.695C342.589 222.387 341.705 222.256 340.823 222.312C339.942 222.368 339.081 222.608 338.299 223.018C337.516 223.427 336.828 223.997 336.28 224.69C333.86 227.56 333.89 232.18 334.67 235.64C335.45 239.1 339.38 244.55 340.77 246.42C339.39 247.68 338.01 248.95 336.61 250.12C335.61 250.89 334.76 251.7 333.74 252.43L330.79 254.61C328.87 255.94 326.89 257.31 324.98 258.56C323.65 259.43 322.38 260.24 321.09 261.06C322.39 259.74 324.87 257.11 325.09 256.87C327.468 253.435 328.928 249.449 329.33 245.29C329.612 244.92 329.86 244.525 330.07 244.11C330.489 243.332 330.74 242.475 330.806 241.594C330.873 240.713 330.753 239.828 330.455 238.996C330.157 238.164 329.687 237.404 329.076 236.766C328.466 236.127 327.727 235.625 326.91 235.29C321.91 233.42 314.04 238.86 311.09 242.58C310.91 242.8 309.29 245.39 308.29 247.04C308.73 245.98 309.17 244.96 309.61 243.86C310.49 241.7 311.31 239.52 312.19 237.17C312.58 236.02 312.98 234.86 313.37 233.69C313.76 232.52 314.08 231.27 314.45 230.05C315.24 227.19 315.9 224.27 316.5 221.3C318.39 222.07 325.16 224.7 328.72 224.58C332.28 224.46 336.72 223.32 338.91 220.25C339.442 219.545 339.82 218.736 340.019 217.876C340.218 217.015 340.234 216.123 340.065 215.256C339.896 214.389 339.547 213.567 339.039 212.844C338.532 212.121 337.878 211.513 337.12 211.06C332.49 208.45 323.86 212.64 320.38 215.86C320.16 216.07 317.92 218.66 316.72 220.11C317.06 218.33 317.42 216.55 317.72 214.73C318.56 209.48 319.25 204.15 319.97 198.83C320.18 197.2 320.42 195.58 320.65 193.96C321.32 194.24 329.3 197.54 333.29 197.4C336.83 197.28 341.29 196.14 343.47 193.07C344.003 192.366 344.381 191.558 344.581 190.697C344.781 189.837 344.797 188.945 344.629 188.078C344.462 187.211 344.113 186.389 343.607 185.666C343.1 184.943 342.447 184.334 341.69 183.88C337.05 181.28 328.42 185.46 324.94 188.69C324.68 188.93 321.46 192.69 320.69 193.69C321.2 190.12 321.69 186.56 322.41 183.07C323.307 178.355 324.506 173.702 326 169.14C326.31 169.27 334.62 172.76 338.71 172.62C342.25 172.49 346.71 171.36 348.89 168.29C349.423 167.585 349.802 166.776 350.001 165.915C350.201 165.054 350.218 164.161 350.05 163.293C349.882 162.426 349.534 161.603 349.027 160.879C348.52 160.155 347.867 159.545 347.11 159.09C342.47 156.49 333.85 160.67 330.36 163.9C330.13 164.11 327.68 166.96 326.54 168.34L326.28 168.19C327.884 163.646 329.892 159.255 332.28 155.07C333.58 152.75 334.94 150.6 336.28 148.54C337.76 149.35 344.57 152.96 348.28 153.25C351.82 153.51 356.39 152.87 358.88 150.06C359.486 149.418 359.951 148.656 360.243 147.822C360.535 146.989 360.649 146.103 360.576 145.223C360.503 144.343 360.246 143.488 359.821 142.714C359.396 141.94 358.813 141.264 358.11 140.73C353.79 137.63 344.76 140.84 340.94 143.67C340.74 143.82 338.8 145.61 337.41 146.94C338.04 146.02 338.68 145.06 339.31 144.19C341.65 140.93 344 138.08 346.09 135.57C347.3 134.16 348.42 132.9 349.47 131.74C351.34 131.74 358.87 131.82 362.21 130.39C365.55 128.96 369.21 126.32 370.15 122.68C370.393 121.829 370.454 120.937 370.328 120.061C370.203 119.185 369.894 118.346 369.422 117.597C368.951 116.849 368.326 116.208 367.59 115.718C366.854 115.227 366.022 114.897 365.15 114.75C359.89 113.99 353.35 121.01 351.26 125.27C351.08 125.64 348.93 131.73 349.02 131.73H349.14C348.14 132.83 346.99 134.02 345.81 135.35C343.66 137.81 341.24 140.62 338.81 143.84C336.16 147.292 333.712 150.894 331.48 154.63C328.966 158.802 326.827 163.189 325.09 167.74L325.03 167.91C325.12 166.35 325.2 162 325.17 161.66C324.73 156.93 321.1 148.06 315.91 146.91C315.043 146.743 314.151 146.76 313.291 146.96C312.432 147.16 311.624 147.539 310.92 148.072C310.216 148.605 309.633 149.28 309.207 150.053C308.782 150.826 308.524 151.68 308.45 152.56C308.06 156.29 310.63 160.13 313.19 162.58Z" fill="#9C9C9C"/>
<path d="M373.67 338.61V335.26C373.67 318.01 395.51 317.26 395.51 304.98C395.51 299.65 391.17 296.17 384.71 296.17C377.64 296.17 373.17 300.02 373.17 305.48V306.85C373.17 308.21 372.43 308.85 371.06 308.85L357.79 308.35C356.55 308.35 355.68 307.73 355.68 306.87V305.5C355.68 290.5 367.59 280.19 385.09 280.19C402.21 280.19 413.25 289.87 413.25 304.38C413.25 324.98 391.04 325.11 391.04 336.38V338.61C391.074 338.895 391.043 339.184 390.948 339.456C390.854 339.727 390.7 339.974 390.497 340.177C390.294 340.38 390.047 340.534 389.776 340.628C389.505 340.722 389.215 340.754 388.93 340.72H375.78C375.495 340.754 375.206 340.722 374.934 340.628C374.663 340.534 374.417 340.38 374.214 340.177C374.01 339.974 373.856 339.727 373.762 339.456C373.668 339.184 373.636 338.895 373.67 338.61ZM372.55 358.61C372.55 353.15 377.39 348.68 383.22 348.68C388.81 348.68 393.77 353.15 393.77 358.61C393.77 364.07 388.77 368.54 383.1 368.54C377.43 368.54 372.55 364.05 372.55 358.59V358.61Z" fill="#263238"/>
<path d="M111.47 196.51V193.6C111.47 178.6 130.47 177.97 130.47 167.3C130.47 162.66 126.7 159.65 121.1 159.65C114.95 159.65 111.1 162.99 111.1 167.73V168.92C111.1 170.1 110.46 170.64 109.27 170.64L97.7402 170.21C96.6602 170.21 95.9102 169.67 95.9102 168.92V167.73C95.9102 154.73 106.25 145.73 121.45 145.73C136.32 145.73 145.92 154.14 145.92 166.73C145.92 184.62 126.62 184.73 126.62 194.54V196.48C126.649 196.727 126.621 196.978 126.54 197.213C126.458 197.448 126.324 197.662 126.148 197.838C125.972 198.014 125.758 198.148 125.523 198.23C125.288 198.311 125.037 198.339 124.79 198.31H113.3C113.056 198.338 112.808 198.311 112.575 198.231C112.343 198.151 112.131 198.02 111.955 197.847C111.78 197.674 111.645 197.465 111.561 197.233C111.477 197.002 111.446 196.755 111.47 196.51ZM110.47 213.86C110.47 209.12 114.67 205.24 119.73 205.24C124.58 205.24 128.9 209.12 128.9 213.86C128.9 218.6 124.58 222.48 119.63 222.48C117.279 222.539 114.999 221.666 113.289 220.051C111.578 218.437 110.576 216.211 110.5 213.86H110.47Z" fill="#92C6E3"/>
<path d="M352.83 81.76V80.29C352.83 72.72 362.41 72.39 362.41 67C362.41 64.66 360.5 63.13 357.67 63.13C354.57 63.13 352.61 64.82 352.61 67.22V67.82C352.61 68.42 352.28 68.69 351.68 68.69L345.86 68.47C345.31 68.47 344.93 68.2 344.93 67.82V67.22C344.93 60.63 350.16 56.11 357.84 56.11C365.35 56.11 370.2 60.36 370.2 66.73C370.2 75.73 360.45 75.82 360.45 80.73V81.73C360.465 81.8552 360.451 81.9822 360.409 82.1012C360.367 82.2202 360.299 82.3281 360.21 82.4168C360.12 82.5055 360.011 82.5726 359.892 82.613C359.772 82.6534 359.645 82.666 359.52 82.65H353.75C353.628 82.6655 353.504 82.6534 353.388 82.6146C353.271 82.5759 353.165 82.5114 353.076 82.4259C352.988 82.3405 352.92 82.2363 352.878 82.121C352.835 82.0057 352.819 81.8823 352.83 81.76ZM352.34 90.53C352.276 89.5949 352.495 88.6622 352.968 87.8531C353.441 87.044 354.146 86.3959 354.992 85.9932C355.839 85.5904 356.787 85.4516 357.713 85.5948C358.639 85.7381 359.501 86.1567 360.186 86.7962C360.871 87.4358 361.348 88.2666 361.554 89.1808C361.761 90.095 361.688 91.0502 361.344 91.9222C361 92.7942 360.402 93.5426 359.628 94.0701C358.853 94.5976 357.937 94.8798 357 94.88C356.408 94.9014 355.818 94.8057 355.263 94.5985C354.708 94.3913 354.2 94.0766 353.767 93.6724C353.334 93.2683 352.985 92.7827 352.74 92.2434C352.496 91.7042 352.36 91.1219 352.34 90.53Z" fill="#92C6E3"/>
<path d="M72 284V282.15C72 272.61 84.08 272.2 84.08 265.4C84.08 262.45 81.68 260.53 78.08 260.53C74.17 260.53 71.7 262.66 71.7 265.68V266.43C71.7 267.19 71.29 267.53 70.53 267.53L63.19 267.26C62.5 267.26 62.02 266.91 62.02 266.43V265.68C62.02 257.38 68.61 251.68 78.29 251.68C87.76 251.68 93.86 257.03 93.86 265.06C93.86 276.45 81.58 276.52 81.58 282.77V284C81.5994 284.158 81.5825 284.319 81.5306 284.47C81.4787 284.62 81.3931 284.757 81.2803 284.87C81.1675 284.983 81.0305 285.069 80.8797 285.121C80.729 285.172 80.5683 285.189 80.41 285.17H73.15C72.9933 285.186 72.8349 285.167 72.6867 285.113C72.5384 285.06 72.4041 284.974 72.2937 284.861C72.1832 284.749 72.0995 284.613 72.0486 284.464C71.9978 284.315 71.9812 284.156 72 284ZM71.38 295.05C71.3017 293.872 71.5799 292.697 72.1784 291.68C72.7769 290.662 73.6679 289.848 74.7355 289.343C75.8031 288.839 76.9978 288.668 78.1641 288.852C79.3304 289.036 80.4142 289.567 81.2745 290.376C82.1348 291.185 82.7317 292.234 82.9874 293.386C83.2432 294.539 83.1461 295.742 82.7086 296.839C82.2711 297.935 81.5136 298.875 80.5347 299.535C79.5557 300.195 78.4007 300.545 77.22 300.54C75.7151 300.588 74.2524 300.037 73.1536 299.008C72.0547 297.979 71.4096 296.555 71.36 295.05H71.38Z" stroke="#263238" stroke-miterlimit="10"/>
<path d="M164 111.38V110.11C164 103.55 172.31 103.26 172.31 98.59C172.31 96.59 170.66 95.24 168.2 95.24C165.51 95.24 163.81 96.7 163.81 98.78V99.3C163.81 99.82 163.53 100.05 163.01 100.05L158.01 99.86C157.54 99.86 157.21 99.63 157.21 99.3V98.78C157.21 93.07 161.74 89.15 168.39 89.15C175.04 89.15 179 92.83 179 98.35C179 106.19 170.55 106.24 170.55 110.53V111.38C170.563 111.488 170.551 111.598 170.515 111.701C170.48 111.804 170.421 111.897 170.344 111.974C170.267 112.051 170.174 112.11 170.071 112.145C169.968 112.181 169.858 112.193 169.75 112.18H164.75C164.646 112.185 164.542 112.167 164.445 112.128C164.348 112.089 164.261 112.029 164.19 111.953C164.119 111.877 164.065 111.787 164.032 111.688C163.999 111.589 163.988 111.484 164 111.38ZM163.58 118.98C163.536 118.181 163.733 117.387 164.145 116.701C164.556 116.015 165.165 115.468 165.891 115.131C166.617 114.795 167.427 114.683 168.217 114.812C169.007 114.941 169.74 115.303 170.321 115.853C170.903 116.402 171.306 117.114 171.479 117.895C171.652 118.677 171.587 119.492 171.292 120.236C170.997 120.979 170.485 121.618 169.823 122.068C169.162 122.518 168.38 122.759 167.58 122.76C166.547 122.795 165.543 122.419 164.787 121.714C164.031 121.009 163.586 120.033 163.55 119L163.58 118.98Z" fill="#263238"/>
<path d="M312 385.53V384.26C312 377.7 320.31 377.42 320.31 372.74C320.31 370.74 318.66 369.39 316.2 369.39C313.51 369.39 311.81 370.85 311.81 372.93V373.45C311.81 373.97 311.53 374.21 311.01 374.21L306.01 374.02C305.54 374.02 305.21 373.78 305.21 373.45V372.93C305.21 367.22 309.74 363.3 316.39 363.3C323.04 363.3 327.11 366.98 327.11 372.51C327.11 380.34 318.66 380.39 318.66 384.68V385.53C318.673 385.639 318.661 385.749 318.625 385.852C318.589 385.955 318.531 386.049 318.454 386.127C318.377 386.205 318.284 386.264 318.181 386.301C318.078 386.338 317.969 386.351 317.86 386.34H312.86C312.747 386.362 312.63 386.356 312.519 386.324C312.409 386.291 312.307 386.233 312.224 386.154C312.14 386.075 312.076 385.977 312.037 385.869C311.998 385.761 311.985 385.644 312 385.53ZM311.58 393.13C311.536 392.331 311.733 391.537 312.145 390.851C312.556 390.165 313.165 389.618 313.891 389.281C314.617 388.945 315.427 388.833 316.217 388.962C317.007 389.091 317.74 389.453 318.321 390.003C318.903 390.552 319.306 391.264 319.479 392.045C319.652 392.827 319.587 393.642 319.292 394.386C318.997 395.129 318.485 395.768 317.823 396.218C317.162 396.668 316.38 396.909 315.58 396.91C314.551 396.934 313.553 396.55 312.806 395.842C312.058 395.134 311.621 394.159 311.59 393.13H311.58Z" stroke="#263238" stroke-miterlimit="10"/>
<path d="M272.85 408.29C272.78 408.08 272.71 407.87 272.63 407.66C272.55 407.45 272.49 407.23 272.41 407.02C272.33 406.81 272.27 406.6 272.19 406.39C272.11 406.18 272.05 405.96 271.97 405.75C271.89 405.54 271.83 405.33 271.75 405.12C271.67 404.91 271.61 404.69 271.53 404.48L271.31 403.85C271.24 403.63 271.16 403.42 271.09 403.21L270.87 402.58C270.8 402.36 270.72 402.15 270.65 401.94L270.43 401.31C270.36 401.09 270.28 400.88 270.21 400.67L270 400C269.93 399.78 269.85 399.57 269.78 399.36L269.55 398.73C269.48 398.51 269.41 398.3 269.33 398.09C269.25 397.88 269.19 397.67 269.11 397.46C269.03 397.25 268.97 397.03 268.89 396.82C268.81 396.61 268.75 396.4 268.67 396.19C265.41 386.27 255.33 378.99 244.24 378.99C233.49 378.99 224.14 385.25 220.24 394.07C220.14 394.27 220.05 394.48 219.96 394.68L219.69 395.3C219.59 395.5 219.5 395.7 219.41 395.91C219.32 396.12 219.22 396.32 219.13 396.52L218.86 397.13C218.76 397.34 218.67 397.54 218.58 397.75C218.49 397.96 218.39 398.15 218.3 398.36C218.21 398.57 218.11 398.76 218.02 398.97L217.75 399.58C217.65 399.78 217.56 399.99 217.47 400.19C217.38 400.39 217.28 400.6 217.19 400.8L216.92 401.42C216.82 401.62 216.73 401.82 216.64 402.03C216.55 402.24 216.45 402.44 216.36 402.64L216.09 403.25C215.99 403.46 215.9 403.66 215.81 403.87C215.72 404.08 215.62 404.27 215.53 404.48L215.26 405.09C215.16 405.29 215.07 405.5 214.98 405.7C214.89 405.9 214.79 406.11 214.7 406.32C212.984 409.974 212.103 413.963 212.12 418C212.12 434.1 226.02 447.26 243.21 447.26C260.03 447.26 274.66 434.1 274.66 418C274.657 414.93 274.119 411.885 273.07 409C273 408.71 272.93 408.5 272.85 408.29Z" fill="#263238"/>
<path d="M249.06 186.8C197.49 186.8 162.38 217.15 162.38 261.41V265.41C162.389 266.071 162.569 266.718 162.902 267.29C163.235 267.861 163.709 268.336 164.28 268.67C164.496 268.878 164.73 269.065 164.98 269.23C165.197 269.441 165.435 269.628 165.69 269.79C165.907 270.001 166.145 270.188 166.4 270.35C166.615 270.563 166.853 270.751 167.11 270.91C167.323 271.121 167.558 271.308 167.81 271.47C168.026 271.684 168.264 271.875 168.52 272.04C168.739 272.248 168.977 272.435 169.23 272.6C169.447 272.81 169.685 272.998 169.94 273.16C170.154 273.37 170.388 273.558 170.64 273.72C170.875 273.947 171.133 274.148 171.41 274.32C171.614 274.506 171.831 274.676 172.06 274.83C172.279 275.038 172.517 275.225 172.77 275.39C172.986 275.598 173.22 275.785 173.47 275.95C173.689 276.158 173.927 276.345 174.18 276.51C174.397 276.72 174.635 276.908 174.89 277.07C175.104 277.28 175.338 277.468 175.59 277.63C175.807 277.84 176.045 278.028 176.3 278.19C176.514 278.4 176.748 278.588 177 278.75C177.219 278.958 177.457 279.145 177.71 279.31C177.924 279.52 178.158 279.708 178.41 279.87C179.565 280.887 181.073 281.411 182.61 281.33L214.77 282.53C218.08 282.53 219.88 281.03 219.88 277.72V274.42C219.88 261.19 230.7 251.88 247.88 251.88C263.51 251.88 274.03 260.29 274.03 273.22C274.03 274.693 273.89 276.163 273.61 277.61C257.47 298.77 215.46 308.1 215.46 349.17V359.05C215.46 363.05 217.65 365.26 221.68 365.26H260.4C264.4 365.26 266.62 363.07 266.62 359.05V352.46C266.62 319.18 332.09 318.81 332.09 258.1C332.09 215.32 299.53 186.8 249.06 186.8Z" fill="#263238"/>
<path d="M215.41 359.07V349.19C215.41 298.35 279.78 296.19 279.78 259.95C279.78 244.22 266.98 233.95 247.96 233.95C227.11 233.95 213.96 245.29 213.96 261.38V265.38C213.96 269.38 211.76 271.24 207.74 271.24L168.6 269.77C164.95 269.77 162.39 267.94 162.39 265.38V261.38C162.39 217.12 197.5 186.77 249.07 186.77C299.54 186.77 332.07 215.29 332.07 258.09C332.07 318.8 266.6 319.17 266.6 352.45V359.04C266.6 363.04 264.4 365.25 260.38 365.25H221.63C217.6 365.28 215.41 363.09 215.41 359.07ZM212.12 418C212.12 401.91 226.38 388.74 243.57 388.74C260.03 388.74 274.66 401.91 274.66 418C274.66 434.09 260 447.21 243.21 447.21C226 447.21 212.12 434.05 212.12 418Z" fill="#92C6E3" stroke="#92C6E3" stroke-miterlimit="10"/>
<path d="M241.61 480C271.77 480 296.22 474.533 296.22 467.79C296.22 461.047 271.77 455.58 241.61 455.58C211.45 455.58 187 461.047 187 467.79C187 474.533 211.45 480 241.61 480Z" fill="#263238"/>
<path d="M199.87 190.85L197.78 195.41C197.78 195.41 185.64 196.72 185.64 197.63C185.64 198.54 185.77 204.81 186.43 205.07C186.932 205.265 187.488 205.265 187.99 205.07L205.87 200.5L207.57 192.41L199.87 190.85Z" fill="white" stroke="#263238" stroke-linecap="round" stroke-linejoin="round"/>
<path d="M196.47 199C194.25 200.819 191.855 202.413 189.32 203.76C186.43 205.06 186.32 207.03 187.24 207.03C188.16 207.03 196.32 203.61 196.32 203.61C196.32 203.61 203.73 201.67 204.8 201.08C205.87 200.49 205.99 197.21 205.99 197.21" fill="white"/>
<path d="M196.47 199C194.25 200.819 191.855 202.413 189.32 203.76C186.43 205.06 186.32 207.03 187.24 207.03C188.16 207.03 196.32 203.61 196.32 203.61C196.32 203.61 203.73 201.67 204.8 201.08C205.87 200.49 205.99 197.21 205.99 197.21" stroke="#263238" stroke-linecap="round" stroke-linejoin="round"/>
<path d="M210.55 103.23L203.09 160.41L197.9 191.37L209.42 194.09L218.01 157.47L222.08 134.42L210.55 103.23Z" fill="#7D7D7D" stroke="#263238" stroke-linecap="round" stroke-linejoin="round"/>
<path d="M270.75 61.83L266.2 61.11L256.88 57.58L256.54 68.65L270.99 69.98L270.75 61.83Z" fill="white" stroke="#263238" stroke-linecap="round" stroke-linejoin="round"/>
<path d="M217.56 264.6C214.169 268.554 211.001 272.694 208.07 277C204.22 282.88 205.58 289.2 210.33 290.79C215.08 292.38 221.17 288.07 222.76 284.68C224.35 281.29 223.89 279.49 226.37 276.1C228.85 272.71 230.89 269.32 229.99 264.8C229.09 260.28 220 261.44 217.56 264.6Z" fill="#7D7D7D" stroke="#263238" stroke-linecap="round" stroke-linejoin="round"/>
<path d="M222.3 285.53C221.98 284.85 221.61 284.13 221.17 283.36C217.54 276.97 211.17 277.48 207.17 278.67C204.54 284.04 206.04 289.38 210.35 290.82C214.66 292.26 220.22 288.74 222.3 285.53Z" fill="white" stroke="#263238" stroke-linecap="round" stroke-linejoin="round"/>
<path d="M221.17 283.36C219.82 285.36 218.01 290.82 211 288.56C209.045 288.058 207.297 286.957 206 285.41C206.152 286.63 206.641 287.782 207.413 288.738C208.185 289.694 209.21 290.415 210.37 290.82C215.11 292.4 221.21 288.1 222.8 284.71C224.39 281.32 223.93 279.52 226.41 276.13C228.89 272.74 230.93 269.35 230.03 264.83C230.03 270.25 228.03 271.15 225.51 274.09C222.99 277.03 222.53 281.32 221.17 283.36Z" fill="white" stroke="#263238" stroke-linecap="round" stroke-linejoin="round"/>
<path d="M284.25 264.6C287.641 268.554 290.809 272.694 293.74 277C297.59 282.88 296.23 289.2 291.48 290.79C286.73 292.38 280.64 288.07 279.05 284.68C277.46 281.29 277.92 279.49 275.44 276.1C272.96 272.71 270.92 269.32 271.82 264.8C272.72 260.28 281.77 261.44 284.25 264.6Z" fill="#7D7D7D" stroke="#263238" stroke-linecap="round" stroke-linejoin="round"/>
<path d="M279.52 285.53C279.83 284.85 280.2 284.13 280.64 283.36C284.27 276.97 290.64 277.48 294.64 278.67C297.27 284.04 295.77 289.38 291.46 290.82C287.15 292.26 281.59 288.74 279.52 285.53Z" fill="white" stroke="#263238" stroke-linecap="round" stroke-linejoin="round"/>
<path d="M280.64 283.36C281.99 285.36 283.8 290.82 290.81 288.56C292.765 288.058 294.513 286.957 295.81 285.41C295.659 286.63 295.169 287.782 294.397 288.738C293.625 289.694 292.6 290.415 291.44 290.82C286.7 292.4 280.6 288.1 279.01 284.71C277.42 281.32 277.88 279.52 275.4 276.13C272.92 272.74 270.88 269.35 271.78 264.83C271.78 270.25 273.78 271.15 276.3 274.09C278.82 277.03 279.28 281.32 280.64 283.36Z" fill="white" stroke="#263238" stroke-linecap="round" stroke-linejoin="round"/>
<path d="M294.85 186.63C294.85 182.56 287.85 178.04 287.85 178.04C277.3 167.31 258.26 168.73 251.23 169.69C244.23 168.69 225.17 167.31 214.62 178.04C214.62 178.04 207.62 182.56 207.62 186.63C207.62 190.7 216.44 264.15 216.44 264.15C216.44 264.15 216.21 267.99 222.54 268.44C228.87 268.89 231.54 265.28 231.54 265.28L234.03 203.13C234.03 203.13 244.2 195.89 246.03 195.67C246.69 195.58 247.55 195.44 248.51 195.32V195.44C250.301 195.067 252.149 195.067 253.94 195.44V195.32C254.94 195.44 255.75 195.58 256.42 195.67C258.23 195.89 268.42 203.13 268.42 203.13L270.91 265.28C270.91 265.28 273.62 268.89 279.91 268.44C286.2 267.99 286.01 264.15 286.01 264.15C286.01 264.15 294.85 190.7 294.85 186.63Z" fill="#263238" stroke="#263238" stroke-linecap="round" stroke-linejoin="round"/>
<path d="M268.41 203.13C268.41 203.13 267.05 188.21 273.61 182.56" stroke="#707070" stroke-linecap="round" stroke-linejoin="round"/>
<path d="M234.06 203.13C234.06 203.13 234.74 190.7 233.38 186.18C232.02 181.66 229.76 179.85 229.76 179.85" stroke="#707070" stroke-linecap="round" stroke-linejoin="round"/>
<path d="M242.42 173.52C242.42 173.52 249.65 181.88 251.01 188.89" stroke="#707070" stroke-linecap="round" stroke-linejoin="round"/>
<path d="M258.24 174C258.24 174 254.17 178.52 253.72 181.91" stroke="#707070" stroke-linecap="round" stroke-linejoin="round"/>
<path d="M248.07 86.06C248.07 86.06 241.52 85.15 239.26 87.41C237 89.67 229.31 98 229.31 98L233.38 169.87C233.38 169.87 242.65 173.49 250.56 173.49C258.47 173.49 267.51 170.55 269.56 168.97C271.61 167.39 269.79 90.32 269.79 90.32C269.79 90.32 253 85.38 248.07 86.06Z" fill="#92C6E3" stroke="#263238" stroke-linecap="round" stroke-linejoin="round"/>
<path d="M260.05 87.6399C263.491 87.1175 266.961 86.8136 270.44 86.73C274.96 86.73 279.44 86.9599 279.44 86.9599L290.74 76.11L268 70.91L269.81 60.52C269.81 60.52 286.53 59.39 294.89 60.97C303.25 62.55 316.36 66.62 317.04 66.62C317.72 66.62 318.62 69.11 317.94 70.91C317.26 72.71 296 96.23 289.65 102.33C285.496 106.401 281.574 110.701 277.9 115.21L275 165.61C275 165.61 282.46 169.68 283.82 171.03C285.18 172.38 286.76 177.81 286.76 177.81C286.76 177.81 272.97 172.16 269.35 171.71C265.73 171.26 263.48 171.03 262.8 169.71C262.12 168.39 256.47 108.01 256.47 108.01L256.7 88.8C256.7 88.8 256.66 87.6399 260.05 87.6399Z" fill="#7D7D7D" stroke="#263238" stroke-linecap="round" stroke-linejoin="round"/>
<path d="M273.61 118.6L261.4 120.18L262.53 124.7L268.64 126.28L274.51 123.57L273.61 118.6Z" stroke="#263238" stroke-linecap="round" stroke-linejoin="round"/>
<path d="M280.61 91.48L277.9 115.21L284.91 95.1" stroke="#263238" stroke-linecap="round" stroke-linejoin="round"/>
<path d="M290.78 76.11C290.78 76.11 296.43 77.24 305.02 73.85" stroke="#263238" stroke-linecap="round" stroke-linejoin="round"/>
<path d="M296.66 77.69C300.372 77.7934 304.084 77.4916 307.73 76.79" stroke="#263238" stroke-linecap="round" stroke-linejoin="round"/>
<path d="M240.39 85.83L241.52 102.33C242.55 103.685 243.884 104.779 245.414 105.524C246.945 106.269 248.628 106.645 250.33 106.62C255.98 106.4 256.66 102.33 256.66 102.33V88.77L240.39 85.83Z" fill="white" stroke="#263238" stroke-linecap="round" stroke-linejoin="round"/>
<path d="M256.88 94.42L256.43 108L261.18 100.54C261.18 100.54 266.38 107.09 267.73 106.87C269.08 106.65 266.83 103.93 266.38 101.45C265.93 98.97 262.08 90.14 261.63 87.66C261.18 85.18 256.88 84.72 256.63 85.85C256.505 86.826 256.505 87.814 256.63 88.79L256.88 94.42Z" fill="#7D7D7D" stroke="#263238" stroke-linecap="round" stroke-linejoin="round"/>
<path d="M241.29 106.62C241.29 106.62 242.19 169.9 239.93 170.62C237.67 171.34 228.63 171.53 222.93 174.24C217.23 176.95 214.57 178.08 214.57 178.08C214.57 178.08 217.28 171.53 220.45 168.59C222.557 166.696 224.912 165.098 227.45 163.84L221.58 133.56C221.58 133.56 210.73 104.85 210.5 103.27C210.27 101.69 231.07 89.9399 235.36 87.8999C239.65 85.8599 240.79 87.6799 240.79 87.6799L241.29 106.62Z" fill="#7D7D7D" stroke="#263238" stroke-linecap="round" stroke-linejoin="round"/>
<path d="M235.64 84.7C235.64 84.7 230.22 101.88 229.76 104.14C229.3 106.4 229.76 106.4 231.35 104.81C232.94 103.22 237 99.39 237 99.39L241.29 106.62L241.06 93.29V85.6C241.06 85.6 240.84 82.44 235.64 84.7Z" fill="#7D7D7D" stroke="#263238" stroke-linecap="round" stroke-linejoin="round"/>
<path d="M225.02 121.77H238.35L238.13 127.19L232.25 129.22L224.79 127.19L225.02 121.77Z" stroke="#263238" stroke-linecap="round" stroke-linejoin="round"/>
<path d="M261.63 62.33C261.63 62.33 264.79 76.11 265.47 78.33C266.15 80.55 261.86 89.41 260.47 91.44C259.941 92.3204 259.214 93.0648 258.345 93.6135C257.477 94.1622 256.493 94.5001 255.47 94.6C253.89 94.6 245.3 91.67 243.26 90.31C241.22 88.95 239.2 87.37 239.2 87.37C238.239 87.8083 237.171 87.9566 236.126 87.7968C235.082 87.6369 234.107 87.1758 233.32 86.47C230.61 83.98 226.99 81.04 227.89 79.01C228.329 78.0139 229.063 77.1765 229.993 76.6113C230.923 76.0461 232.004 75.7803 233.09 75.85C235.58 75.85 234.68 75.62 234.68 75.62C234.68 75.62 230.16 69.07 230.16 63.87C230.16 58.67 239.87 54.87 245.52 54.87C249.427 55.0328 253.265 55.9532 256.82 57.58L261.63 62.33Z" fill="white" stroke="#263238" stroke-linecap="round" stroke-linejoin="round"/>
<path d="M253.72 67.52L257.79 75.21L253.72 77.92L251.91 75.66" stroke="#263238" stroke-linecap="round" stroke-linejoin="round"/>
<path d="M261.18 74.53C261.18 74.53 261.4 76.34 258.69 79.28" stroke="#263238" stroke-linecap="round" stroke-linejoin="round"/>
<path d="M249.43 70.3499C249.43 71.4099 248.97 72.2699 248.43 72.2699C247.89 72.2699 247.43 71.4099 247.43 70.3499C247.43 69.2899 247.89 68.4299 248.43 68.4299C248.97 68.4299 249.43 69.2899 249.43 70.3499Z" fill="#263238"/>
<path d="M256.54 68.6499C257.103 68.6499 257.56 67.7903 257.56 66.7299C257.56 65.6696 257.103 64.8099 256.54 64.8099C255.977 64.8099 255.52 65.6696 255.52 66.7299C255.52 67.7903 255.977 68.6499 256.54 68.6499Z" fill="#263238"/>
<path d="M237.22 50.57C237.22 50.57 223 55.77 222.53 62.33C222.06 68.89 235.19 77.92 235.87 79.05C236.55 80.18 238.58 77.69 238.58 77.69C238.128 77.0828 237.813 76.385 237.656 75.6446C237.498 74.9041 237.503 74.1384 237.67 73.4C238.35 71.14 241.29 68.4 241.29 67.3C241.29 66.2 237.9 68.2 237.9 64.81C237.9 61.42 246.26 59.39 251.23 59.61C256.2 59.83 260.5 68.2 264.12 64.13C267.74 60.06 262.53 58.94 262.53 58.94C262.53 58.94 269.53 58.03 269.53 54.42C269.53 50.81 265.91 48.31 264.33 48.31C262.75 48.31 258.46 51.03 258.46 48.09C258.46 45.15 262.75 43.79 258.68 39.09C254.61 34.39 249.42 39.09 249.42 40.9C249.42 42.71 248.06 46.09 247.16 46.09C246.26 46.09 243.54 42.03 240.38 44.29C239.43 45.0454 238.655 45.9983 238.11 47.0826C237.564 48.1669 237.26 49.3568 237.22 50.57Z" fill="#263238" stroke="#263238" stroke-linecap="round" stroke-linejoin="round"/>
<path d="M243.1 67.98L250.33 65.26" stroke="#263238" stroke-linecap="round" stroke-linejoin="round"/>
<path d="M251.46 62.1C251.322 61.3906 251.435 60.6551 251.78 60.02" stroke="#263238" stroke-linecap="round" stroke-linejoin="round"/>
<path d="M251.78 60C252.29 59 253.44 57.71 255.98 56.66" stroke="white" stroke-linecap="round" stroke-linejoin="round"/>
</svg>
