<svg width="278" height="299" viewBox="0 0 278 299" fill="none" xmlns="http://www.w3.org/2000/svg">
<path d="M1.9375 276.82L8.6875 276.164C9.09375 278.43 9.91406 280.094 11.1484 281.156C12.3984 282.219 14.0781 282.75 16.1875 282.75C18.4219 282.75 20.1016 282.281 21.2266 281.344C22.3672 280.391 22.9375 279.281 22.9375 278.016C22.9375 277.203 22.6953 276.516 22.2109 275.953C21.7422 275.375 20.9141 274.875 19.7266 274.453C18.9141 274.172 17.0625 273.672 14.1719 272.953C10.4531 272.031 7.84375 270.898 6.34375 269.555C4.23438 267.664 3.17969 265.359 3.17969 262.641C3.17969 260.891 3.67188 259.258 4.65625 257.742C5.65625 256.211 7.08594 255.047 8.94531 254.25C10.8203 253.453 13.0781 253.055 15.7188 253.055C20.0312 253.055 23.2734 254 25.4453 255.891C27.6328 257.781 28.7812 260.305 28.8906 263.461L21.9531 263.766C21.6562 262 21.0156 260.734 20.0312 259.969C19.0625 259.188 17.6016 258.797 15.6484 258.797C13.6328 258.797 12.0547 259.211 10.9141 260.039C10.1797 260.57 9.8125 261.281 9.8125 262.172C9.8125 262.984 10.1562 263.68 10.8438 264.258C11.7188 264.992 13.8438 265.758 17.2188 266.555C20.5938 267.352 23.0859 268.18 24.6953 269.039C26.3203 269.883 27.5859 271.047 28.4922 272.531C29.4141 274 29.875 275.82 29.875 277.992C29.875 279.961 29.3281 281.805 28.2344 283.523C27.1406 285.242 25.5938 286.523 23.5938 287.367C21.5938 288.195 19.1016 288.609 16.1172 288.609C11.7734 288.609 8.4375 287.609 6.10938 285.609C3.78125 283.594 2.39062 280.664 1.9375 276.82ZM57.3672 270.469L50.875 271.641C50.6562 270.344 50.1562 269.367 49.375 268.711C48.6094 268.055 47.6094 267.727 46.375 267.727C44.7344 267.727 43.4219 268.297 42.4375 269.438C41.4688 270.562 40.9844 272.453 40.9844 275.109C40.9844 278.062 41.4766 280.148 42.4609 281.367C43.4609 282.586 44.7969 283.195 46.4688 283.195C47.7188 283.195 48.7422 282.844 49.5391 282.141C50.3359 281.422 50.8984 280.195 51.2266 278.461L57.6953 279.562C57.0234 282.531 55.7344 284.773 53.8281 286.289C51.9219 287.805 49.3672 288.562 46.1641 288.562C42.5234 288.562 39.6172 287.414 37.4453 285.117C35.2891 282.82 34.2109 279.641 34.2109 275.578C34.2109 271.469 35.2969 268.273 37.4688 265.992C39.6406 263.695 42.5781 262.547 46.2812 262.547C49.3125 262.547 51.7188 263.203 53.5 264.516C55.2969 265.812 56.5859 267.797 57.3672 270.469ZM68.6875 288H62.1016V263.109H68.2188V266.648C69.2656 264.977 70.2031 263.875 71.0312 263.344C71.875 262.812 72.8281 262.547 73.8906 262.547C75.3906 262.547 76.8359 262.961 78.2266 263.789L76.1875 269.531C75.0781 268.812 74.0469 268.453 73.0938 268.453C72.1719 268.453 71.3906 268.711 70.75 269.227C70.1094 269.727 69.6016 270.641 69.2266 271.969C68.8672 273.297 68.6875 276.078 68.6875 280.312V288ZM79.5625 275.203C79.5625 273.016 80.1016 270.898 81.1797 268.852C82.2578 266.805 83.7812 265.242 85.75 264.164C87.7344 263.086 89.9453 262.547 92.3828 262.547C96.1484 262.547 99.2344 263.773 101.641 266.227C104.047 268.664 105.25 271.75 105.25 275.484C105.25 279.25 104.031 282.375 101.594 284.859C99.1719 287.328 96.1172 288.562 92.4297 288.562C90.1484 288.562 87.9688 288.047 85.8906 287.016C83.8281 285.984 82.2578 284.477 81.1797 282.492C80.1016 280.492 79.5625 278.062 79.5625 275.203ZM86.3125 275.555C86.3125 278.023 86.8984 279.914 88.0703 281.227C89.2422 282.539 90.6875 283.195 92.4062 283.195C94.125 283.195 95.5625 282.539 96.7188 281.227C97.8906 279.914 98.4766 278.008 98.4766 275.508C98.4766 273.07 97.8906 271.195 96.7188 269.883C95.5625 268.57 94.125 267.914 92.4062 267.914C90.6875 267.914 89.2422 268.57 88.0703 269.883C86.8984 271.195 86.3125 273.086 86.3125 275.555ZM110.43 288V253.641H117.016V288H110.43ZM123.789 288V253.641H130.375V288H123.789ZM150.531 253.641H163.211C166.07 253.641 168.25 253.859 169.75 254.297C171.766 254.891 173.492 255.945 174.93 257.461C176.367 258.977 177.461 260.836 178.211 263.039C178.961 265.227 179.336 267.93 179.336 271.148C179.336 273.977 178.984 276.414 178.281 278.461C177.422 280.961 176.195 282.984 174.602 284.531C173.398 285.703 171.773 286.617 169.727 287.273C168.195 287.758 166.148 288 163.586 288H150.531V253.641ZM157.469 259.453V282.211H162.648C164.586 282.211 165.984 282.102 166.844 281.883C167.969 281.602 168.898 281.125 169.633 280.453C170.383 279.781 170.992 278.68 171.461 277.148C171.93 275.602 172.164 273.5 172.164 270.844C172.164 268.188 171.93 266.148 171.461 264.727C170.992 263.305 170.336 262.195 169.492 261.398C168.648 260.602 167.578 260.062 166.281 259.781C165.312 259.562 163.414 259.453 160.586 259.453H157.469ZM183.672 275.203C183.672 273.016 184.211 270.898 185.289 268.852C186.367 266.805 187.891 265.242 189.859 264.164C191.844 263.086 194.055 262.547 196.492 262.547C200.258 262.547 203.344 263.773 205.75 266.227C208.156 268.664 209.359 271.75 209.359 275.484C209.359 279.25 208.141 282.375 205.703 284.859C203.281 287.328 200.227 288.562 196.539 288.562C194.258 288.562 192.078 288.047 190 287.016C187.938 285.984 186.367 284.477 185.289 282.492C184.211 280.492 183.672 278.062 183.672 275.203ZM190.422 275.555C190.422 278.023 191.008 279.914 192.18 281.227C193.352 282.539 194.797 283.195 196.516 283.195C198.234 283.195 199.672 282.539 200.828 281.227C202 279.914 202.586 278.008 202.586 275.508C202.586 273.07 202 271.195 200.828 269.883C199.672 268.57 198.234 267.914 196.516 267.914C194.797 267.914 193.352 268.57 192.18 269.883C191.008 271.195 190.422 273.086 190.422 275.555ZM219.18 288L211.305 263.109H217.703L222.367 279.422L226.656 263.109H233.008L237.156 279.422L241.914 263.109H248.406L240.414 288H234.086L229.797 271.992L225.578 288H219.18ZM274.539 288H267.953V275.297C267.953 272.609 267.812 270.875 267.531 270.094C267.25 269.297 266.789 268.68 266.148 268.242C265.523 267.805 264.766 267.586 263.875 267.586C262.734 267.586 261.711 267.898 260.805 268.523C259.898 269.148 259.273 269.977 258.93 271.008C258.602 272.039 258.438 273.945 258.438 276.727V288H251.852V263.109H257.969V266.766C260.141 263.953 262.875 262.547 266.172 262.547C267.625 262.547 268.953 262.812 270.156 263.344C271.359 263.859 272.266 264.523 272.875 265.336C273.5 266.148 273.93 267.07 274.164 268.102C274.414 269.133 274.539 270.609 274.539 272.531V288Z" fill="white"/>
<path d="M142 2C142 0.895431 141.105 4.82823e-08 140 0C138.895 -4.82823e-08 138 0.89543 138 2L142 2ZM138.586 213.414C139.367 214.195 140.633 214.195 141.414 213.414L154.142 200.686C154.923 199.905 154.923 198.639 154.142 197.858C153.361 197.077 152.095 197.077 151.314 197.858L140 209.172L128.686 197.858C127.905 197.077 126.639 197.077 125.858 197.858C125.077 198.639 125.077 199.905 125.858 200.686L138.586 213.414ZM138 2L138 212L142 212L142 2L138 2Z" fill="white"/>
</svg>
